<?xml version="1.0" encoding="UTF-8" standalone="no"?>
<!DOCTYPE svg PUBLIC "-//W3C//DTD SVG 1.1//EN"
 "http://www.w3.org/Graphics/SVG/1.1/DTD/svg11.dtd">
<!-- Generated by graphviz version 12.2.1 (0)
 -->
<!-- Pages: 1 -->
<svg width="1034pt" height="764pt"
 viewBox="0.00 0.00 1034.00 764.00" xmlns="http://www.w3.org/2000/svg" xmlns:xlink="http://www.w3.org/1999/xlink">
<g id="graph0" class="graph" transform="scale(1 1) rotate(0) translate(4 760)">
<polygon fill="white" stroke="none" points="-4,4 -4,-760 1030,-760 1030,4 -4,4"/>
<!-- 0 -->
<g id="node1" class="node">
<title>0</title>
<polygon fill="none" stroke="black" points="965,-180 911,-180 911,-144 965,-144 965,-180"/>
<text text-anchor="middle" x="938" y="-157.32" font-family="Times,serif" font-size="14.00">cli</text>
</g>
<!-- 1 -->
<g id="node2" class="node">
<title>1</title>
<polygon fill="none" stroke="black" points="855.38,-180 796.62,-180 796.62,-144 855.38,-144 855.38,-180"/>
<text text-anchor="middle" x="826" y="-157.32" font-family="Times,serif" font-size="14.00">config</text>
</g>
<!-- 2 -->
<g id="node3" class="node">
<title>2</title>
<polygon fill="none" stroke="black" points="1020,-36 966,-36 966,0 1020,0 1020,-36"/>
<text text-anchor="middle" x="993" y="-13.32" font-family="Times,serif" font-size="14.00">lpm</text>
</g>
<!-- 1&#45;&gt;2 -->
<g id="edge1" class="edge">
<title>1&#45;&gt;2</title>
<path fill="none" stroke="black" d="M846.48,-143.59C875.98,-118.5 930.58,-72.08 964.15,-43.53"/>
<polygon fill="black" stroke="black" points="966.11,-46.46 971.46,-37.31 961.58,-41.12 966.11,-46.46"/>
</g>
<!-- 3 -->
<g id="node4" class="node">
<title>3</title>
<polygon fill="none" stroke="black" points="594,-36 540,-36 540,0 594,0 594,-36"/>
<text text-anchor="middle" x="567" y="-13.32" font-family="Times,serif" font-size="14.00">net</text>
</g>
<!-- 1&#45;&gt;3 -->
<g id="edge2" class="edge">
<title>1&#45;&gt;3</title>
<path fill="none" stroke="black" d="M796.29,-144.71C748.83,-118.69 656,-67.79 604.19,-39.39"/>
<polygon fill="black" stroke="black" points="606.19,-36.49 595.73,-34.75 602.82,-42.63 606.19,-36.49"/>
</g>
<!-- 4 -->
<g id="node5" class="node">
<title>4</title>
<polygon fill="none" stroke="black" points="538.5,-324 465.5,-324 465.5,-288 538.5,-288 538.5,-324"/>
<text text-anchor="middle" x="502" y="-301.32" font-family="Times,serif" font-size="14.00">pipeline</text>
</g>
<!-- 4&#45;&gt;3 -->
<g id="edge4" class="edge">
<title>4&#45;&gt;3</title>
<path fill="none" stroke="black" d="M505.97,-287.54C516.85,-239.66 547.24,-105.95 560.58,-47.24"/>
<polygon fill="black" stroke="black" points="563.94,-48.23 562.75,-37.71 557.12,-46.68 563.94,-48.23"/>
</g>
<!-- 5 -->
<g id="node6" class="node">
<title>5</title>
<polygon fill="none" stroke="black" points="464,-180 410,-180 410,-144 464,-144 464,-180"/>
<text text-anchor="middle" x="437" y="-157.32" font-family="Times,serif" font-size="14.00">id</text>
</g>
<!-- 4&#45;&gt;5 -->
<g id="edge3" class="edge">
<title>4&#45;&gt;5</title>
<path fill="none" stroke="black" d="M494.03,-287.59C482.91,-263.29 462.62,-218.97 449.48,-190.27"/>
<polygon fill="black" stroke="black" points="452.81,-189.12 445.46,-181.49 446.44,-192.04 452.81,-189.12"/>
</g>
<!-- 6 -->
<g id="node7" class="node">
<title>6</title>
<polygon fill="none" stroke="black" points="439.25,-756 352.75,-756 352.75,-720 439.25,-720 439.25,-756"/>
<text text-anchor="middle" x="396" y="-733.33" font-family="Times,serif" font-size="14.00">dataplane</text>
</g>
<!-- 6&#45;&gt;3 -->
<g id="edge9" class="edge">
<title>6&#45;&gt;3</title>
<path fill="none" stroke="black" d="M358.74,-719.62C285.1,-685.27 128,-612 128,-612 128,-612 0,-451 0,-451 0,-451 0,-451 0,-305 0,-305 318,-144 318,-144 318,-144 460.35,-72.54 529.79,-37.68"/>
<polygon fill="black" stroke="black" points="531.16,-40.91 538.53,-33.29 528.02,-34.65 531.16,-40.91"/>
</g>
<!-- 6&#45;&gt;4 -->
<g id="edge10" class="edge">
<title>6&#45;&gt;4</title>
<path fill="none" stroke="black" d="M400.29,-719.61C416.59,-653.49 474.81,-417.29 495.03,-335.29"/>
<polygon fill="black" stroke="black" points="498.42,-336.15 497.41,-325.6 491.62,-334.48 498.42,-336.15"/>
</g>
<!-- 6&#45;&gt;5 -->
<g id="edge6" class="edge">
<title>6&#45;&gt;5</title>
<path fill="none" stroke="black" d="M397.25,-719.51C403.08,-637.81 427.68,-293.5 434.96,-191.55"/>
<polygon fill="black" stroke="black" points="438.43,-192.09 435.65,-181.87 431.45,-191.59 438.43,-192.09"/>
</g>
<!-- 7 -->
<g id="node8" class="node">
<title>7</title>
<polygon fill="none" stroke="black" points="191,-612 137,-612 137,-576 191,-576 191,-612"/>
<text text-anchor="middle" x="164" y="-589.33" font-family="Times,serif" font-size="14.00">dpdk</text>
</g>
<!-- 6&#45;&gt;7 -->
<g id="edge5" class="edge">
<title>6&#45;&gt;7</title>
<path fill="none" stroke="black" d="M367.55,-719.59C325.62,-693.92 247.19,-645.92 200.89,-617.58"/>
<polygon fill="black" stroke="black" points="202.89,-614.7 192.53,-612.46 199.23,-620.67 202.89,-614.7"/>
</g>
<!-- 10 -->
<g id="node11" class="node">
<title>10</title>
<polygon fill="none" stroke="black" points="688,-612 630,-612 630,-576 688,-576 688,-612"/>
<text text-anchor="middle" x="659" y="-589.33" font-family="Times,serif" font-size="14.00">mgmt</text>
</g>
<!-- 6&#45;&gt;10 -->
<g id="edge7" class="edge">
<title>6&#45;&gt;10</title>
<path fill="none" stroke="black" d="M428.25,-719.59C476.6,-693.48 567.75,-644.27 619.85,-616.14"/>
<polygon fill="black" stroke="black" points="621.25,-619.36 628.39,-611.53 617.93,-613.2 621.25,-619.36"/>
</g>
<!-- 13 -->
<g id="node14" class="node">
<title>13</title>
<polygon fill="none" stroke="black" points="932,-468 878,-468 878,-432 932,-432 932,-468"/>
<text text-anchor="middle" x="905" y="-445.32" font-family="Times,serif" font-size="14.00">nat</text>
</g>
<!-- 6&#45;&gt;13 -->
<g id="edge8" class="edge">
<title>6&#45;&gt;13</title>
<path fill="none" stroke="black" d="M437.85,-719.62C520.56,-685.27 697,-612 697,-612 697,-612 816.01,-519.88 873.99,-475.01"/>
<polygon fill="black" stroke="black" points="875.78,-478.05 881.54,-469.16 871.49,-472.51 875.78,-478.05"/>
</g>
<!-- 14 -->
<g id="node15" class="node">
<title>14</title>
<polygon fill="none" stroke="black" points="1003.25,-324 934.75,-324 934.75,-288 1003.25,-288 1003.25,-324"/>
<text text-anchor="middle" x="969" y="-301.32" font-family="Times,serif" font-size="14.00">routing</text>
</g>
<!-- 6&#45;&gt;14 -->
<g id="edge12" class="edge">
<title>6&#45;&gt;14</title>
<path fill="none" stroke="black" d="M439.71,-720.79C530.9,-686.96 733,-612 733,-612 733,-612 958,-468 958,-468 958,-468 963.89,-381.85 967.05,-335.59"/>
<polygon fill="black" stroke="black" points="970.53,-335.96 967.72,-325.74 963.55,-335.48 970.53,-335.96"/>
</g>
<!-- 15 -->
<g id="node16" class="node">
<title>15</title>
<polygon fill="none" stroke="black" points="579.88,-468 500.12,-468 500.12,-432 579.88,-432 579.88,-468"/>
<text text-anchor="middle" x="540" y="-445.32" font-family="Times,serif" font-size="14.00">pkt&#45;meta</text>
</g>
<!-- 6&#45;&gt;15 -->
<g id="edge11" class="edge">
<title>6&#45;&gt;15</title>
<path fill="none" stroke="black" d="M404.79,-719.54C429,-671.46 496.78,-536.83 526.15,-478.51"/>
<polygon fill="black" stroke="black" points="529.27,-480.09 530.64,-469.58 523.02,-476.94 529.27,-480.09"/>
</g>
<!-- 16 -->
<g id="node17" class="node">
<title>16</title>
<polygon fill="none" stroke="black" points="330,-468 276,-468 276,-432 330,-432 330,-468"/>
<text text-anchor="middle" x="303" y="-445.32" font-family="Times,serif" font-size="14.00">stats</text>
</g>
<!-- 6&#45;&gt;16 -->
<g id="edge13" class="edge">
<title>6&#45;&gt;16</title>
<path fill="none" stroke="black" d="M388.77,-719.62C374.48,-685.27 344,-612 344,-612 344,-612 321.97,-525.48 310.2,-479.29"/>
<polygon fill="black" stroke="black" points="313.62,-478.52 307.76,-469.7 306.84,-480.25 313.62,-478.52"/>
</g>
<!-- 17 -->
<g id="node18" class="node">
<title>17</title>
<polygon fill="none" stroke="black" points="338.75,-324 267.25,-324 267.25,-288 338.75,-288 338.75,-324"/>
<text text-anchor="middle" x="303" y="-301.32" font-family="Times,serif" font-size="14.00">vpcmap</text>
</g>
<!-- 6&#45;&gt;17 -->
<g id="edge14" class="edge">
<title>6&#45;&gt;17</title>
<path fill="none" stroke="black" d="M386.96,-719.62C369.1,-685.27 331,-612 331,-612 331,-612 267,-468 267,-468 267,-468 267,-432 267,-432 267,-432 284.33,-371.82 294.94,-334.97"/>
<polygon fill="black" stroke="black" points="298.17,-336.41 297.58,-325.84 291.44,-334.48 298.17,-336.41"/>
</g>
<!-- 7&#45;&gt;3 -->
<g id="edge17" class="edge">
<title>7&#45;&gt;3</title>
<path fill="none" stroke="black" d="M162.75,-575.62C160.28,-541.27 155,-468 155,-468 155,-468 155,-432 155,-432 155,-432 344,-144 344,-144 344,-144 466.13,-75.54 529.63,-39.95"/>
<polygon fill="black" stroke="black" points="531.32,-43.01 538.34,-35.07 527.9,-36.9 531.32,-43.01"/>
</g>
<!-- 8 -->
<g id="node9" class="node">
<title>8</title>
<polygon fill="none" stroke="black" points="107.5,-468 28.5,-468 28.5,-432 107.5,-432 107.5,-468"/>
<text text-anchor="middle" x="68" y="-445.32" font-family="Times,serif" font-size="14.00">dpdk&#45;sys</text>
</g>
<!-- 7&#45;&gt;8 -->
<g id="edge15" class="edge">
<title>7&#45;&gt;8</title>
<path fill="none" stroke="black" d="M152.23,-575.59C135.66,-551.08 105.31,-506.19 85.93,-477.52"/>
<polygon fill="black" stroke="black" points="88.92,-475.69 80.42,-469.36 83.12,-479.61 88.92,-475.69"/>
</g>
<!-- 9 -->
<g id="node10" class="node">
<title>9</title>
<polygon fill="none" stroke="black" points="219.5,-468 164.5,-468 164.5,-432 219.5,-432 219.5,-468"/>
<text text-anchor="middle" x="192" y="-445.32" font-family="Times,serif" font-size="14.00">errno</text>
</g>
<!-- 7&#45;&gt;9 -->
<g id="edge16" class="edge">
<title>7&#45;&gt;9</title>
<path fill="none" stroke="black" d="M167.43,-575.59C172.18,-551.5 180.81,-507.75 186.47,-479.03"/>
<polygon fill="black" stroke="black" points="189.83,-480.08 188.33,-469.6 182.96,-478.73 189.83,-480.08"/>
</g>
<!-- 10&#45;&gt;1 -->
<g id="edge18" class="edge">
<title>10&#45;&gt;1</title>
<path fill="none" stroke="black" d="M679.58,-575.62C720.25,-541.27 807,-468 807,-468 807,-468 819.48,-267.71 824.21,-191.75"/>
<polygon fill="black" stroke="black" points="827.7,-191.98 824.83,-181.78 820.71,-191.55 827.7,-191.98"/>
</g>
<!-- 10&#45;&gt;2 -->
<g id="edge21" class="edge">
<title>10&#45;&gt;2</title>
<path fill="none" stroke="black" d="M688.49,-580.67C763.92,-549.14 958,-468 958,-468 958,-468 1026,-324 1026,-324 1026,-324 1026,-288 1026,-288 1026,-288 1017,-144 1017,-144 1017,-144 1005.55,-84.34 998.46,-47.45"/>
<polygon fill="black" stroke="black" points="1001.95,-47.03 996.62,-37.87 995.07,-48.35 1001.95,-47.03"/>
</g>
<!-- 10&#45;&gt;3 -->
<g id="edge23" class="edge">
<title>10&#45;&gt;3</title>
<path fill="none" stroke="black" d="M654.55,-575.62C645.76,-541.27 627,-468 627,-468 627,-468 584,-146.24 570.81,-47.48"/>
<polygon fill="black" stroke="black" points="574.31,-47.27 569.52,-37.83 567.37,-48.2 574.31,-47.27"/>
</g>
<!-- 10&#45;&gt;5 -->
<g id="edge19" class="edge">
<title>10&#45;&gt;5</title>
<path fill="none" stroke="black" d="M635.64,-575.62C589.48,-541.27 491,-468 491,-468 491,-468 456,-324 456,-324 456,-324 445.83,-237.85 440.37,-191.59"/>
<polygon fill="black" stroke="black" points="443.86,-191.25 439.21,-181.73 436.91,-192.07 443.86,-191.25"/>
</g>
<!-- 11 -->
<g id="node12" class="node">
<title>11</title>
<polygon fill="none" stroke="black" points="783.62,-468 636.38,-468 636.38,-432 783.62,-432 783.62,-468"/>
<text text-anchor="middle" x="710" y="-445.32" font-family="Times,serif" font-size="14.00">interface&#45;manager</text>
</g>
<!-- 10&#45;&gt;11 -->
<g id="edge20" class="edge">
<title>10&#45;&gt;11</title>
<path fill="none" stroke="black" d="M665.25,-575.59C673.94,-551.4 689.76,-507.36 700.07,-478.65"/>
<polygon fill="black" stroke="black" points="703.26,-480.13 703.34,-469.54 696.67,-477.76 703.26,-480.13"/>
</g>
<!-- 12 -->
<g id="node13" class="node">
<title>12</title>
<polygon fill="none" stroke="black" points="803.25,-324 746.75,-324 746.75,-288 803.25,-288 803.25,-324"/>
<text text-anchor="middle" x="775" y="-301.32" font-family="Times,serif" font-size="14.00">rekon</text>
</g>
<!-- 10&#45;&gt;12 -->
<g id="edge25" class="edge">
<title>10&#45;&gt;12</title>
<path fill="none" stroke="black" d="M677.63,-575.62C714.45,-541.27 793,-468 793,-468 793,-468 793,-432 793,-432 793,-432 784.41,-372.34 779.1,-335.45"/>
<polygon fill="black" stroke="black" points="782.61,-335.28 777.72,-325.88 775.68,-336.28 782.61,-335.28"/>
</g>
<!-- 10&#45;&gt;13 -->
<g id="edge22" class="edge">
<title>10&#45;&gt;13</title>
<path fill="none" stroke="black" d="M688.19,-576.15C732.98,-550.3 818.65,-500.85 867.82,-472.46"/>
<polygon fill="black" stroke="black" points="869.51,-475.53 876.42,-467.49 866.01,-469.46 869.51,-475.53"/>
</g>
<!-- 10&#45;&gt;14 -->
<g id="edge26" class="edge">
<title>10&#45;&gt;14</title>
<path fill="none" stroke="black" d="M688.38,-579.98C760.61,-547.96 941,-468 941,-468 941,-468 956.05,-381.48 964.08,-335.29"/>
<polygon fill="black" stroke="black" points="967.48,-336.17 965.74,-325.72 960.58,-334.97 967.48,-336.17"/>
</g>
<!-- 10&#45;&gt;15 -->
<g id="edge24" class="edge">
<title>10&#45;&gt;15</title>
<path fill="none" stroke="black" d="M644.41,-575.59C623.69,-550.86 585.59,-505.41 561.6,-476.77"/>
<polygon fill="black" stroke="black" points="564.42,-474.69 555.31,-469.27 559.05,-479.18 564.42,-474.69"/>
</g>
<!-- 10&#45;&gt;16 -->
<g id="edge27" class="edge">
<title>10&#45;&gt;16</title>
<path fill="none" stroke="black" d="M629.56,-581.26C565.23,-555.6 412.16,-494.54 340.82,-466.08"/>
<polygon fill="black" stroke="black" points="342.49,-462.98 331.9,-462.53 339.9,-469.49 342.49,-462.98"/>
</g>
<!-- 10&#45;&gt;17 -->
<g id="edge28" class="edge">
<title>10&#45;&gt;17</title>
<path fill="none" stroke="black" d="M631.05,-575.62C575.82,-541.27 458,-468 458,-468 458,-468 371.13,-377.77 327.46,-332.41"/>
<polygon fill="black" stroke="black" points="330.09,-330.1 320.64,-325.32 325.05,-334.95 330.09,-330.1"/>
</g>
<!-- 11&#45;&gt;3 -->
<g id="edge29" class="edge">
<title>11&#45;&gt;3</title>
<path fill="none" stroke="black" d="M704.85,-431.73C685.6,-367.21 619,-144 619,-144 619,-144 593.97,-83.82 578.64,-46.97"/>
<polygon fill="black" stroke="black" points="581.88,-45.67 574.81,-37.78 575.42,-48.36 581.88,-45.67"/>
</g>
<!-- 11&#45;&gt;12 -->
<g id="edge30" class="edge">
<title>11&#45;&gt;12</title>
<path fill="none" stroke="black" d="M717.97,-431.59C729.09,-407.29 749.38,-362.97 762.52,-334.27"/>
<polygon fill="black" stroke="black" points="765.56,-336.04 766.54,-325.49 759.19,-333.12 765.56,-336.04"/>
</g>
<!-- 13&#45;&gt;1 -->
<g id="edge31" class="edge">
<title>13&#45;&gt;1</title>
<path fill="none" stroke="black" d="M902.65,-431.77C896.97,-390.24 883,-288 883,-288 883,-288 855.32,-227.3 838.54,-190.5"/>
<polygon fill="black" stroke="black" points="841.89,-189.4 834.55,-181.76 835.52,-192.31 841.89,-189.4"/>
</g>
<!-- 13&#45;&gt;2 -->
<g id="edge32" class="edge">
<title>13&#45;&gt;2</title>
<path fill="none" stroke="black" d="M919.88,-431.62C949.28,-397.27 1012,-324 1012,-324 1012,-324 1012,-288 1012,-288 1012,-288 999.91,-116.78 995.02,-47.55"/>
<polygon fill="black" stroke="black" points="998.52,-47.47 994.32,-37.75 991.54,-47.97 998.52,-47.47"/>
</g>
<!-- 13&#45;&gt;3 -->
<g id="edge33" class="edge">
<title>13&#45;&gt;3</title>
<path fill="none" stroke="black" d="M895.05,-431.77C871.06,-390.24 812,-288 812,-288 812,-288 651.51,-111.79 590.32,-44.6"/>
<polygon fill="black" stroke="black" points="593.04,-42.39 583.72,-37.36 587.86,-47.11 593.04,-42.39"/>
</g>
<!-- 13&#45;&gt;4 -->
<g id="edge34" class="edge">
<title>13&#45;&gt;4</title>
<path fill="none" stroke="black" d="M877.62,-439.35C809.98,-415.52 634.38,-353.64 549.42,-323.71"/>
<polygon fill="black" stroke="black" points="550.81,-320.49 540.21,-320.46 548.48,-327.09 550.81,-320.49"/>
</g>
<!-- 13&#45;&gt;14 -->
<g id="edge35" class="edge">
<title>13&#45;&gt;14</title>
<path fill="none" stroke="black" d="M912.85,-431.59C923.8,-407.29 943.77,-362.97 956.71,-334.27"/>
<polygon fill="black" stroke="black" points="959.75,-336.05 960.67,-325.49 953.37,-333.17 959.75,-336.05"/>
</g>
<!-- 14&#45;&gt;0 -->
<g id="edge36" class="edge">
<title>14&#45;&gt;0</title>
<path fill="none" stroke="black" d="M965.2,-287.59C959.94,-263.5 950.39,-219.75 944.12,-191.03"/>
<polygon fill="black" stroke="black" points="947.61,-190.61 942.06,-181.59 940.77,-192.11 947.61,-190.61"/>
</g>
<!-- 14&#45;&gt;1 -->
<g id="edge37" class="edge">
<title>14&#45;&gt;1</title>
<path fill="none" stroke="black" d="M951.47,-287.59C926.35,-262.65 880,-216.62 851.21,-188.03"/>
<polygon fill="black" stroke="black" points="853.87,-185.74 844.31,-181.18 848.94,-190.71 853.87,-185.74"/>
</g>
<!-- 14&#45;&gt;2 -->
<g id="edge38" class="edge">
<title>14&#45;&gt;2</title>
<path fill="none" stroke="black" d="M970.47,-287.54C974.47,-239.76 985.66,-106.51 990.6,-47.61"/>
<polygon fill="black" stroke="black" points="994.08,-48 991.43,-37.74 987.1,-47.41 994.08,-48"/>
</g>
<!-- 14&#45;&gt;3 -->
<g id="edge39" class="edge">
<title>14&#45;&gt;3</title>
<path fill="none" stroke="black" d="M957.76,-287.77C930.68,-246.24 864,-144 864,-144 864,-144 684.42,-68.42 604.54,-34.8"/>
<polygon fill="black" stroke="black" points="606.38,-31.78 595.8,-31.12 603.66,-38.23 606.38,-31.78"/>
</g>
<!-- 15&#45;&gt;1 -->
<g id="edge40" class="edge">
<title>15&#45;&gt;1</title>
<path fill="none" stroke="black" d="M557.46,-431.54C606.14,-382.86 743.54,-245.46 800.63,-188.37"/>
<polygon fill="black" stroke="black" points="803.1,-190.85 807.7,-181.3 798.15,-185.9 803.1,-190.85"/>
</g>
<!-- 15&#45;&gt;2 -->
<g id="edge41" class="edge">
<title>15&#45;&gt;2</title>
<path fill="none" stroke="black" d="M554.04,-431.73C606.51,-367.21 788,-144 788,-144 788,-144 897.03,-77.52 956.07,-41.52"/>
<polygon fill="black" stroke="black" points="957.77,-44.58 964.49,-36.39 954.13,-38.6 957.77,-44.58"/>
</g>
<!-- 15&#45;&gt;3 -->
<g id="edge42" class="edge">
<title>15&#45;&gt;3</title>
<path fill="none" stroke="black" d="M541.09,-431.61C545.24,-365.55 560.04,-129.78 565.21,-47.54"/>
<polygon fill="black" stroke="black" points="568.7,-47.84 565.83,-37.64 561.71,-47.41 568.7,-47.84"/>
</g>
<!-- 15&#45;&gt;4 -->
<g id="edge43" class="edge">
<title>15&#45;&gt;4</title>
<path fill="none" stroke="black" d="M535.34,-431.59C528.9,-407.5 517.19,-363.75 509.5,-335.03"/>
<polygon fill="black" stroke="black" points="512.94,-334.33 506.97,-325.57 506.17,-336.14 512.94,-334.33"/>
</g>
<!-- 16&#45;&gt;3 -->
<g id="edge44" class="edge">
<title>16&#45;&gt;3</title>
<path fill="none" stroke="black" d="M296.74,-431.62C284.38,-397.27 258,-324 258,-324 258,-324 258,-288 258,-288 258,-288 376,-144 376,-144 376,-144 475.64,-78.79 530.98,-42.57"/>
<polygon fill="black" stroke="black" points="532.73,-45.61 539.18,-37.21 528.89,-39.76 532.73,-45.61"/>
</g>
<!-- 16&#45;&gt;4 -->
<g id="edge45" class="edge">
<title>16&#45;&gt;4</title>
<path fill="none" stroke="black" d="M327.4,-431.59C362.78,-406.34 428.45,-359.48 468.39,-330.98"/>
<polygon fill="black" stroke="black" points="470.37,-333.87 476.48,-325.21 466.31,-328.17 470.37,-333.87"/>
</g>
<!-- 16&#45;&gt;17 -->
<g id="edge46" class="edge">
<title>16&#45;&gt;17</title>
<path fill="none" stroke="black" d="M303,-431.59C303,-407.61 303,-364.14 303,-335.42"/>
<polygon fill="black" stroke="black" points="306.5,-335.62 303,-325.62 299.5,-335.62 306.5,-335.62"/>
</g>
<!-- 17&#45;&gt;3 -->
<g id="edge47" class="edge">
<title>17&#45;&gt;3</title>
<path fill="none" stroke="black" d="M313.49,-287.77C338.77,-246.24 401,-144 401,-144 401,-144 486.52,-79.6 534.8,-43.25"/>
<polygon fill="black" stroke="black" points="536.83,-46.1 542.71,-37.29 532.62,-40.51 536.83,-46.1"/>
</g>
</g>
</svg>
