<?xml version="1.0" encoding="UTF-8" standalone="no"?>
<!DOCTYPE svg PUBLIC "-//W3C//DTD SVG 1.1//EN"
 "http://www.w3.org/Graphics/SVG/1.1/DTD/svg11.dtd">
<!-- Generated by graphviz version 12.2.1 (0)
 -->
<!-- Pages: 1 -->
<svg width="1571pt" height="1196pt"
 viewBox="0.00 0.00 1570.50 1196.00" xmlns="http://www.w3.org/2000/svg" xmlns:xlink="http://www.w3.org/1999/xlink">
<g id="graph0" class="graph" transform="scale(1 1) rotate(0) translate(4 1192)">
<polygon fill="white" stroke="none" points="-4,4 -4,-1192 1566.5,-1192 1566.5,4 -4,4"/>
<!-- 0 -->
<g id="node1" class="node">
<title>0</title>
<polygon fill="none" stroke="black" points="715,-1044 661,-1044 661,-1008 715,-1008 715,-1044"/>
<text text-anchor="middle" x="688" y="-1021.33" font-family="Times,serif" font-size="14.00">args</text>
</g>
<!-- 1 -->
<g id="node2" class="node">
<title>1</title>
<polygon fill="none" stroke="black" points="718,-900 660,-900 660,-864 718,-864 718,-900"/>
<text text-anchor="middle" x="689" y="-877.33" font-family="Times,serif" font-size="14.00">mgmt</text>
</g>
<!-- 0&#45;&gt;1 -->
<g id="edge1" class="edge">
<title>0&#45;&gt;1</title>
<path fill="none" stroke="black" d="M688.12,-1007.59C688.29,-983.61 688.6,-940.14 688.8,-911.42"/>
<polygon fill="black" stroke="black" points="692.3,-911.65 688.87,-901.62 685.3,-911.6 692.3,-911.65"/>
</g>
<!-- 14 -->
<g id="node15" class="node">
<title>14</title>
<polygon fill="none" stroke="black" points="279.25,-612 210.75,-612 210.75,-576 279.25,-576 279.25,-612"/>
<text text-anchor="middle" x="245" y="-589.33" font-family="Times,serif" font-size="14.00">routing</text>
</g>
<!-- 0&#45;&gt;14 -->
<g id="edge2" class="edge">
<title>0&#45;&gt;14</title>
<path fill="none" stroke="black" d="M661.48,-1007.56C570.85,-947.95 279,-756 279,-756 279,-756 260.73,-669.48 250.97,-623.29"/>
<polygon fill="black" stroke="black" points="254.44,-622.77 248.95,-613.71 247.59,-624.22 254.44,-622.77"/>
</g>
<!-- 2 -->
<g id="node3" class="node">
<title>2</title>
<polygon fill="none" stroke="black" points="540.38,-468 481.62,-468 481.62,-432 540.38,-432 540.38,-468"/>
<text text-anchor="middle" x="511" y="-445.32" font-family="Times,serif" font-size="14.00">config</text>
</g>
<!-- 1&#45;&gt;2 -->
<g id="edge3" class="edge">
<title>1&#45;&gt;2</title>
<path fill="none" stroke="black" d="M681.8,-863.61C654.35,-797.28 556.05,-559.84 522.4,-478.54"/>
<polygon fill="black" stroke="black" points="525.73,-477.43 518.67,-469.53 519.26,-480.11 525.73,-477.43"/>
</g>
<!-- 3 -->
<g id="node4" class="node">
<title>3</title>
<polygon fill="none" stroke="black" points="487,-324 433,-324 433,-288 487,-288 487,-324"/>
<text text-anchor="middle" x="460" y="-301.32" font-family="Times,serif" font-size="14.00">lpm</text>
</g>
<!-- 1&#45;&gt;3 -->
<g id="edge6" class="edge">
<title>1&#45;&gt;3</title>
<path fill="none" stroke="black" d="M659.77,-868.44C585.97,-836.74 398,-756 398,-756 398,-756 364,-612 364,-612 364,-612 364,-576 364,-576 364,-576 425.61,-403.36 450.12,-334.69"/>
<polygon fill="black" stroke="black" points="453.28,-336.26 453.34,-325.66 446.68,-333.9 453.28,-336.26"/>
</g>
<!-- 4 -->
<g id="node5" class="node">
<title>4</title>
<polygon fill="none" stroke="black" points="583.38,-36 512.62,-36 512.62,0 583.38,0 583.38,-36"/>
<text text-anchor="middle" x="548" y="-13.32" font-family="Times,serif" font-size="14.00">tracectl</text>
</g>
<!-- 1&#45;&gt;4 -->
<g id="edge13" class="edge">
<title>1&#45;&gt;4</title>
<path fill="none" stroke="black" d="M659.67,-868.9C583.63,-837.53 386,-756 386,-756 386,-756 360,-612 360,-612 360,-612 360,-576 360,-576 360,-576 420,-288 420,-288 420,-288 470,-144 470,-144 470,-144 508.2,-82.78 531.14,-46.03"/>
<polygon fill="black" stroke="black" points="534.03,-48 536.35,-37.66 528.09,-44.3 534.03,-48"/>
</g>
<!-- 5 -->
<g id="node6" class="node">
<title>5</title>
<polygon fill="none" stroke="black" points="994,-324 940,-324 940,-288 994,-288 994,-324"/>
<text text-anchor="middle" x="967" y="-301.32" font-family="Times,serif" font-size="14.00">net</text>
</g>
<!-- 1&#45;&gt;5 -->
<g id="edge8" class="edge">
<title>1&#45;&gt;5</title>
<path fill="none" stroke="black" d="M714.45,-863.62C764.73,-829.27 872,-756 872,-756 872,-756 943,-468 943,-468 943,-468 955.84,-381.85 962.74,-335.59"/>
<polygon fill="black" stroke="black" points="966.2,-336.13 964.21,-325.73 959.27,-335.1 966.2,-336.13"/>
</g>
<!-- 8 -->
<g id="node9" class="node">
<title>8</title>
<polygon fill="none" stroke="black" points="1409,-180 1355,-180 1355,-144 1409,-144 1409,-180"/>
<text text-anchor="middle" x="1382" y="-157.32" font-family="Times,serif" font-size="14.00">id</text>
</g>
<!-- 1&#45;&gt;8 -->
<g id="edge4" class="edge">
<title>1&#45;&gt;8</title>
<path fill="none" stroke="black" d="M718.39,-871.6C809.32,-842.53 1080,-756 1080,-756 1080,-756 1173,-612 1173,-612 1173,-612 1320,-324 1320,-324 1320,-324 1353.6,-236.75 1371.33,-190.71"/>
<polygon fill="black" stroke="black" points="1374.49,-192.23 1374.82,-181.64 1367.96,-189.72 1374.49,-192.23"/>
</g>
<!-- 10 -->
<g id="node11" class="node">
<title>10</title>
<polygon fill="none" stroke="black" points="558.62,-756 411.38,-756 411.38,-720 558.62,-720 558.62,-756"/>
<text text-anchor="middle" x="485" y="-733.33" font-family="Times,serif" font-size="14.00">interface&#45;manager</text>
</g>
<!-- 1&#45;&gt;10 -->
<g id="edge5" class="edge">
<title>1&#45;&gt;10</title>
<path fill="none" stroke="black" d="M663.99,-863.59C627.64,-838.29 560.12,-791.29 519.2,-762.8"/>
<polygon fill="black" stroke="black" points="521.35,-760.04 511.14,-757.2 517.35,-765.78 521.35,-760.04"/>
</g>
<!-- 11 -->
<g id="node12" class="node">
<title>11</title>
<polygon fill="none" stroke="black" points="429.25,-612 372.75,-612 372.75,-576 429.25,-576 429.25,-612"/>
<text text-anchor="middle" x="401" y="-589.33" font-family="Times,serif" font-size="14.00">rekon</text>
</g>
<!-- 1&#45;&gt;11 -->
<g id="edge10" class="edge">
<title>1&#45;&gt;11</title>
<path fill="none" stroke="black" d="M659.63,-868.21C586.49,-836.35 402,-756 402,-756 402,-756 401.46,-669.85 401.18,-623.59"/>
<polygon fill="black" stroke="black" points="404.68,-623.72 401.12,-613.74 397.68,-623.76 404.68,-623.72"/>
</g>
<!-- 12 -->
<g id="node13" class="node">
<title>12</title>
<polygon fill="none" stroke="black" points="863,-756 809,-756 809,-720 863,-720 863,-756"/>
<text text-anchor="middle" x="836" y="-733.33" font-family="Times,serif" font-size="14.00">nat</text>
</g>
<!-- 1&#45;&gt;12 -->
<g id="edge7" class="edge">
<title>1&#45;&gt;12</title>
<path fill="none" stroke="black" d="M707.03,-863.59C732.84,-838.65 780.49,-792.62 810.09,-764.03"/>
<polygon fill="black" stroke="black" points="812.44,-766.63 817.2,-757.16 807.57,-761.59 812.44,-766.63"/>
</g>
<!-- 13 -->
<g id="node14" class="node">
<title>13</title>
<polygon fill="none" stroke="black" points="731.88,-612 652.12,-612 652.12,-576 731.88,-576 731.88,-612"/>
<text text-anchor="middle" x="692" y="-589.33" font-family="Times,serif" font-size="14.00">pkt&#45;meta</text>
</g>
<!-- 1&#45;&gt;13 -->
<g id="edge9" class="edge">
<title>1&#45;&gt;13</title>
<path fill="none" stroke="black" d="M689.18,-863.54C689.68,-815.76 691.08,-682.51 691.7,-623.61"/>
<polygon fill="black" stroke="black" points="695.2,-623.78 691.8,-613.74 688.2,-623.71 695.2,-623.78"/>
</g>
<!-- 1&#45;&gt;14 -->
<g id="edge11" class="edge">
<title>1&#45;&gt;14</title>
<path fill="none" stroke="black" d="M659.56,-871.71C567.79,-842.74 293,-756 293,-756 293,-756 267.1,-669.11 253.35,-623"/>
<polygon fill="black" stroke="black" points="256.78,-622.26 250.57,-613.68 250.07,-624.26 256.78,-622.26"/>
</g>
<!-- 17 -->
<g id="node18" class="node">
<title>17</title>
<polygon fill="none" stroke="black" points="1050,-756 996,-756 996,-720 1050,-720 1050,-756"/>
<text text-anchor="middle" x="1023" y="-733.33" font-family="Times,serif" font-size="14.00">stats</text>
</g>
<!-- 1&#45;&gt;17 -->
<g id="edge12" class="edge">
<title>1&#45;&gt;17</title>
<path fill="none" stroke="black" d="M718.35,-868.52C778.96,-842.75 917.94,-783.67 985.18,-755.08"/>
<polygon fill="black" stroke="black" points="986.49,-758.33 994.32,-751.19 983.75,-751.88 986.49,-758.33"/>
</g>
<!-- 18 -->
<g id="node19" class="node">
<title>18</title>
<polygon fill="none" stroke="black" points="1163.75,-612 1092.25,-612 1092.25,-576 1163.75,-576 1163.75,-612"/>
<text text-anchor="middle" x="1128" y="-589.33" font-family="Times,serif" font-size="14.00">vpcmap</text>
</g>
<!-- 1&#45;&gt;18 -->
<g id="edge14" class="edge">
<title>1&#45;&gt;18</title>
<path fill="none" stroke="black" d="M718.34,-871.09C805.86,-841.52 1059,-756 1059,-756 1059,-756 1096.39,-668.75 1116.13,-622.71"/>
<polygon fill="black" stroke="black" points="1119.3,-624.19 1120.02,-613.62 1112.86,-621.43 1119.3,-624.19"/>
</g>
<!-- 2&#45;&gt;3 -->
<g id="edge15" class="edge">
<title>2&#45;&gt;3</title>
<path fill="none" stroke="black" d="M504.75,-431.59C496.06,-407.4 480.24,-363.36 469.93,-334.65"/>
<polygon fill="black" stroke="black" points="473.33,-333.76 466.66,-325.54 466.74,-336.13 473.33,-333.76"/>
</g>
<!-- 2&#45;&gt;4 -->
<g id="edge17" class="edge">
<title>2&#45;&gt;4</title>
<path fill="none" stroke="black" d="M512.5,-431.61C518.18,-365.55 538.47,-129.78 545.54,-47.54"/>
<polygon fill="black" stroke="black" points="549.03,-47.91 546.4,-37.64 542.05,-47.31 549.03,-47.91"/>
</g>
<!-- 2&#45;&gt;5 -->
<g id="edge16" class="edge">
<title>2&#45;&gt;5</title>
<path fill="none" stroke="black" d="M540.57,-439.79C620.26,-414.98 839.49,-346.71 928.59,-318.96"/>
<polygon fill="black" stroke="black" points="929.59,-322.32 938.09,-316 927.5,-315.63 929.59,-322.32"/>
</g>
<!-- 3&#45;&gt;4 -->
<g id="edge18" class="edge">
<title>3&#45;&gt;4</title>
<path fill="none" stroke="black" d="M464.92,-287.77C476.79,-246.24 506,-144 506,-144 506,-144 526.22,-83.82 538.6,-46.97"/>
<polygon fill="black" stroke="black" points="541.81,-48.41 541.68,-37.82 535.18,-46.18 541.81,-48.41"/>
</g>
<!-- 5&#45;&gt;4 -->
<g id="edge22" class="edge">
<title>5&#45;&gt;4</title>
<path fill="none" stroke="black" d="M961.86,-287.77C949.48,-246.24 919,-144 919,-144 919,-144 693.64,-68.07 594.21,-34.57"/>
<polygon fill="black" stroke="black" points="595.6,-31.34 585.01,-31.47 593.37,-37.98 595.6,-31.34"/>
</g>
<!-- 6 -->
<g id="node7" class="node">
<title>6</title>
<polygon fill="none" stroke="black" points="1111.88,-36 1008.12,-36 1008.12,0 1111.88,0 1111.88,-36"/>
<text text-anchor="middle" x="1060" y="-13.32" font-family="Times,serif" font-size="14.00">concurrency</text>
</g>
<!-- 5&#45;&gt;6 -->
<g id="edge19" class="edge">
<title>5&#45;&gt;6</title>
<path fill="none" stroke="black" d="M972.68,-287.54C988.28,-239.56 1031.91,-105.39 1050.93,-46.88"/>
<polygon fill="black" stroke="black" points="1054.16,-48.26 1053.93,-37.67 1047.51,-46.1 1054.16,-48.26"/>
</g>
<!-- 7 -->
<g id="node8" class="node">
<title>7</title>
<polygon fill="none" stroke="black" points="910.38,-180 833.62,-180 833.62,-144 910.38,-144 910.38,-180"/>
<text text-anchor="middle" x="872" y="-157.32" font-family="Times,serif" font-size="14.00">flow&#45;info</text>
</g>
<!-- 5&#45;&gt;7 -->
<g id="edge20" class="edge">
<title>5&#45;&gt;7</title>
<path fill="none" stroke="black" d="M955.35,-287.59C938.95,-263.08 908.92,-218.19 889.74,-189.52"/>
<polygon fill="black" stroke="black" points="892.76,-187.73 884.29,-181.37 886.94,-191.63 892.76,-187.73"/>
</g>
<!-- 5&#45;&gt;8 -->
<g id="edge21" class="edge">
<title>5&#45;&gt;8</title>
<path fill="none" stroke="black" d="M994.23,-295.68C1066.12,-271.08 1261.16,-204.35 1343.98,-176.01"/>
<polygon fill="black" stroke="black" points="1344.91,-179.39 1353.24,-172.84 1342.64,-172.77 1344.91,-179.39"/>
</g>
<!-- 7&#45;&gt;4 -->
<g id="edge24" class="edge">
<title>7&#45;&gt;4</title>
<path fill="none" stroke="black" d="M833.24,-144.01C773.25,-117.72 658.18,-67.29 594.05,-39.18"/>
<polygon fill="black" stroke="black" points="595.78,-36.12 585.21,-35.31 592.97,-42.53 595.78,-36.12"/>
</g>
<!-- 7&#45;&gt;6 -->
<g id="edge23" class="edge">
<title>7&#45;&gt;6</title>
<path fill="none" stroke="black" d="M895.05,-143.59C928.41,-118.4 990.25,-71.68 1028.01,-43.17"/>
<polygon fill="black" stroke="black" points="1029.98,-46.06 1035.85,-37.24 1025.76,-40.48 1029.98,-46.06"/>
</g>
<!-- 9 -->
<g id="node10" class="node">
<title>9</title>
<polygon fill="none" stroke="black" points="1125.5,-468 1052.5,-468 1052.5,-432 1125.5,-432 1125.5,-468"/>
<text text-anchor="middle" x="1089" y="-445.32" font-family="Times,serif" font-size="14.00">pipeline</text>
</g>
<!-- 9&#45;&gt;4 -->
<g id="edge27" class="edge">
<title>9&#45;&gt;4</title>
<path fill="none" stroke="black" d="M1080.45,-431.73C1048.51,-367.21 938,-144 938,-144 938,-144 697.75,-67 594.38,-33.87"/>
<polygon fill="black" stroke="black" points="595.68,-30.61 585.09,-30.89 593.54,-37.27 595.68,-30.61"/>
</g>
<!-- 9&#45;&gt;5 -->
<g id="edge26" class="edge">
<title>9&#45;&gt;5</title>
<path fill="none" stroke="black" d="M1074.04,-431.59C1052.8,-406.86 1013.74,-361.41 989.14,-332.77"/>
<polygon fill="black" stroke="black" points="991.86,-330.56 982.69,-325.26 986.55,-335.12 991.86,-330.56"/>
</g>
<!-- 9&#45;&gt;8 -->
<g id="edge25" class="edge">
<title>9&#45;&gt;8</title>
<path fill="none" stroke="black" d="M1106.89,-431.54C1156.86,-382.76 1298.1,-244.89 1356.37,-188.02"/>
<polygon fill="black" stroke="black" points="1358.55,-190.78 1363.26,-181.29 1353.66,-185.77 1358.55,-190.78"/>
</g>
<!-- 10&#45;&gt;4 -->
<g id="edge30" class="edge">
<title>10&#45;&gt;4</title>
<path fill="none" stroke="black" d="M482.42,-719.52C470.81,-640.91 424,-324 424,-324 424,-324 424,-288 424,-288 424,-288 503.58,-115.36 535.24,-46.69"/>
<polygon fill="black" stroke="black" points="538.41,-48.16 539.42,-37.61 532.06,-45.23 538.41,-48.16"/>
</g>
<!-- 10&#45;&gt;5 -->
<g id="edge28" class="edge">
<title>10&#45;&gt;5</title>
<path fill="none" stroke="black" d="M520.6,-719.62C590.94,-685.27 741,-612 741,-612 741,-612 892.48,-407.56 947.41,-333.44"/>
<polygon fill="black" stroke="black" points="950.16,-335.61 953.3,-325.49 944.53,-331.44 950.16,-335.61"/>
</g>
<!-- 10&#45;&gt;11 -->
<g id="edge29" class="edge">
<title>10&#45;&gt;11</title>
<path fill="none" stroke="black" d="M474.7,-719.59C460.26,-695.18 433.88,-650.58 416.91,-621.89"/>
<polygon fill="black" stroke="black" points="420,-620.24 411.89,-613.41 413.97,-623.8 420,-620.24"/>
</g>
<!-- 12&#45;&gt;2 -->
<g id="edge32" class="edge">
<title>12&#45;&gt;2</title>
<path fill="none" stroke="black" d="M808.59,-722.17C747.4,-689.06 605,-612 605,-612 605,-612 553.62,-524.01 526.84,-478.12"/>
<polygon fill="black" stroke="black" points="529.89,-476.41 521.82,-469.54 523.84,-479.94 529.89,-476.41"/>
</g>
<!-- 12&#45;&gt;3 -->
<g id="edge34" class="edge">
<title>12&#45;&gt;3</title>
<path fill="none" stroke="black" d="M808.71,-723.62C742.93,-691.38 581,-612 581,-612 581,-612 473,-468 473,-468 473,-468 466.04,-381.85 462.31,-335.59"/>
<polygon fill="black" stroke="black" points="465.81,-335.42 461.51,-325.74 458.83,-335.99 465.81,-335.42"/>
</g>
<!-- 12&#45;&gt;4 -->
<g id="edge38" class="edge">
<title>12&#45;&gt;4</title>
<path fill="none" stroke="black" d="M809.16,-719.62C756.13,-685.27 643,-612 643,-612 643,-612 571.62,-166.47 552.61,-47.77"/>
<polygon fill="black" stroke="black" points="556.07,-47.24 551.03,-37.92 549.16,-48.35 556.07,-47.24"/>
</g>
<!-- 12&#45;&gt;5 -->
<g id="edge35" class="edge">
<title>12&#45;&gt;5</title>
<path fill="none" stroke="black" d="M841.64,-719.76C861.06,-660.39 924,-468 924,-468 924,-468 947.11,-381.48 959.44,-335.29"/>
<polygon fill="black" stroke="black" points="962.81,-336.26 962.01,-325.69 956.05,-334.45 962.81,-336.26"/>
</g>
<!-- 12&#45;&gt;6 -->
<g id="edge31" class="edge">
<title>12&#45;&gt;6</title>
<path fill="none" stroke="black" d="M855.16,-719.76C921.15,-660.39 1135,-468 1135,-468 1135,-468 1135,-432 1135,-432 1135,-432 1082.18,-141.15 1065.19,-47.6"/>
<polygon fill="black" stroke="black" points="1068.68,-47.19 1063.45,-37.97 1061.79,-48.44 1068.68,-47.19"/>
</g>
<!-- 12&#45;&gt;7 -->
<g id="edge33" class="edge">
<title>12&#45;&gt;7</title>
<path fill="none" stroke="black" d="M837.1,-719.51C842.22,-637.81 863.82,-293.5 870.21,-191.55"/>
<polygon fill="black" stroke="black" points="873.68,-192.07 870.82,-181.87 866.7,-191.63 873.68,-192.07"/>
</g>
<!-- 12&#45;&gt;9 -->
<g id="edge36" class="edge">
<title>12&#45;&gt;9</title>
<path fill="none" stroke="black" d="M850.77,-719.77C886.37,-678.24 974,-576 974,-576 974,-576 1031.78,-513.2 1065.42,-476.63"/>
<polygon fill="black" stroke="black" points="1067.79,-479.22 1071.98,-469.49 1062.64,-474.48 1067.79,-479.22"/>
</g>
<!-- 12&#45;&gt;13 -->
<g id="edge37" class="edge">
<title>12&#45;&gt;13</title>
<path fill="none" stroke="black" d="M818.34,-719.59C793.05,-694.65 746.37,-648.62 717.38,-620.03"/>
<polygon fill="black" stroke="black" points="720.01,-617.7 710.43,-613.17 715.09,-622.69 720.01,-617.7"/>
</g>
<!-- 13&#45;&gt;2 -->
<g id="edge40" class="edge">
<title>13&#45;&gt;2</title>
<path fill="none" stroke="black" d="M669.81,-575.59C637.69,-550.4 578.15,-503.68 541.8,-475.17"/>
<polygon fill="black" stroke="black" points="544.31,-472.69 534.28,-469.27 539.99,-478.19 544.31,-472.69"/>
</g>
<!-- 13&#45;&gt;3 -->
<g id="edge42" class="edge">
<title>13&#45;&gt;3</title>
<path fill="none" stroke="black" d="M677.84,-575.54C638.51,-527.06 527.8,-390.59 481.15,-333.07"/>
<polygon fill="black" stroke="black" points="483.95,-330.97 474.93,-325.41 478.51,-335.38 483.95,-330.97"/>
</g>
<!-- 13&#45;&gt;4 -->
<g id="edge45" class="edge">
<title>13&#45;&gt;4</title>
<path fill="none" stroke="black" d="M687.76,-575.67C667.54,-493.16 582,-144 582,-144 582,-144 565.77,-84.34 555.74,-47.45"/>
<polygon fill="black" stroke="black" points="559.13,-46.57 553.12,-37.84 552.37,-48.41 559.13,-46.57"/>
</g>
<!-- 13&#45;&gt;5 -->
<g id="edge43" class="edge">
<title>13&#45;&gt;5</title>
<path fill="none" stroke="black" d="M708.79,-575.54C755.6,-526.86 887.71,-389.46 942.61,-332.37"/>
<polygon fill="black" stroke="black" points="944.97,-334.96 949.38,-325.32 939.93,-330.11 944.97,-334.96"/>
</g>
<!-- 13&#45;&gt;6 -->
<g id="edge39" class="edge">
<title>13&#45;&gt;6</title>
<path fill="none" stroke="black" d="M697.13,-575.67C721.57,-493.16 825,-144 825,-144 825,-144 949.63,-77.71 1017.37,-41.68"/>
<polygon fill="black" stroke="black" points="1018.8,-44.88 1025.99,-37.09 1015.52,-38.7 1018.8,-44.88"/>
</g>
<!-- 13&#45;&gt;7 -->
<g id="edge41" class="edge">
<title>13&#45;&gt;7</title>
<path fill="none" stroke="black" d="M699.28,-575.61C727.04,-509.28 826.44,-271.84 860.47,-190.54"/>
<polygon fill="black" stroke="black" points="863.61,-192.11 864.24,-181.53 857.15,-189.4 863.61,-192.11"/>
</g>
<!-- 13&#45;&gt;9 -->
<g id="edge44" class="edge">
<title>13&#45;&gt;9</title>
<path fill="none" stroke="black" d="M732.25,-578.6C806.05,-552.2 962.68,-496.18 1041.54,-467.98"/>
<polygon fill="black" stroke="black" points="1042.47,-471.36 1050.7,-464.7 1040.11,-464.77 1042.47,-471.36"/>
</g>
<!-- 14&#45;&gt;2 -->
<g id="edge47" class="edge">
<title>14&#45;&gt;2</title>
<path fill="none" stroke="black" d="M277.62,-575.59C326.52,-549.48 418.71,-500.27 471.4,-472.14"/>
<polygon fill="black" stroke="black" points="472.88,-475.32 480.05,-467.52 469.58,-469.14 472.88,-475.32"/>
</g>
<!-- 14&#45;&gt;3 -->
<g id="edge49" class="edge">
<title>14&#45;&gt;3</title>
<path fill="none" stroke="black" d="M258.13,-575.54C294.5,-527.16 396.74,-391.15 440.13,-333.43"/>
<polygon fill="black" stroke="black" points="442.93,-335.54 446.14,-325.44 437.33,-331.33 442.93,-335.54"/>
</g>
<!-- 14&#45;&gt;4 -->
<g id="edge51" class="edge">
<title>14&#45;&gt;4</title>
<path fill="none" stroke="black" d="M246.66,-575.67C254.56,-493.16 288,-144 288,-144 288,-144 427.73,-76.82 502.32,-40.96"/>
<polygon fill="black" stroke="black" points="503.53,-44.26 511.03,-36.77 500.5,-37.95 503.53,-44.26"/>
</g>
<!-- 14&#45;&gt;5 -->
<g id="edge50" class="edge">
<title>14&#45;&gt;5</title>
<path fill="none" stroke="black" d="M279.34,-579.4C399.85,-531.66 803.01,-371.96 929.03,-322.04"/>
<polygon fill="black" stroke="black" points="930.25,-325.32 938.26,-318.39 927.67,-318.82 930.25,-325.32"/>
</g>
<!-- 15 -->
<g id="node16" class="node">
<title>15</title>
<polygon fill="none" stroke="black" points="236,-468 182,-468 182,-432 236,-432 236,-468"/>
<text text-anchor="middle" x="209" y="-445.32" font-family="Times,serif" font-size="14.00">cli</text>
</g>
<!-- 14&#45;&gt;15 -->
<g id="edge46" class="edge">
<title>14&#45;&gt;15</title>
<path fill="none" stroke="black" d="M240.59,-575.59C234.48,-551.5 223.39,-507.75 216.11,-479.03"/>
<polygon fill="black" stroke="black" points="219.56,-478.41 213.71,-469.58 212.77,-480.13 219.56,-478.41"/>
</g>
<!-- 16 -->
<g id="node17" class="node">
<title>16</title>
<polygon fill="none" stroke="black" points="163.62,-468 28.38,-468 28.38,-432 163.62,-432 163.62,-468"/>
<text text-anchor="middle" x="96" y="-445.32" font-family="Times,serif" font-size="14.00">left&#45;right&#45;tlcache</text>
</g>
<!-- 14&#45;&gt;16 -->
<g id="edge48" class="edge">
<title>14&#45;&gt;16</title>
<path fill="none" stroke="black" d="M226.73,-575.59C200.56,-550.65 152.26,-504.62 122.26,-476.03"/>
<polygon fill="black" stroke="black" points="124.7,-473.52 115.05,-469.16 119.87,-478.59 124.7,-473.52"/>
</g>
<!-- 17&#45;&gt;4 -->
<g id="edge54" class="edge">
<title>17&#45;&gt;4</title>
<path fill="none" stroke="black" d="M1011.49,-719.61C948.24,-623.99 642.84,-162.35 565.72,-45.78"/>
<polygon fill="black" stroke="black" points="568.84,-44.16 560.4,-37.75 563,-48.02 568.84,-44.16"/>
</g>
<!-- 17&#45;&gt;5 -->
<g id="edge52" class="edge">
<title>17&#45;&gt;5</title>
<path fill="none" stroke="black" d="M1021.7,-719.73C1016.83,-655.21 1000,-432 1000,-432 1000,-432 984.25,-372.34 974.51,-335.45"/>
<polygon fill="black" stroke="black" points="977.91,-334.62 971.97,-325.84 971.14,-336.41 977.91,-334.62"/>
</g>
<!-- 17&#45;&gt;9 -->
<g id="edge53" class="edge">
<title>17&#45;&gt;9</title>
<path fill="none" stroke="black" d="M1027.03,-719.54C1038.08,-671.66 1068.93,-537.95 1082.48,-479.24"/>
<polygon fill="black" stroke="black" points="1085.84,-480.24 1084.68,-469.71 1079.02,-478.66 1085.84,-480.24"/>
</g>
<!-- 17&#45;&gt;18 -->
<g id="edge55" class="edge">
<title>17&#45;&gt;18</title>
<path fill="none" stroke="black" d="M1035.88,-719.59C1054.08,-694.97 1087.48,-649.8 1108.67,-621.14"/>
<polygon fill="black" stroke="black" points="1111.32,-623.45 1114.45,-613.33 1105.69,-619.29 1111.32,-623.45"/>
</g>
<!-- 18&#45;&gt;5 -->
<g id="edge56" class="edge">
<title>18&#45;&gt;5</title>
<path fill="none" stroke="black" d="M1128.97,-575.62C1130.9,-541.27 1135,-468 1135,-468 1135,-468 1135,-432 1135,-432 1135,-432 1048.45,-367.6 999.59,-331.25"/>
<polygon fill="black" stroke="black" points="1001.69,-328.45 991.57,-325.28 997.51,-334.06 1001.69,-328.45"/>
</g>
<!-- 19 -->
<g id="node20" class="node">
<title>19</title>
<polygon fill="none" stroke="black" points="1066.25,-1188 979.75,-1188 979.75,-1152 1066.25,-1152 1066.25,-1188"/>
<text text-anchor="middle" x="1023" y="-1165.33" font-family="Times,serif" font-size="14.00">dataplane</text>
</g>
<!-- 19&#45;&gt;0 -->
<g id="edge57" class="edge">
<title>19&#45;&gt;0</title>
<path fill="none" stroke="black" d="M981.92,-1151.59C916.35,-1123.79 788.99,-1069.81 725.65,-1042.96"/>
<polygon fill="black" stroke="black" points="727.29,-1039.85 716.72,-1039.17 724.56,-1046.3 727.29,-1039.85"/>
</g>
<!-- 19&#45;&gt;1 -->
<g id="edge61" class="edge">
<title>19&#45;&gt;1</title>
<path fill="none" stroke="black" d="M987.4,-1151.62C917.06,-1117.27 767,-1044 767,-1044 767,-1044 724.55,-956.38 702.28,-910.41"/>
<polygon fill="black" stroke="black" points="705.52,-909.07 698.01,-901.59 699.22,-912.12 705.52,-909.07"/>
</g>
<!-- 19&#45;&gt;4 -->
<g id="edge68" class="edge">
<title>19&#45;&gt;4</title>
<path fill="none" stroke="black" d="M979.37,-1156.8C784.11,-1102.21 0,-883 0,-883 0,-883 0,-883 0,-305 0,-305 281,-144 281,-144 281,-144 425.59,-76.31 501.97,-40.55"/>
<polygon fill="black" stroke="black" points="503.32,-43.78 510.9,-36.37 500.36,-37.44 503.32,-43.78"/>
</g>
<!-- 19&#45;&gt;5 -->
<g id="edge63" class="edge">
<title>19&#45;&gt;5</title>
<path fill="none" stroke="black" d="M1035.64,-1151.54C1080.58,-1089.45 1230,-883 1230,-883 1230,-883 1230,-883 1230,-737 1230,-737 1149,-432 1149,-432 1149,-432 1054.45,-367.06 1001.65,-330.8"/>
<polygon fill="black" stroke="black" points="1003.78,-328.01 993.55,-325.24 999.82,-333.78 1003.78,-328.01"/>
</g>
<!-- 19&#45;&gt;6 -->
<g id="edge58" class="edge">
<title>19&#45;&gt;6</title>
<path fill="none" stroke="black" d="M1040.28,-1151.54C1101.72,-1089.45 1306,-883 1306,-883 1306,-883 1306,-883 1306,-305 1306,-305 1142.7,-115.14 1082.2,-44.8"/>
<polygon fill="black" stroke="black" points="1085.18,-42.91 1076.01,-37.61 1079.87,-47.47 1085.18,-42.91"/>
</g>
<!-- 19&#45;&gt;8 -->
<g id="edge60" class="edge">
<title>19&#45;&gt;8</title>
<path fill="none" stroke="black" d="M1064.3,-1151.62C1145.9,-1117.27 1320,-1044 1320,-1044 1320,-1044 1382,-883 1382,-883 1382,-883 1382,-883 1382,-449 1382,-449 1382,-264.52 1382,-191.89"/>
<polygon fill="black" stroke="black" points="1385.5,-191.97 1382,-181.97 1378.5,-191.97 1385.5,-191.97"/>
</g>
<!-- 19&#45;&gt;9 -->
<g id="edge64" class="edge">
<title>19&#45;&gt;9</title>
<path fill="none" stroke="black" d="M1028.56,-1151.62C1039.55,-1117.27 1063,-1044 1063,-1044 1063,-1044 1173,-612 1173,-612 1173,-612 1173,-576 1173,-576 1173,-576 1131.51,-514.26 1106.85,-477.56"/>
<polygon fill="black" stroke="black" points="1110.01,-475.98 1101.52,-469.64 1104.2,-479.89 1110.01,-475.98"/>
</g>
<!-- 19&#45;&gt;12 -->
<g id="edge62" class="edge">
<title>19&#45;&gt;12</title>
<path fill="none" stroke="black" d="M1015.44,-1151.61C986.59,-1085.28 883.33,-847.84 847.97,-766.54"/>
<polygon fill="black" stroke="black" points="851.25,-765.3 844.06,-757.52 844.83,-768.09 851.25,-765.3"/>
</g>
<!-- 19&#45;&gt;13 -->
<g id="edge65" class="edge">
<title>19&#45;&gt;13</title>
<path fill="none" stroke="black" d="M1012.71,-1151.62C992.38,-1117.27 949,-1044 949,-1044 949,-1044 763.33,-719.62 707.62,-622.29"/>
<polygon fill="black" stroke="black" points="710.67,-620.58 702.67,-613.64 704.6,-624.06 710.67,-620.58"/>
</g>
<!-- 19&#45;&gt;14 -->
<g id="edge66" class="edge">
<title>19&#45;&gt;14</title>
<path fill="none" stroke="black" d="M979.35,-1154.29C881.28,-1121.25 652,-1044 652,-1044 652,-1044 445,-900 445,-900 445,-900 268,-756 268,-756 268,-756 255.69,-669.85 249.08,-623.59"/>
<polygon fill="black" stroke="black" points="252.55,-623.13 247.68,-613.73 245.62,-624.12 252.55,-623.13"/>
</g>
<!-- 19&#45;&gt;17 -->
<g id="edge67" class="edge">
<title>19&#45;&gt;17</title>
<path fill="none" stroke="black" d="M1023,-1151.61C1023,-1085.55 1023,-849.78 1023,-767.54"/>
<polygon fill="black" stroke="black" points="1026.5,-767.65 1023,-757.65 1019.5,-767.65 1026.5,-767.65"/>
</g>
<!-- 19&#45;&gt;18 -->
<g id="edge69" class="edge">
<title>19&#45;&gt;18</title>
<path fill="none" stroke="black" d="M1026.2,-1151.51C1041.14,-1069.81 1104.13,-725.5 1122.78,-623.55"/>
<polygon fill="black" stroke="black" points="1126.2,-624.31 1124.55,-613.84 1119.31,-623.05 1126.2,-624.31"/>
</g>
<!-- 20 -->
<g id="node21" class="node">
<title>20</title>
<polygon fill="none" stroke="black" points="1470,-1044 1416,-1044 1416,-1008 1470,-1008 1470,-1044"/>
<text text-anchor="middle" x="1443" y="-1021.33" font-family="Times,serif" font-size="14.00">dpdk</text>
</g>
<!-- 19&#45;&gt;20 -->
<g id="edge59" class="edge">
<title>19&#45;&gt;20</title>
<path fill="none" stroke="black" d="M1066.52,-1154.42C1164.91,-1121.44 1396,-1044 1396,-1044 1396,-1044 1399.64,-1042.68 1404.9,-1040.78"/>
<polygon fill="black" stroke="black" points="1406.02,-1044.1 1414.24,-1037.4 1403.64,-1037.51 1406.02,-1044.1"/>
</g>
<!-- 20&#45;&gt;5 -->
<g id="edge72" class="edge">
<title>20&#45;&gt;5</title>
<path fill="none" stroke="black" d="M1436.04,-1007.57C1396.89,-909.62 1206,-432 1206,-432 1206,-432 1071.92,-361.88 1004.61,-326.67"/>
<polygon fill="black" stroke="black" points="1006.24,-323.57 995.76,-322.04 1003,-329.78 1006.24,-323.57"/>
</g>
<!-- 21 -->
<g id="node22" class="node">
<title>21</title>
<polygon fill="none" stroke="black" points="1489.5,-900 1410.5,-900 1410.5,-864 1489.5,-864 1489.5,-900"/>
<text text-anchor="middle" x="1450" y="-877.33" font-family="Times,serif" font-size="14.00">dpdk&#45;sys</text>
</g>
<!-- 20&#45;&gt;21 -->
<g id="edge70" class="edge">
<title>20&#45;&gt;21</title>
<path fill="none" stroke="black" d="M1443.86,-1007.59C1445.04,-983.61 1447.18,-940.14 1448.6,-911.42"/>
<polygon fill="black" stroke="black" points="1452.09,-911.78 1449.08,-901.62 1445.09,-911.44 1452.09,-911.78"/>
</g>
<!-- 22 -->
<g id="node23" class="node">
<title>22</title>
<polygon fill="none" stroke="black" points="1562.5,-900 1507.5,-900 1507.5,-864 1562.5,-864 1562.5,-900"/>
<text text-anchor="middle" x="1535" y="-877.33" font-family="Times,serif" font-size="14.00">errno</text>
</g>
<!-- 20&#45;&gt;22 -->
<g id="edge71" class="edge">
<title>20&#45;&gt;22</title>
<path fill="none" stroke="black" d="M1454.28,-1007.59C1470.16,-983.08 1499.24,-938.19 1517.82,-909.52"/>
<polygon fill="black" stroke="black" points="1520.59,-911.68 1523.09,-901.38 1514.72,-907.87 1520.59,-911.68"/>
</g>
<!-- 23 -->
<g id="node24" class="node">
<title>23</title>
<polygon fill="none" stroke="black" points="1532.12,-468 1447.88,-468 1447.88,-432 1532.12,-432 1532.12,-468"/>
<text text-anchor="middle" x="1490" y="-445.32" font-family="Times,serif" font-size="14.00">hardware</text>
</g>
<!-- 23&#45;&gt;8 -->
<g id="edge73" class="edge">
<title>23&#45;&gt;8</title>
<path fill="none" stroke="black" d="M1484.01,-431.77C1469.56,-390.24 1434,-288 1434,-288 1434,-288 1408.97,-227.82 1393.64,-190.97"/>
<polygon fill="black" stroke="black" points="1396.88,-189.67 1389.81,-181.78 1390.42,-192.36 1396.88,-189.67"/>
</g>
<!-- 24 -->
<g id="node25" class="node">
<title>24</title>
<polygon fill="none" stroke="black" points="1540,-324 1486,-324 1486,-288 1540,-288 1540,-324"/>
<text text-anchor="middle" x="1513" y="-301.32" font-family="Times,serif" font-size="14.00">sysfs</text>
</g>
<!-- 23&#45;&gt;24 -->
<g id="edge74" class="edge">
<title>23&#45;&gt;24</title>
<path fill="none" stroke="black" d="M1492.82,-431.59C1496.7,-407.61 1503.74,-364.14 1508.4,-335.42"/>
<polygon fill="black" stroke="black" points="1511.84,-336.04 1509.99,-325.6 1504.93,-334.92 1511.84,-336.04"/>
</g>
<!-- 24&#45;&gt;8 -->
<g id="edge75" class="edge">
<title>24&#45;&gt;8</title>
<path fill="none" stroke="black" d="M1496.94,-287.59C1474.03,-262.76 1431.83,-217.01 1405.43,-188.4"/>
<polygon fill="black" stroke="black" points="1408.16,-186.2 1398.81,-181.22 1403.02,-190.95 1408.16,-186.2"/>
</g>
<!-- 25 -->
<g id="node26" class="node">
<title>25</title>
<polygon fill="none" stroke="black" points="1517,-612 1463,-612 1463,-576 1517,-576 1517,-612"/>
<text text-anchor="middle" x="1490" y="-589.33" font-family="Times,serif" font-size="14.00">init</text>
</g>
<!-- 25&#45;&gt;8 -->
<g id="edge77" class="edge">
<title>25&#45;&gt;8</title>
<path fill="none" stroke="black" d="M1482.91,-575.62C1468.9,-541.27 1439,-468 1439,-468 1439,-468 1401.41,-266.89 1387.28,-191.28"/>
<polygon fill="black" stroke="black" points="1390.78,-190.95 1385.51,-181.76 1383.9,-192.23 1390.78,-190.95"/>
</g>
<!-- 25&#45;&gt;23 -->
<g id="edge76" class="edge">
<title>25&#45;&gt;23</title>
<path fill="none" stroke="black" d="M1490,-575.59C1490,-551.61 1490,-508.14 1490,-479.42"/>
<polygon fill="black" stroke="black" points="1493.5,-479.62 1490,-469.62 1486.5,-479.62 1493.5,-479.62"/>
</g>
<!-- 25&#45;&gt;24 -->
<g id="edge78" class="edge">
<title>25&#45;&gt;24</title>
<path fill="none" stroke="black" d="M1497.09,-575.62C1511.1,-541.27 1541,-468 1541,-468 1541,-468 1541,-432 1541,-432 1541,-432 1527.64,-372.34 1519.37,-335.45"/>
<polygon fill="black" stroke="black" points="1522.83,-334.85 1517.22,-325.86 1515.99,-336.38 1522.83,-334.85"/>
</g>
</g>
</svg>
