<?xml version="1.0" encoding="UTF-8" standalone="no"?>
<!DOCTYPE svg PUBLIC "-//W3C//DTD SVG 1.1//EN"
 "http://www.w3.org/Graphics/SVG/1.1/DTD/svg11.dtd">
<!-- Generated by graphviz version 12.2.1 (0)
 -->
<!-- Pages: 1 -->
<svg width="1287pt" height="1052pt"
 viewBox="0.00 0.00 1287.00 1052.00" xmlns="http://www.w3.org/2000/svg" xmlns:xlink="http://www.w3.org/1999/xlink">
<g id="graph0" class="graph" transform="scale(1 1) rotate(0) translate(4 1048)">
<polygon fill="white" stroke="none" points="-4,4 -4,-1048 1283,-1048 1283,4 -4,4"/>
<!-- 0 -->
<g id="node1" class="node">
<title>0</title>
<polygon fill="none" stroke="black" points="640,-468 586,-468 586,-432 640,-432 640,-468"/>
<text text-anchor="middle" x="613" y="-445.32" font-family="Times,serif" font-size="14.00">cli</text>
</g>
<!-- 1 -->
<g id="node2" class="node">
<title>1</title>
<polygon fill="none" stroke="black" points="1251.88,-36 1148.12,-36 1148.12,0 1251.88,0 1251.88,-36"/>
<text text-anchor="middle" x="1200" y="-13.32" font-family="Times,serif" font-size="14.00">concurrency</text>
</g>
<!-- 2 -->
<g id="node3" class="node">
<title>2</title>
<polygon fill="none" stroke="black" points="830.38,-468 771.62,-468 771.62,-432 830.38,-432 830.38,-468"/>
<text text-anchor="middle" x="801" y="-445.32" font-family="Times,serif" font-size="14.00">config</text>
</g>
<!-- 3 -->
<g id="node4" class="node">
<title>3</title>
<polygon fill="none" stroke="black" points="884,-324 830,-324 830,-288 884,-288 884,-324"/>
<text text-anchor="middle" x="857" y="-301.32" font-family="Times,serif" font-size="14.00">lpm</text>
</g>
<!-- 2&#45;&gt;3 -->
<g id="edge1" class="edge">
<title>2&#45;&gt;3</title>
<path fill="none" stroke="black" d="M807.87,-431.59C817.41,-407.4 834.77,-363.36 846.09,-334.65"/>
<polygon fill="black" stroke="black" points="849.28,-336.11 849.7,-325.52 842.77,-333.54 849.28,-336.11"/>
</g>
<!-- 4 -->
<g id="node5" class="node">
<title>4</title>
<polygon fill="none" stroke="black" points="574.38,-36 503.62,-36 503.62,0 574.38,0 574.38,-36"/>
<text text-anchor="middle" x="539" y="-13.32" font-family="Times,serif" font-size="14.00">tracectl</text>
</g>
<!-- 2&#45;&gt;4 -->
<g id="edge3" class="edge">
<title>2&#45;&gt;4</title>
<path fill="none" stroke="black" d="M790.4,-431.61C749.83,-365.01 604.13,-125.89 555.17,-45.55"/>
<polygon fill="black" stroke="black" points="558.42,-44.15 550.23,-37.43 552.44,-47.79 558.42,-44.15"/>
</g>
<!-- 5 -->
<g id="node6" class="node">
<title>5</title>
<polygon fill="none" stroke="black" points="492,-324 438,-324 438,-288 492,-288 492,-324"/>
<text text-anchor="middle" x="465" y="-301.32" font-family="Times,serif" font-size="14.00">net</text>
</g>
<!-- 2&#45;&gt;5 -->
<g id="edge2" class="edge">
<title>2&#45;&gt;5</title>
<path fill="none" stroke="black" d="M771.18,-436.4C710.02,-410.55 570.47,-351.57 502.96,-323.04"/>
<polygon fill="black" stroke="black" points="504.35,-319.83 493.78,-319.16 501.63,-326.28 504.35,-319.83"/>
</g>
<!-- 3&#45;&gt;4 -->
<g id="edge4" class="edge">
<title>3&#45;&gt;4</title>
<path fill="none" stroke="black" d="M848.01,-287.77C826.34,-246.24 773,-144 773,-144 773,-144 648.9,-77.71 581.45,-41.68"/>
<polygon fill="black" stroke="black" points="583.34,-38.72 572.87,-37.09 580.04,-44.89 583.34,-38.72"/>
</g>
<!-- 5&#45;&gt;1 -->
<g id="edge5" class="edge">
<title>5&#45;&gt;1</title>
<path fill="none" stroke="black" d="M492.47,-294.31C600.53,-252.26 997.57,-97.77 1144.68,-40.52"/>
<polygon fill="black" stroke="black" points="1145.79,-43.85 1153.84,-36.96 1143.25,-37.33 1145.79,-43.85"/>
</g>
<!-- 5&#45;&gt;4 -->
<g id="edge8" class="edge">
<title>5&#45;&gt;4</title>
<path fill="none" stroke="black" d="M469.39,-287.77C479.96,-246.24 506,-144 506,-144 506,-144 521.75,-84.34 531.49,-47.45"/>
<polygon fill="black" stroke="black" points="534.86,-48.41 534.03,-37.84 528.09,-46.62 534.86,-48.41"/>
</g>
<!-- 6 -->
<g id="node7" class="node">
<title>6</title>
<polygon fill="none" stroke="black" points="1172.38,-180 1095.62,-180 1095.62,-144 1172.38,-144 1172.38,-180"/>
<text text-anchor="middle" x="1134" y="-157.32" font-family="Times,serif" font-size="14.00">flow&#45;info</text>
</g>
<!-- 5&#45;&gt;6 -->
<g id="edge6" class="edge">
<title>5&#45;&gt;6</title>
<path fill="none" stroke="black" d="M492.47,-299.17C594.49,-277.52 952.45,-201.54 1084.55,-173.5"/>
<polygon fill="black" stroke="black" points="1084.97,-176.98 1094.03,-171.48 1083.52,-170.14 1084.97,-176.98"/>
</g>
<!-- 7 -->
<g id="node8" class="node">
<title>7</title>
<polygon fill="none" stroke="black" points="211,-180 157,-180 157,-144 211,-144 211,-180"/>
<text text-anchor="middle" x="184" y="-157.32" font-family="Times,serif" font-size="14.00">id</text>
</g>
<!-- 5&#45;&gt;7 -->
<g id="edge7" class="edge">
<title>5&#45;&gt;7</title>
<path fill="none" stroke="black" d="M437.54,-291.13C386.84,-265.5 278.48,-210.74 221.22,-181.81"/>
<polygon fill="black" stroke="black" points="223.01,-178.79 212.5,-177.4 219.85,-185.04 223.01,-178.79"/>
</g>
<!-- 6&#45;&gt;1 -->
<g id="edge9" class="edge">
<title>6&#45;&gt;1</title>
<path fill="none" stroke="black" d="M1142.09,-143.59C1153.39,-119.29 1173.98,-74.97 1187.32,-46.27"/>
<polygon fill="black" stroke="black" points="1190.37,-48.03 1191.41,-37.48 1184.02,-45.08 1190.37,-48.03"/>
</g>
<!-- 6&#45;&gt;4 -->
<g id="edge10" class="edge">
<title>6&#45;&gt;4</title>
<path fill="none" stroke="black" d="M1095.39,-148.38C1087.73,-145.87 1082,-144 1082,-144 1082,-144 717.02,-59.98 585.52,-29.71"/>
<polygon fill="black" stroke="black" points="586.63,-26.37 576.1,-27.54 585.06,-33.2 586.63,-26.37"/>
</g>
<!-- 8 -->
<g id="node9" class="node">
<title>8</title>
<polygon fill="none" stroke="black" points="261.5,-468 188.5,-468 188.5,-432 261.5,-432 261.5,-468"/>
<text text-anchor="middle" x="225" y="-445.32" font-family="Times,serif" font-size="14.00">pipeline</text>
</g>
<!-- 8&#45;&gt;4 -->
<g id="edge13" class="edge">
<title>8&#45;&gt;4</title>
<path fill="none" stroke="black" d="M232.31,-431.73C259.59,-367.21 354,-144 354,-144 354,-144 450.11,-79.06 503.78,-42.8"/>
<polygon fill="black" stroke="black" points="505.7,-45.73 512.02,-37.23 501.78,-39.93 505.7,-45.73"/>
</g>
<!-- 8&#45;&gt;5 -->
<g id="edge12" class="edge">
<title>8&#45;&gt;5</title>
<path fill="none" stroke="black" d="M254.43,-431.59C298.13,-405.73 380.16,-357.2 427.91,-328.94"/>
<polygon fill="black" stroke="black" points="429.43,-332.11 436.25,-324.01 425.87,-326.09 429.43,-332.11"/>
</g>
<!-- 8&#45;&gt;7 -->
<g id="edge11" class="edge">
<title>8&#45;&gt;7</title>
<path fill="none" stroke="black" d="M212.21,-431.62C186.93,-397.27 133,-324 133,-324 133,-324 133,-288 133,-288 133,-288 157.55,-227.82 172.59,-190.97"/>
<polygon fill="black" stroke="black" points="175.8,-192.36 176.34,-181.78 169.32,-189.72 175.8,-192.36"/>
</g>
<!-- 9 -->
<g id="node10" class="node">
<title>9</title>
<polygon fill="none" stroke="black" points="485.25,-1044 398.75,-1044 398.75,-1008 485.25,-1008 485.25,-1044"/>
<text text-anchor="middle" x="442" y="-1021.33" font-family="Times,serif" font-size="14.00">dataplane</text>
</g>
<!-- 9&#45;&gt;1 -->
<g id="edge14" class="edge">
<title>9&#45;&gt;1</title>
<path fill="none" stroke="black" d="M485.66,-1017.18C638.47,-989.82 1140,-900 1140,-900 1140,-900 1279,-739 1279,-739 1279,-739 1279,-739 1279,-305 1279,-305 1227.83,-119.75 1207.85,-47.44"/>
<polygon fill="black" stroke="black" points="1211.26,-46.63 1205.23,-37.92 1204.51,-48.49 1211.26,-46.63"/>
</g>
<!-- 9&#45;&gt;4 -->
<g id="edge24" class="edge">
<title>9&#45;&gt;4</title>
<path fill="none" stroke="black" d="M407.24,-1007.62C338.55,-973.27 192,-900 192,-900 192,-900 0,-739 0,-739 0,-739 0,-739 0,-305 0,-305 139,-144 139,-144 139,-144 386.6,-66.63 492.19,-33.63"/>
<polygon fill="black" stroke="black" points="493.21,-36.98 501.71,-30.65 491.12,-30.3 493.21,-36.98"/>
</g>
<!-- 9&#45;&gt;5 -->
<g id="edge19" class="edge">
<title>9&#45;&gt;5</title>
<path fill="none" stroke="black" d="M416,-1007.62C364.62,-973.27 255,-900 255,-900 255,-900 207,-756 207,-756 207,-756 180,-468 180,-468 180,-468 180,-432 180,-432 180,-432 349.97,-357.45 427.39,-323.5"/>
<polygon fill="black" stroke="black" points="428.53,-326.82 436.29,-319.59 425.72,-320.4 428.53,-326.82"/>
</g>
<!-- 9&#45;&gt;7 -->
<g id="edge16" class="edge">
<title>9&#45;&gt;7</title>
<path fill="none" stroke="black" d="M413.91,-1007.62C358.41,-973.27 240,-900 240,-900 240,-900 38,-739 38,-739 38,-739 38,-739 38,-593 38,-593 129,-288 129,-288 129,-288 155.71,-227.3 171.9,-190.5"/>
<polygon fill="black" stroke="black" points="174.92,-192.33 175.74,-181.77 168.51,-189.51 174.92,-192.33"/>
</g>
<!-- 9&#45;&gt;8 -->
<g id="edge20" class="edge">
<title>9&#45;&gt;8</title>
<path fill="none" stroke="black" d="M418.78,-1007.62C372.89,-973.27 275,-900 275,-900 275,-900 211,-756 211,-756 211,-756 211,-720 211,-720 211,-720 219.91,-548.78 223.51,-479.55"/>
<polygon fill="black" stroke="black" points="227,-479.92 224.02,-469.75 220.01,-479.55 227,-479.92"/>
</g>
<!-- 10 -->
<g id="node11" class="node">
<title>10</title>
<polygon fill="none" stroke="black" points="1131,-900 1077,-900 1077,-864 1131,-864 1131,-900"/>
<text text-anchor="middle" x="1104" y="-877.33" font-family="Times,serif" font-size="14.00">dpdk</text>
</g>
<!-- 9&#45;&gt;10 -->
<g id="edge15" class="edge">
<title>9&#45;&gt;10</title>
<path fill="none" stroke="black" d="M485.69,-1015.63C607.6,-989.48 950.07,-916.02 1065.48,-891.26"/>
<polygon fill="black" stroke="black" points="1066.02,-894.73 1075.07,-889.21 1064.55,-887.88 1066.02,-894.73"/>
</g>
<!-- 13 -->
<g id="node14" class="node">
<title>13</title>
<polygon fill="none" stroke="black" points="611,-900 553,-900 553,-864 611,-864 611,-900"/>
<text text-anchor="middle" x="582" y="-877.33" font-family="Times,serif" font-size="14.00">mgmt</text>
</g>
<!-- 9&#45;&gt;13 -->
<g id="edge17" class="edge">
<title>9&#45;&gt;13</title>
<path fill="none" stroke="black" d="M459.17,-1007.59C483.76,-982.65 529.14,-936.62 557.32,-908.03"/>
<polygon fill="black" stroke="black" points="559.54,-910.77 564.07,-901.19 554.55,-905.85 559.54,-910.77"/>
</g>
<!-- 16 -->
<g id="node17" class="node">
<title>16</title>
<polygon fill="none" stroke="black" points="938,-756 884,-756 884,-720 938,-720 938,-756"/>
<text text-anchor="middle" x="911" y="-733.33" font-family="Times,serif" font-size="14.00">nat</text>
</g>
<!-- 9&#45;&gt;16 -->
<g id="edge18" class="edge">
<title>9&#45;&gt;16</title>
<path fill="none" stroke="black" d="M485.6,-1011.02C587.37,-978.41 832,-900 832,-900 832,-900 875,-812.38 897.55,-766.41"/>
<polygon fill="black" stroke="black" points="900.62,-768.11 901.88,-757.59 894.33,-765.02 900.62,-768.11"/>
</g>
<!-- 17 -->
<g id="node18" class="node">
<title>17</title>
<polygon fill="none" stroke="black" points="1041.88,-612 962.12,-612 962.12,-576 1041.88,-576 1041.88,-612"/>
<text text-anchor="middle" x="1002" y="-589.33" font-family="Times,serif" font-size="14.00">pkt&#45;meta</text>
</g>
<!-- 9&#45;&gt;17 -->
<g id="edge21" class="edge">
<title>9&#45;&gt;17</title>
<path fill="none" stroke="black" d="M485.42,-1011.86C591.45,-979.77 855,-900 855,-900 855,-900 967,-756 967,-756 967,-756 985.81,-669.48 995.85,-623.29"/>
<polygon fill="black" stroke="black" points="999.23,-624.22 997.93,-613.71 992.39,-622.74 999.23,-624.22"/>
</g>
<!-- 18 -->
<g id="node19" class="node">
<title>18</title>
<polygon fill="none" stroke="black" points="716.25,-612 647.75,-612 647.75,-576 716.25,-576 716.25,-612"/>
<text text-anchor="middle" x="682" y="-589.33" font-family="Times,serif" font-size="14.00">routing</text>
</g>
<!-- 9&#45;&gt;18 -->
<g id="edge22" class="edge">
<title>9&#45;&gt;18</title>
<path fill="none" stroke="black" d="M466.75,-1007.62C515.66,-973.27 620,-900 620,-900 620,-900 653,-756 653,-756 653,-756 668.58,-669.48 676.9,-623.29"/>
<polygon fill="black" stroke="black" points="680.3,-624.18 678.63,-613.72 673.41,-622.94 680.3,-624.18"/>
</g>
<!-- 19 -->
<g id="node20" class="node">
<title>19</title>
<polygon fill="none" stroke="black" points="274,-756 220,-756 220,-720 274,-720 274,-756"/>
<text text-anchor="middle" x="247" y="-733.33" font-family="Times,serif" font-size="14.00">stats</text>
</g>
<!-- 9&#45;&gt;19 -->
<g id="edge23" class="edge">
<title>9&#45;&gt;19</title>
<path fill="none" stroke="black" d="M420.59,-1007.62C378.27,-973.27 288,-900 288,-900 288,-900 265.97,-813.48 254.2,-767.29"/>
<polygon fill="black" stroke="black" points="257.62,-766.52 251.76,-757.7 250.84,-768.25 257.62,-766.52"/>
</g>
<!-- 20 -->
<g id="node21" class="node">
<title>20</title>
<polygon fill="none" stroke="black" points="365.75,-612 294.25,-612 294.25,-576 365.75,-576 365.75,-612"/>
<text text-anchor="middle" x="330" y="-589.33" font-family="Times,serif" font-size="14.00">vpcmap</text>
</g>
<!-- 9&#45;&gt;20 -->
<g id="edge25" class="edge">
<title>9&#45;&gt;20</title>
<path fill="none" stroke="black" d="M437.47,-1007.61C420.23,-941.42 358.6,-704.81 337.3,-623.04"/>
<polygon fill="black" stroke="black" points="340.75,-622.39 334.84,-613.6 333.98,-624.16 340.75,-622.39"/>
</g>
<!-- 10&#45;&gt;5 -->
<g id="edge28" class="edge">
<title>10&#45;&gt;5</title>
<path fill="none" stroke="black" d="M1101,-863.73C1089.79,-799.21 1051,-576 1051,-576 1051,-576 871,-432 871,-432 871,-432 604.26,-349.87 503.19,-318.76"/>
<polygon fill="black" stroke="black" points="504.3,-315.44 493.72,-315.84 502.24,-322.13 504.3,-315.44"/>
</g>
<!-- 11 -->
<g id="node12" class="node">
<title>11</title>
<polygon fill="none" stroke="black" points="1177.5,-756 1098.5,-756 1098.5,-720 1177.5,-720 1177.5,-756"/>
<text text-anchor="middle" x="1138" y="-733.33" font-family="Times,serif" font-size="14.00">dpdk&#45;sys</text>
</g>
<!-- 10&#45;&gt;11 -->
<g id="edge26" class="edge">
<title>10&#45;&gt;11</title>
<path fill="none" stroke="black" d="M1108.17,-863.59C1113.94,-839.5 1124.41,-795.75 1131.29,-767.03"/>
<polygon fill="black" stroke="black" points="1134.63,-768.12 1133.55,-757.58 1127.82,-766.49 1134.63,-768.12"/>
</g>
<!-- 12 -->
<g id="node13" class="node">
<title>12</title>
<polygon fill="none" stroke="black" points="1250.5,-756 1195.5,-756 1195.5,-720 1250.5,-720 1250.5,-756"/>
<text text-anchor="middle" x="1223" y="-733.33" font-family="Times,serif" font-size="14.00">errno</text>
</g>
<!-- 10&#45;&gt;12 -->
<g id="edge27" class="edge">
<title>10&#45;&gt;12</title>
<path fill="none" stroke="black" d="M1118.59,-863.59C1139.31,-838.86 1177.41,-793.41 1201.4,-764.77"/>
<polygon fill="black" stroke="black" points="1203.95,-767.18 1207.69,-757.27 1198.58,-762.69 1203.95,-767.18"/>
</g>
<!-- 13&#45;&gt;2 -->
<g id="edge29" class="edge">
<title>13&#45;&gt;2</title>
<path fill="none" stroke="black" d="M591.87,-863.62C611.38,-829.27 653,-756 653,-756 653,-756 725,-612 725,-612 725,-612 766.36,-524.38 788.06,-478.41"/>
<polygon fill="black" stroke="black" points="791.12,-480.14 792.22,-469.6 784.79,-477.15 791.12,-480.14"/>
</g>
<!-- 13&#45;&gt;3 -->
<g id="edge32" class="edge">
<title>13&#45;&gt;3</title>
<path fill="none" stroke="black" d="M594.93,-863.62C620.49,-829.27 675,-756 675,-756 675,-756 839,-468 839,-468 839,-468 848.63,-381.85 853.8,-335.59"/>
<polygon fill="black" stroke="black" points="857.27,-336.06 854.91,-325.73 850.32,-335.28 857.27,-336.06"/>
</g>
<!-- 13&#45;&gt;4 -->
<g id="edge39" class="edge">
<title>13&#45;&gt;4</title>
<path fill="none" stroke="black" d="M581.68,-863.77C580.91,-822.24 579,-720 579,-720 579,-720 546,-180 546,-180 546,-180 542.25,-93.85 540.24,-47.59"/>
<polygon fill="black" stroke="black" points="543.75,-47.58 539.81,-37.74 536.75,-47.88 543.75,-47.58"/>
</g>
<!-- 13&#45;&gt;5 -->
<g id="edge34" class="edge">
<title>13&#45;&gt;5</title>
<path fill="none" stroke="black" d="M579.97,-863.77C575.07,-822.24 563,-720 563,-720 563,-720 493.98,-429.15 471.79,-335.6"/>
<polygon fill="black" stroke="black" points="475.21,-334.88 469.5,-325.95 468.4,-336.49 475.21,-334.88"/>
</g>
<!-- 13&#45;&gt;7 -->
<g id="edge30" class="edge">
<title>13&#45;&gt;7</title>
<path fill="none" stroke="black" d="M552.58,-871.09C464.83,-841.52 211,-756 211,-756 211,-756 180,-468 180,-468 180,-468 180,-432 180,-432 180,-432 235,-324 235,-324 235,-324 235,-288 235,-288 235,-288 210.45,-227.82 195.41,-190.97"/>
<polygon fill="black" stroke="black" points="198.68,-189.72 191.66,-181.78 192.2,-192.36 198.68,-189.72"/>
</g>
<!-- 14 -->
<g id="node15" class="node">
<title>14</title>
<polygon fill="none" stroke="black" points="553.62,-756 406.38,-756 406.38,-720 553.62,-720 553.62,-756"/>
<text text-anchor="middle" x="480" y="-733.33" font-family="Times,serif" font-size="14.00">interface&#45;manager</text>
</g>
<!-- 13&#45;&gt;14 -->
<g id="edge31" class="edge">
<title>13&#45;&gt;14</title>
<path fill="none" stroke="black" d="M569.49,-863.59C551.81,-838.97 519.36,-793.8 498.78,-765.14"/>
<polygon fill="black" stroke="black" points="501.85,-763.42 493.17,-757.34 496.17,-767.5 501.85,-763.42"/>
</g>
<!-- 15 -->
<g id="node16" class="node">
<title>15</title>
<polygon fill="none" stroke="black" points="440.25,-612 383.75,-612 383.75,-576 440.25,-576 440.25,-612"/>
<text text-anchor="middle" x="412" y="-589.33" font-family="Times,serif" font-size="14.00">rekon</text>
</g>
<!-- 13&#45;&gt;15 -->
<g id="edge36" class="edge">
<title>13&#45;&gt;15</title>
<path fill="none" stroke="black" d="M556.28,-863.62C505.44,-829.27 397,-756 397,-756 397,-756 397,-720 397,-720 397,-720 404.16,-660.34 408.59,-623.45"/>
<polygon fill="black" stroke="black" points="412.02,-624.23 409.73,-613.88 405.07,-623.4 412.02,-624.23"/>
</g>
<!-- 13&#45;&gt;16 -->
<g id="edge33" class="edge">
<title>13&#45;&gt;16</title>
<path fill="none" stroke="black" d="M611.49,-868.27C671.4,-842.42 807.27,-783.77 873.42,-755.22"/>
<polygon fill="black" stroke="black" points="874.61,-758.52 882.4,-751.34 871.83,-752.09 874.61,-758.52"/>
</g>
<!-- 13&#45;&gt;17 -->
<g id="edge35" class="edge">
<title>13&#45;&gt;17</title>
<path fill="none" stroke="black" d="M611.25,-870.98C697.87,-841.32 947,-756 947,-756 947,-756 976.68,-669.11 992.44,-623"/>
<polygon fill="black" stroke="black" points="995.7,-624.26 995.62,-613.66 989.08,-621.99 995.7,-624.26"/>
</g>
<!-- 13&#45;&gt;18 -->
<g id="edge37" class="edge">
<title>13&#45;&gt;18</title>
<path fill="none" stroke="black" d="M589.23,-863.62C603.52,-829.27 634,-756 634,-756 634,-756 659.9,-669.11 673.65,-623"/>
<polygon fill="black" stroke="black" points="676.93,-624.26 676.43,-613.68 670.22,-622.26 676.93,-624.26"/>
</g>
<!-- 13&#45;&gt;19 -->
<g id="edge38" class="edge">
<title>13&#45;&gt;19</title>
<path fill="none" stroke="black" d="M552.56,-868.52C491.77,-842.75 352.38,-783.67 284.93,-755.08"/>
<polygon fill="black" stroke="black" points="286.33,-751.87 275.76,-751.19 283.6,-758.32 286.33,-751.87"/>
</g>
<!-- 13&#45;&gt;20 -->
<g id="edge40" class="edge">
<title>13&#45;&gt;20</title>
<path fill="none" stroke="black" d="M555.72,-863.62C503.79,-829.27 393,-756 393,-756 393,-756 358.86,-668.75 340.84,-622.71"/>
<polygon fill="black" stroke="black" points="344.2,-621.68 337.29,-613.64 337.68,-624.23 344.2,-621.68"/>
</g>
<!-- 14&#45;&gt;4 -->
<g id="edge43" class="edge">
<title>14&#45;&gt;4</title>
<path fill="none" stroke="black" d="M477.84,-719.52C468.13,-640.91 429,-324 429,-324 429,-324 429,-288 429,-288 429,-288 499.59,-115.36 527.68,-46.69"/>
<polygon fill="black" stroke="black" points="530.83,-48.22 531.38,-37.64 524.35,-45.57 530.83,-48.22"/>
</g>
<!-- 14&#45;&gt;5 -->
<g id="edge41" class="edge">
<title>14&#45;&gt;5</title>
<path fill="none" stroke="black" d="M480.28,-719.62C480.83,-685.27 482,-612 482,-612 482,-612 482,-576 482,-576 482,-576 468,-468 468,-468 468,-468 466.39,-381.85 465.53,-335.59"/>
<polygon fill="black" stroke="black" points="469.04,-335.68 465.35,-325.74 462.04,-335.81 469.04,-335.68"/>
</g>
<!-- 14&#45;&gt;15 -->
<g id="edge42" class="edge">
<title>14&#45;&gt;15</title>
<path fill="none" stroke="black" d="M471.66,-719.59C460.03,-695.29 438.8,-650.97 425.06,-622.27"/>
<polygon fill="black" stroke="black" points="428.32,-620.98 420.85,-613.48 422.01,-624.01 428.32,-620.98"/>
</g>
<!-- 16&#45;&gt;1 -->
<g id="edge44" class="edge">
<title>16&#45;&gt;1</title>
<path fill="none" stroke="black" d="M933.53,-719.62C978.04,-685.27 1073,-612 1073,-612 1073,-612 1238,-451 1238,-451 1238,-451 1238,-451 1238,-305 1238,-305 1213.39,-119.75 1203.78,-47.44"/>
<polygon fill="black" stroke="black" points="1207.31,-47.41 1202.52,-37.96 1200.37,-48.33 1207.31,-47.41"/>
</g>
<!-- 16&#45;&gt;2 -->
<g id="edge45" class="edge">
<title>16&#45;&gt;2</title>
<path fill="none" stroke="black" d="M904.28,-719.54C885.83,-671.56 834.23,-537.39 811.72,-478.88"/>
<polygon fill="black" stroke="black" points="815.03,-477.72 808.17,-469.64 808.49,-480.23 815.03,-477.72"/>
</g>
<!-- 16&#45;&gt;3 -->
<g id="edge47" class="edge">
<title>16&#45;&gt;3</title>
<path fill="none" stroke="black" d="M908.82,-719.61C900.52,-653.55 870.91,-417.78 860.58,-335.54"/>
<polygon fill="black" stroke="black" points="864.06,-335.12 859.34,-325.64 857.11,-335.99 864.06,-335.12"/>
</g>
<!-- 16&#45;&gt;4 -->
<g id="edge51" class="edge">
<title>16&#45;&gt;4</title>
<path fill="none" stroke="black" d="M910.57,-719.77C909.54,-678.24 907,-576 907,-576 907,-576 893,-288 893,-288 893,-288 796,-144 796,-144 796,-144 658.58,-77.16 584.72,-41.23"/>
<polygon fill="black" stroke="black" points="586.62,-38.27 576.1,-37.04 583.56,-44.56 586.62,-38.27"/>
</g>
<!-- 16&#45;&gt;5 -->
<g id="edge48" class="edge">
<title>16&#45;&gt;5</title>
<path fill="none" stroke="black" d="M897.18,-719.73C845.57,-655.21 667,-432 667,-432 667,-432 560.11,-365.85 501.84,-329.8"/>
<polygon fill="black" stroke="black" points="503.87,-326.94 493.53,-324.65 500.19,-332.89 503.87,-326.94"/>
</g>
<!-- 16&#45;&gt;6 -->
<g id="edge46" class="edge">
<title>16&#45;&gt;6</title>
<path fill="none" stroke="black" d="M930.47,-719.62C968.93,-685.27 1051,-612 1051,-612 1051,-612 1116,-468 1116,-468 1116,-468 1132,-324 1132,-324 1132,-324 1133.07,-237.85 1133.64,-191.59"/>
<polygon fill="black" stroke="black" points="1137.14,-191.79 1133.77,-181.74 1130.14,-191.7 1137.14,-191.79"/>
</g>
<!-- 16&#45;&gt;8 -->
<g id="edge49" class="edge">
<title>16&#45;&gt;8</title>
<path fill="none" stroke="black" d="M883.68,-725.61C779.34,-682.11 405.11,-526.09 272.23,-470.69"/>
<polygon fill="black" stroke="black" points="273.58,-467.46 263,-466.84 270.88,-473.92 273.58,-467.46"/>
</g>
<!-- 16&#45;&gt;17 -->
<g id="edge50" class="edge">
<title>16&#45;&gt;17</title>
<path fill="none" stroke="black" d="M922.16,-719.59C937.87,-695.08 966.63,-650.19 985.01,-621.52"/>
<polygon fill="black" stroke="black" points="987.77,-623.69 990.22,-613.39 981.88,-619.92 987.77,-623.69"/>
</g>
<!-- 17&#45;&gt;1 -->
<g id="edge52" class="edge">
<title>17&#45;&gt;1</title>
<path fill="none" stroke="black" d="M1017.85,-575.62C1049.18,-541.27 1116,-468 1116,-468 1116,-468 1181,-180 1181,-180 1181,-180 1191.17,-93.85 1196.63,-47.59"/>
<polygon fill="black" stroke="black" points="1200.09,-48.07 1197.79,-37.73 1193.14,-47.25 1200.09,-48.07"/>
</g>
<!-- 17&#45;&gt;2 -->
<g id="edge53" class="edge">
<title>17&#45;&gt;2</title>
<path fill="none" stroke="black" d="M977.35,-575.59C941.54,-550.29 875.01,-503.29 834.69,-474.8"/>
<polygon fill="black" stroke="black" points="836.96,-472.12 826.77,-469.21 832.92,-477.83 836.96,-472.12"/>
</g>
<!-- 17&#45;&gt;3 -->
<g id="edge55" class="edge">
<title>17&#45;&gt;3</title>
<path fill="none" stroke="black" d="M996.22,-575.77C982.29,-534.24 948,-432 948,-432 948,-432 903.05,-370.26 876.33,-333.56"/>
<polygon fill="black" stroke="black" points="879.26,-331.63 870.54,-325.6 873.6,-335.75 879.26,-331.63"/>
</g>
<!-- 17&#45;&gt;4 -->
<g id="edge58" class="edge">
<title>17&#45;&gt;4</title>
<path fill="none" stroke="black" d="M1005.06,-575.62C1011.1,-541.27 1024,-468 1024,-468 1024,-468 1024,-144 1024,-144 1024,-144 707.42,-62.41 585.81,-31.06"/>
<polygon fill="black" stroke="black" points="586.69,-27.68 576.13,-28.57 584.94,-34.45 586.69,-27.68"/>
</g>
<!-- 17&#45;&gt;5 -->
<g id="edge56" class="edge">
<title>17&#45;&gt;5</title>
<path fill="none" stroke="black" d="M984.56,-575.77C942.51,-534.24 839,-432 839,-432 839,-432 598.23,-351.53 503.06,-319.72"/>
<polygon fill="black" stroke="black" points="504.23,-316.42 493.63,-316.57 502.01,-323.06 504.23,-316.42"/>
</g>
<!-- 17&#45;&gt;6 -->
<g id="edge54" class="edge">
<title>17&#45;&gt;6</title>
<path fill="none" stroke="black" d="M1015.63,-575.62C1042.55,-541.27 1100,-468 1100,-468 1100,-468 1122.42,-266.89 1130.85,-191.28"/>
<polygon fill="black" stroke="black" points="1134.28,-192.1 1131.91,-181.78 1127.32,-191.33 1134.28,-192.1"/>
</g>
<!-- 17&#45;&gt;8 -->
<g id="edge57" class="edge">
<title>17&#45;&gt;8</title>
<path fill="none" stroke="black" d="M961.86,-585.66C830.68,-561.69 414.92,-485.71 273.01,-459.77"/>
<polygon fill="black" stroke="black" points="273.66,-456.33 263.19,-457.98 272.4,-463.22 273.66,-456.33"/>
</g>
<!-- 18&#45;&gt;0 -->
<g id="edge59" class="edge">
<title>18&#45;&gt;0</title>
<path fill="none" stroke="black" d="M673.54,-575.59C661.73,-551.29 640.2,-506.97 626.25,-478.27"/>
<polygon fill="black" stroke="black" points="629.49,-476.94 621.98,-469.47 623.2,-480 629.49,-476.94"/>
</g>
<!-- 18&#45;&gt;2 -->
<g id="edge60" class="edge">
<title>18&#45;&gt;2</title>
<path fill="none" stroke="black" d="M696.59,-575.59C717.31,-550.86 755.41,-505.41 779.4,-476.77"/>
<polygon fill="black" stroke="black" points="781.95,-479.18 785.69,-469.27 776.58,-474.69 781.95,-479.18"/>
</g>
<!-- 18&#45;&gt;3 -->
<g id="edge61" class="edge">
<title>18&#45;&gt;3</title>
<path fill="none" stroke="black" d="M690.67,-575.77C711.56,-534.24 763,-432 763,-432 763,-432 809.43,-370.26 837.03,-333.56"/>
<polygon fill="black" stroke="black" points="839.81,-335.69 843.02,-325.59 834.21,-331.48 839.81,-335.69"/>
</g>
<!-- 18&#45;&gt;4 -->
<g id="edge63" class="edge">
<title>18&#45;&gt;4</title>
<path fill="none" stroke="black" d="M667.4,-575.62C638.55,-541.27 577,-468 577,-468 577,-468 549.82,-146.9 541.44,-47.78"/>
<polygon fill="black" stroke="black" points="544.92,-47.5 540.59,-37.83 537.95,-48.09 544.92,-47.5"/>
</g>
<!-- 18&#45;&gt;5 -->
<g id="edge62" class="edge">
<title>18&#45;&gt;5</title>
<path fill="none" stroke="black" d="M678.47,-575.77C669.96,-534.24 649,-432 649,-432 649,-432 553.41,-367.06 500.03,-330.8"/>
<polygon fill="black" stroke="black" points="502.07,-327.96 491.84,-325.23 498.14,-333.75 502.07,-327.96"/>
</g>
<!-- 19&#45;&gt;4 -->
<g id="edge66" class="edge">
<title>19&#45;&gt;4</title>
<path fill="none" stroke="black" d="M242.01,-719.52C219.55,-640.91 129,-324 129,-324 129,-324 129,-288 129,-288 129,-288 148,-144 148,-144 148,-144 388.87,-67 492.5,-33.87"/>
<polygon fill="black" stroke="black" points="493.36,-37.26 501.82,-30.89 491.23,-30.6 493.36,-37.26"/>
</g>
<!-- 19&#45;&gt;5 -->
<g id="edge64" class="edge">
<title>19&#45;&gt;5</title>
<path fill="none" stroke="black" d="M251.07,-719.77C260.87,-678.24 285,-576 285,-576 285,-576 401.95,-401.22 447.32,-333.43"/>
<polygon fill="black" stroke="black" points="449.97,-335.75 452.62,-325.49 444.15,-331.86 449.97,-335.75"/>
</g>
<!-- 19&#45;&gt;8 -->
<g id="edge65" class="edge">
<title>19&#45;&gt;8</title>
<path fill="none" stroke="black" d="M245.66,-719.54C241.98,-671.76 231.73,-538.51 227.2,-479.61"/>
<polygon fill="black" stroke="black" points="230.7,-479.44 226.44,-469.74 223.72,-479.98 230.7,-479.44"/>
</g>
<!-- 19&#45;&gt;20 -->
<g id="edge67" class="edge">
<title>19&#45;&gt;20</title>
<path fill="none" stroke="black" d="M257.18,-719.59C271.44,-695.18 297.51,-650.58 314.28,-621.89"/>
<polygon fill="black" stroke="black" points="317.21,-623.82 319.23,-613.42 311.17,-620.28 317.21,-623.82"/>
</g>
<!-- 20&#45;&gt;5 -->
<g id="edge68" class="edge">
<title>20&#45;&gt;5</title>
<path fill="none" stroke="black" d="M338.24,-575.54C360.94,-527.46 424.49,-392.83 452.01,-334.51"/>
<polygon fill="black" stroke="black" points="455.12,-336.14 456.22,-325.6 448.79,-333.15 455.12,-336.14"/>
</g>
<!-- 21 -->
<g id="node22" class="node">
<title>21</title>
<polygon fill="none" stroke="black" points="226.12,-324 141.88,-324 141.88,-288 226.12,-288 226.12,-324"/>
<text text-anchor="middle" x="184" y="-301.32" font-family="Times,serif" font-size="14.00">hardware</text>
</g>
<!-- 21&#45;&gt;7 -->
<g id="edge69" class="edge">
<title>21&#45;&gt;7</title>
<path fill="none" stroke="black" d="M184,-287.59C184,-263.61 184,-220.14 184,-191.42"/>
<polygon fill="black" stroke="black" points="187.5,-191.62 184,-181.62 180.5,-191.62 187.5,-191.62"/>
</g>
</g>
</svg>
