<svg xmlns="http://www.w3.org/2000/svg" xmlns:xlink="http://www.w3.org/1999/xlink" contentStyleType="text/css" height="1594px" preserveAspectRatio="none" style="width:1068px;height:1594px;background:#FFFFFF;" version="1.1" viewBox="0 0 1068 1594" width="1068px" zoomAndPan="magnify"><defs/><g><rect fill="none" height="120.412" style="stroke:#000000;stroke-width:1.5;" width="179.9634" x="444.1818" y="11.602"/><path d="M614.1452,11.602 L614.1452,23.6699 L604.1452,33.6699 L444.1818,33.6699 " fill="none" style="stroke:#000000;stroke-width:1.5;"/><text fill="#000000" font-family="sans-serif" font-size="14" lengthAdjust="spacing" textLength="159.9634" x="447.1818" y="27.5679">Group 0: Shared Ingress</text><ellipse cx="534.1635" cy="53.6699" fill="#222222" rx="10" ry="10" style="stroke:#222222;stroke-width:1.0;"/><rect fill="#ADD8E6" height="36.3441" rx="12.5" ry="12.5" style="stroke:#181818;stroke-width:0.5;" width="93.7285" x="487.2992" y="83.6699"/><text fill="#000000" font-family="sans-serif" font-size="12" lengthAdjust="spacing" textLength="73.7285" x="497.2992" y="106.498">goto group 1</text><rect fill="none" height="278.1003" style="stroke:#000000;stroke-width:1.5;" width="429.9464" x="319.1903" y="142.014"/><path d="M431.2359,142.014 L431.2359,154.0819 L421.2359,164.0819 L319.1903,164.0819 " fill="none" style="stroke:#000000;stroke-width:1.5;"/><text fill="#000000" font-family="sans-serif" font-size="14" lengthAdjust="spacing" textLength="102.0456" x="322.1903" y="157.9799">Group 1: Decap</text><polygon fill="#F1F1F1" points="519.6876,181.0819,548.6394,181.0819,560.6394,193.0819,548.6394,205.0819,519.6876,205.0819,507.6876,193.0819,519.6876,181.0819" style="stroke:#181818;stroke-width:0.5;"/><text fill="#000000" font-family="sans-serif" font-size="11" lengthAdjust="spacing" textLength="28.9518" x="519.6876" y="197.3499">parse</text><rect fill="#FFD700" height="36.3441" rx="12.5" ry="12.5" style="stroke:#181818;stroke-width:0.5;" width="257.9617" x="329.1903" y="225.0819"/><text fill="#000000" font-family="sans-serif" font-size="12" lengthAdjust="spacing" textLength="237.9617" x="339.1903" y="247.91">eth / vlan 2 / ipv4 / udp dst == 4789 / vxlan</text><rect fill="#ADD8E6" height="36.3441" rx="12.5" ry="12.5" style="stroke:#181818;stroke-width:0.5;" width="125.2527" x="395.5447" y="281.426"/><text fill="#000000" font-family="sans-serif" font-size="12" lengthAdjust="spacing" textLength="105.2527" x="405.5447" y="304.2541">set metadata f(vni)</text><rect fill="#ADD8E6" height="36.3441" rx="12.5" ry="12.5" style="stroke:#181818;stroke-width:0.5;" width="216.9933" x="349.6744" y="337.7702"/><text fill="#000000" font-family="sans-serif" font-size="12" lengthAdjust="spacing" textLength="196.9933" x="359.6744" y="360.5982">pop vlan + vxlan decap (raw decap)</text><rect fill="#FFD700" height="36.3441" rx="12.5" ry="12.5" style="stroke:#181818;stroke-width:0.5;" width="107.9966" x="619.146" y="225.0819"/><text fill="#000000" font-family="sans-serif" font-size="12" lengthAdjust="spacing" textLength="87.9966" x="629.146" y="247.91">eth / vlan N != 2</text><rect fill="#ADD8E6" height="36.3441" rx="12.5" ry="12.5" style="stroke:#181818;stroke-width:0.5;" width="131.9848" x="607.1519" y="281.426"/><text fill="#000000" font-family="sans-serif" font-size="12" lengthAdjust="spacing" textLength="111.9848" x="617.1519" y="304.2541">set metadata f(vlan)</text><rect fill="#ADD8E6" height="36.3441" rx="12.5" ry="12.5" style="stroke:#181818;stroke-width:0.5;" width="68.4803" x="638.9041" y="337.7702"/><text fill="#000000" font-family="sans-serif" font-size="12" lengthAdjust="spacing" textLength="48.4803" x="648.9041" y="360.5982">pop vlan</text><polygon fill="#F1F1F1" points="534.1635,384.1143,534.1635,384.1143,546.1635,396.1143,534.1635,408.1143,534.1635,408.1143,522.1635,396.1143,534.1635,384.1143" style="stroke:#181818;stroke-width:0.5;"/><rect fill="none" height="724.0747" style="stroke:#000000;stroke-width:1.5;" width="1046.327" x="11" y="430.1143"/><path d="M109.1156,430.1143 L109.1156,442.1822 L99.1156,452.1822 L11,452.1822 " fill="none" style="stroke:#000000;stroke-width:1.5;"/><text fill="#000000" font-family="sans-serif" font-size="14" lengthAdjust="spacing" textLength="88.1156" x="14" y="446.0802">Group 2: NAT</text><polygon fill="#F1F1F1" points="519.6876,469.1822,548.6394,469.1822,560.6394,481.1822,548.6394,493.1822,519.6876,493.1822,507.6876,481.1822,519.6876,469.1822" style="stroke:#181818;stroke-width:0.5;"/><text fill="#000000" font-family="sans-serif" font-size="11" lengthAdjust="spacing" textLength="28.9518" x="519.6876" y="485.4502">parse</text><rect fill="#FFD700" height="36.3441" rx="12.5" ry="12.5" style="stroke:#181818;stroke-width:0.5;" width="145.4489" x="291.7246" y="513.1822"/><text fill="#000000" font-family="sans-serif" font-size="12" lengthAdjust="spacing" textLength="125.4489" x="301.7246" y="536.0103">eth/ip/(tcp|udp|icmp)</text><polygon fill="#F1F1F1" points="343.0432,569.5263,385.8549,569.5263,397.8549,581.5263,385.8549,593.5263,343.0432,593.5263,331.0432,581.5263,343.0432,569.5263" style="stroke:#181818;stroke-width:0.5;"/><text fill="#000000" font-family="sans-serif" font-size="11" lengthAdjust="spacing" textLength="42.8117" x="343.0432" y="585.7943">and ct is</text><rect fill="#FFD700" height="36.3441" rx="12.5" ry="12.5" style="stroke:#181818;stroke-width:0.5;" width="43.6162" x="203.1363" y="613.5263"/><text fill="#000000" font-family="sans-serif" font-size="12" lengthAdjust="spacing" textLength="23.6162" x="213.1363" y="636.3544">new</text><rect fill="#90EE90" height="36.3441" rx="12.5" ry="12.5" style="stroke:#181818;stroke-width:0.5;" width="163.221" x="143.3339" y="684.8704"/><text fill="#000000" font-family="sans-serif" font-size="12" lengthAdjust="spacing" textLength="143.221" x="153.3339" y="707.6985">count (per ingress meta?)</text><rect fill="#90EE90" height="36.3441" rx="12.5" ry="12.5" style="stroke:#181818;stroke-width:0.5;" width="186.9932" x="131.4478" y="756.2145"/><text fill="#000000" font-family="sans-serif" font-size="12" lengthAdjust="spacing" textLength="166.9932" x="141.4478" y="779.0426">rate limit? (per ingress meta?)</text><path d="M21,827.5586 L21,961.5008 A0,0 0 0 0 21,961.5008 L145.7921,961.5008 A0,0 0 0 0 145.7921,961.5008 L145.7921,898.5297 L165.7921,894.5297 L145.7921,890.5297 L145.7921,837.5586 L135.7921,827.5586 L21,827.5586 A0,0 0 0 0 21,827.5586 " fill="#FEFFDD" style="stroke:#181818;stroke-width:0.5;"/><path d="M135.7921,827.5586 L135.7921,837.5586 L145.7921,837.5586 L135.7921,827.5586 " fill="#FEFFDD" style="stroke:#181818;stroke-width:0.5;"/><text fill="#000000" font-family="sans-serif" font-size="13" lengthAdjust="spacing" textLength="100.7111" x="27" y="846.4557">We have already</text><text fill="#000000" font-family="sans-serif" font-size="13" lengthAdjust="spacing" textLength="95.9141" x="27" y="864.1617">stripped tags at</text><text fill="#000000" font-family="sans-serif" font-size="13" lengthAdjust="spacing" textLength="96.0311" x="27" y="881.8677">this point so we</text><text fill="#000000" font-family="sans-serif" font-size="13" lengthAdjust="spacing" textLength="103.7921" x="27" y="899.5737">need to re-encap</text><text fill="#000000" font-family="sans-serif" font-size="13" lengthAdjust="spacing" textLength="90.7531" x="27" y="917.2797">if we are going</text><text fill="#000000" font-family="sans-serif" font-size="13" lengthAdjust="spacing" textLength="80.6651" x="27" y="934.9857">to trap to the</text><text fill="#000000" font-family="sans-serif" font-size="13" lengthAdjust="spacing" textLength="38.363" x="27" y="952.6918">kernel</text><rect fill="#ADD8E6" height="36.3441" rx="12.5" ry="12.5" style="stroke:#181818;stroke-width:0.5;" width="118.3047" x="165.7921" y="876.3576"/><text fill="#000000" font-family="sans-serif" font-size="12" lengthAdjust="spacing" textLength="98.3047" x="175.7921" y="899.1857">raw encap (vxlan)</text><rect fill="#ADD8E6" height="36.3441" rx="12.5" ry="12.5" style="stroke:#181818;stroke-width:0.5;" width="143.6729" x="153.108" y="981.5008"/><text fill="#000000" font-family="sans-serif" font-size="12" lengthAdjust="spacing" textLength="123.6729" x="163.108" y="1004.3289">set vni based on meta</text><rect fill="#ADD8E6" height="36.3441" rx="12.5" ry="12.5" style="stroke:#181818;stroke-width:0.5;" width="96.6446" x="176.6221" y="1037.8449"/><text fill="#000000" font-family="sans-serif" font-size="12" lengthAdjust="spacing" textLength="76.6446" x="186.6221" y="1060.673">trap to kernel</text><rect fill="#FFD700" height="36.3441" rx="12.5" ry="12.5" style="stroke:#181818;stroke-width:0.5;" width="137.3488" x="468.8148" y="613.5263"/><text fill="#000000" font-family="sans-serif" font-size="12" lengthAdjust="spacing" textLength="117.3488" x="478.8148" y="636.3544">established | related</text><rect fill="#90EE90" height="36.3441" rx="12.5" ry="12.5" style="stroke:#181818;stroke-width:0.5;" width="163.221" x="455.8787" y="684.8704"/><text fill="#000000" font-family="sans-serif" font-size="12" lengthAdjust="spacing" textLength="143.221" x="465.8787" y="707.6985">count (per ingress meta?)</text><rect fill="#90EE90" height="36.3441" rx="12.5" ry="12.5" style="stroke:#181818;stroke-width:0.5;" width="186.9932" x="443.9926" y="756.2145"/><text fill="#000000" font-family="sans-serif" font-size="12" lengthAdjust="spacing" textLength="166.9932" x="453.9926" y="779.0426">rate limit? (per ingress meta?)</text><path d="M338.441,827.5586 L338.441,908.3827 A0,0 0 0 0 338.441,908.3827 L495.7592,908.3827 A0,0 0 0 0 495.7592,908.3827 L495.7592,871.9707 L515.7592,867.9707 L495.7592,863.9707 L495.7592,837.5586 L485.7592,827.5586 L338.441,827.5586 A0,0 0 0 0 338.441,827.5586 " fill="#FFC0CB" style="stroke:#181818;stroke-width:0.5;"/><path d="M485.7592,827.5586 L485.7592,837.5586 L495.7592,837.5586 L485.7592,827.5586 " fill="#FFC0CB" style="stroke:#181818;stroke-width:0.5;"/><text fill="#000000" font-family="sans-serif" font-size="13" lengthAdjust="spacing" textLength="63.4271" x="344.441" y="846.4557">HOT PATH</text><text fill="#000000" font-family="sans-serif" font-size="13" lengthAdjust="spacing" textLength="136.3181" x="344.441" y="864.1617">This action is the main</text><text fill="#000000" font-family="sans-serif" font-size="13" lengthAdjust="spacing" textLength="136.2401" x="344.441" y="881.8677">workload of the whole</text><text fill="#000000" font-family="sans-serif" font-size="13" lengthAdjust="spacing" textLength="57.5251" x="344.441" y="899.5737">program.</text><rect fill="#ADD8E6" height="36.3441" rx="12.5" ry="12.5" style="stroke:#181818;stroke-width:0.5;" width="43.4602" x="515.7592" y="849.7986"/><text fill="#000000" font-family="sans-serif" font-size="12" lengthAdjust="spacing" textLength="23.4602" x="525.7592" y="872.6267">NAT</text><rect fill="#FFD700" height="36.3441" rx="12.5" ry="12.5" style="stroke:#181818;stroke-width:0.5;" width="56.9122" x="650.9859" y="613.5263"/><text fill="#000000" font-family="sans-serif" font-size="12" lengthAdjust="spacing" textLength="36.9122" x="660.9859" y="636.3544">invalid</text><rect fill="#ADD8E6" height="36.3441" rx="12.5" ry="12.5" style="stroke:#181818;stroke-width:0.5;" width="52.1842" x="653.3499" y="684.8704"/><text fill="#000000" font-family="sans-serif" font-size="12" lengthAdjust="spacing" textLength="32.1842" x="663.3499" y="707.6985">count</text><rect fill="#ADD8E6" height="36.3441" rx="12.5" ry="12.5" style="stroke:#181818;stroke-width:0.5;" width="46.9762" x="655.9539" y="756.2145"/><text fill="#000000" font-family="sans-serif" font-size="12" lengthAdjust="spacing" textLength="26.9762" x="665.9539" y="779.0426">drop</text><polygon fill="#F1F1F1" points="364.4491,1084.189,364.4491,1084.189,376.4491,1096.189,364.4491,1108.189,364.4491,1108.189,352.4491,1096.189,364.4491,1084.189" style="stroke:#181818;stroke-width:0.5;"/><rect fill="#FFD700" height="36.3441" rx="12.5" ry="12.5" style="stroke:#181818;stroke-width:0.5;" width="162.093" x="727.8981" y="513.1822"/><text fill="#000000" font-family="sans-serif" font-size="12" lengthAdjust="spacing" textLength="142.093" x="737.8981" y="536.0103">eth/(arp|ipv6/icmpv6 nd)</text><path d="M865.9328,569.5263 L865.9328,588.2323 L845.9328,592.2323 L865.9328,596.2323 L865.9328,614.9383 A0,0 0 0 0 865.9328,614.9383 L1047.327,614.9383 A0,0 0 0 0 1047.327,614.9383 L1047.327,579.5263 L1037.327,569.5263 L865.9328,569.5263 A0,0 0 0 0 865.9328,569.5263 " fill="#FFC0CB" style="stroke:#181818;stroke-width:0.5;"/><path d="M1037.327,569.5263 L1037.327,579.5263 L1047.327,579.5263 L1037.327,569.5263 " fill="#FFC0CB" style="stroke:#181818;stroke-width:0.5;"/><text fill="#000000" font-family="sans-serif" font-size="13" lengthAdjust="spacing" textLength="160.3942" x="871.9328" y="588.4233">This is the most important</text><text fill="#000000" font-family="sans-serif" font-size="13" lengthAdjust="spacing" textLength="109.8891" x="871.9328" y="606.1293">thing to rate limit.</text><rect fill="#90EE90" height="36.3441" rx="12.5" ry="12.5" style="stroke:#181818;stroke-width:0.5;" width="73.9764" x="771.9564" y="574.0603"/><text fill="#000000" font-family="sans-serif" font-size="12" lengthAdjust="spacing" textLength="53.9764" x="781.9564" y="596.8884">rate limit!</text><rect fill="#ADD8E6" height="36.3441" rx="12.5" ry="12.5" style="stroke:#181818;stroke-width:0.5;" width="118.3047" x="749.7923" y="649.9383"/><text fill="#000000" font-family="sans-serif" font-size="12" lengthAdjust="spacing" textLength="98.3047" x="759.7923" y="672.7664">raw encap (vxlan)</text><rect fill="#ADD8E6" height="36.3441" rx="12.5" ry="12.5" style="stroke:#181818;stroke-width:0.5;" width="143.6729" x="737.1081" y="721.2825"/><text fill="#000000" font-family="sans-serif" font-size="12" lengthAdjust="spacing" textLength="123.6729" x="747.1081" y="744.1105">set vni based on meta</text><rect fill="#ADD8E6" height="36.3441" rx="12.5" ry="12.5" style="stroke:#181818;stroke-width:0.5;" width="96.6446" x="760.6223" y="792.6266"/><text fill="#000000" font-family="sans-serif" font-size="12" lengthAdjust="spacing" textLength="76.6446" x="770.6223" y="815.4547">trap to kernel</text><polygon fill="#F1F1F1" points="534.1635,1118.189,534.1635,1118.189,546.1635,1130.189,534.1635,1142.189,534.1635,1142.189,522.1635,1130.189,534.1635,1118.189" style="stroke:#181818;stroke-width:0.5;"/><rect fill="none" height="334.4444" style="stroke:#000000;stroke-width:1.5;" width="338.3858" x="364.9706" y="1164.189"/><path d="M523.286,1164.189 L523.286,1176.2569 L513.286,1186.2569 L364.9706,1186.2569 " fill="none" style="stroke:#000000;stroke-width:1.5;"/><text fill="#000000" font-family="sans-serif" font-size="14" lengthAdjust="spacing" textLength="148.3154" x="367.9706" y="1180.1549">Group 3: Re-tag/encap</text><polygon fill="#F1F1F1" points="490.0868,1203.2569,578.2402,1203.2569,590.2402,1215.2569,578.2402,1227.2569,490.0868,1227.2569,478.0868,1215.2569,490.0868,1203.2569" style="stroke:#181818;stroke-width:0.5;"/><text fill="#000000" font-family="sans-serif" font-size="11" lengthAdjust="spacing" textLength="88.1534" x="490.0868" y="1219.5249">metadata lookup</text><rect fill="#FFD700" height="36.3441" rx="12.5" ry="12.5" style="stroke:#181818;stroke-width:0.5;" width="85.1004" x="409.7948" y="1247.2569"/><text fill="#000000" font-family="sans-serif" font-size="12" lengthAdjust="spacing" textLength="65.1004" x="419.7948" y="1270.085">vlan+vxlan?</text><rect fill="#ADD8E6" height="36.3441" rx="12.5" ry="12.5" style="stroke:#181818;stroke-width:0.5;" width="154.7489" x="374.9706" y="1303.601"/><text fill="#000000" font-family="sans-serif" font-size="12" lengthAdjust="spacing" textLength="134.7489" x="384.9706" y="1326.4291">raw encap (vlan + vxlan)</text><rect fill="#ADD8E6" height="36.3441" rx="12.5" ry="12.5" style="stroke:#181818;stroke-width:0.5;" width="143.6729" x="380.5086" y="1359.9451"/><text fill="#000000" font-family="sans-serif" font-size="12" lengthAdjust="spacing" textLength="123.6729" x="390.5086" y="1382.7732">set vni based on meta</text><rect fill="#90EE90" height="36.3441" rx="12.5" ry="12.5" style="stroke:#181818;stroke-width:0.5;" width="52.1842" x="426.2529" y="1416.2893"/><text fill="#000000" font-family="sans-serif" font-size="12" lengthAdjust="spacing" textLength="32.1842" x="436.2529" y="1439.1173">count</text><rect fill="#FFD700" height="36.3441" rx="12.5" ry="12.5" style="stroke:#181818;stroke-width:0.5;" width="79.6284" x="581.7237" y="1247.2569"/><text fill="#000000" font-family="sans-serif" font-size="12" lengthAdjust="spacing" textLength="59.6284" x="591.7237" y="1270.085">push vlan?</text><rect fill="#ADD8E6" height="36.3441" rx="12.5" ry="12.5" style="stroke:#181818;stroke-width:0.5;" width="74.4204" x="584.3278" y="1303.601"/><text fill="#000000" font-family="sans-serif" font-size="12" lengthAdjust="spacing" textLength="54.4204" x="594.3278" y="1326.4291">push vlan</text><rect fill="#ADD8E6" height="36.3441" rx="12.5" ry="12.5" style="stroke:#181818;stroke-width:0.5;" width="143.6369" x="549.7195" y="1359.9451"/><text fill="#000000" font-family="sans-serif" font-size="12" lengthAdjust="spacing" textLength="123.6369" x="559.7195" y="1382.7732">set vid based on meta</text><rect fill="#90EE90" height="36.3441" rx="12.5" ry="12.5" style="stroke:#181818;stroke-width:0.5;" width="52.1842" x="595.4458" y="1416.2893"/><text fill="#000000" font-family="sans-serif" font-size="12" lengthAdjust="spacing" textLength="32.1842" x="605.4458" y="1439.1173">count</text><polygon fill="#F1F1F1" points="534.1635,1462.6334,534.1635,1462.6334,546.1635,1474.6334,534.1635,1486.6334,534.1635,1486.6334,522.1635,1474.6334,534.1635,1462.6334" style="stroke:#181818;stroke-width:0.5;"/><rect fill="none" height="73.0679" style="stroke:#000000;stroke-width:1.5;" width="124.2296" x="472.0487" y="1510.2353"/><path d="M586.2783,1510.2353 L586.2783,1522.3033 L576.2783,1532.3033 L472.0487,1532.3033 " fill="none" style="stroke:#000000;stroke-width:1.5;"/><text fill="#000000" font-family="sans-serif" font-size="14" lengthAdjust="spacing" textLength="104.2296" x="475.0487" y="1526.2013">Group 4: Egress</text><ellipse cx="534.1635" cy="1560.3033" fill="none" rx="11" ry="11" style="stroke:#222222;stroke-width:1.0;"/><ellipse cx="534.1635" cy="1560.3033" fill="#222222" rx="6" ry="6" style="stroke:#222222;stroke-width:1.0;"/><line style="stroke:#181818;stroke-width:1.0;" x1="534.1635" x2="534.1635" y1="63.6699" y2="83.6699"/><polygon fill="#181818" points="530.1635,73.6699,534.1635,83.6699,538.1635,73.6699,534.1635,77.6699" style="stroke:#181818;stroke-width:1.0;"/><line style="stroke:#181818;stroke-width:1.0;" x1="458.1711" x2="458.1711" y1="261.426" y2="281.426"/><polygon fill="#181818" points="454.1711,271.426,458.1711,281.426,462.1711,271.426,458.1711,275.426" style="stroke:#181818;stroke-width:1.0;"/><line style="stroke:#181818;stroke-width:1.0;" x1="458.1711" x2="458.1711" y1="317.7702" y2="337.7702"/><polygon fill="#181818" points="454.1711,327.7702,458.1711,337.7702,462.1711,327.7702,458.1711,331.7702" style="stroke:#181818;stroke-width:1.0;"/><line style="stroke:#181818;stroke-width:1.0;" x1="673.1443" x2="673.1443" y1="261.426" y2="281.426"/><polygon fill="#181818" points="669.1443,271.426,673.1443,281.426,677.1443,271.426,673.1443,275.426" style="stroke:#181818;stroke-width:1.0;"/><line style="stroke:#181818;stroke-width:1.0;" x1="673.1443" x2="673.1443" y1="317.7702" y2="337.7702"/><polygon fill="#181818" points="669.1443,327.7702,673.1443,337.7702,677.1443,327.7702,673.1443,331.7702" style="stroke:#181818;stroke-width:1.0;"/><line style="stroke:#181818;stroke-width:1.0;" x1="507.6876" x2="458.1711" y1="193.0819" y2="193.0819"/><line style="stroke:#181818;stroke-width:1.0;" x1="458.1711" x2="458.1711" y1="193.0819" y2="225.0819"/><polygon fill="#181818" points="454.1711,215.0819,458.1711,225.0819,462.1711,215.0819,458.1711,219.0819" style="stroke:#181818;stroke-width:1.0;"/><line style="stroke:#181818;stroke-width:1.0;" x1="560.6394" x2="673.1443" y1="193.0819" y2="193.0819"/><line style="stroke:#181818;stroke-width:1.0;" x1="673.1443" x2="673.1443" y1="193.0819" y2="225.0819"/><polygon fill="#181818" points="669.1443,215.0819,673.1443,225.0819,677.1443,215.0819,673.1443,219.0819" style="stroke:#181818;stroke-width:1.0;"/><line style="stroke:#181818;stroke-width:1.0;" x1="458.1711" x2="458.1711" y1="374.1143" y2="396.1143"/><line style="stroke:#181818;stroke-width:1.0;" x1="458.1711" x2="522.1635" y1="396.1143" y2="396.1143"/><polygon fill="#181818" points="512.1635,392.1143,522.1635,396.1143,512.1635,400.1143,516.1635,396.1143" style="stroke:#181818;stroke-width:1.0;"/><line style="stroke:#181818;stroke-width:1.0;" x1="673.1443" x2="673.1443" y1="374.1143" y2="396.1143"/><line style="stroke:#181818;stroke-width:1.0;" x1="673.1443" x2="546.1635" y1="396.1143" y2="396.1143"/><polygon fill="#181818" points="556.1635,392.1143,546.1635,396.1143,556.1635,400.1143,552.1635,396.1143" style="stroke:#181818;stroke-width:1.0;"/><line style="stroke:#181818;stroke-width:1.0;" x1="534.1635" x2="534.1635" y1="120.014" y2="181.0819"/><polygon fill="#181818" points="530.1635,171.0819,534.1635,181.0819,538.1635,171.0819,534.1635,175.0819" style="stroke:#181818;stroke-width:1.0;"/><line style="stroke:#181818;stroke-width:1.0;" x1="224.9444" x2="224.9444" y1="649.8704" y2="684.8704"/><polygon fill="#181818" points="220.9444,674.8704,224.9444,684.8704,228.9444,674.8704,224.9444,678.8704" style="stroke:#181818;stroke-width:1.0;"/><line style="stroke:#181818;stroke-width:1.0;" x1="224.9444" x2="224.9444" y1="721.2145" y2="756.2145"/><polygon fill="#181818" points="220.9444,746.2145,224.9444,756.2145,228.9444,746.2145,224.9444,750.2145" style="stroke:#181818;stroke-width:1.0;"/><line style="stroke:#181818;stroke-width:1.0;" x1="224.9444" x2="224.9444" y1="792.5586" y2="876.3576"/><polygon fill="#181818" points="220.9444,866.3576,224.9444,876.3576,228.9444,866.3576,224.9444,870.3576" style="stroke:#181818;stroke-width:1.0;"/><line style="stroke:#181818;stroke-width:1.0;" x1="224.9444" x2="224.9444" y1="912.7018" y2="981.5008"/><polygon fill="#181818" points="220.9444,971.5008,224.9444,981.5008,228.9444,971.5008,224.9444,975.5008" style="stroke:#181818;stroke-width:1.0;"/><line style="stroke:#181818;stroke-width:1.0;" x1="224.9444" x2="224.9444" y1="1017.8449" y2="1037.8449"/><polygon fill="#181818" points="220.9444,1027.8449,224.9444,1037.8449,228.9444,1027.8449,224.9444,1031.8449" style="stroke:#181818;stroke-width:1.0;"/><line style="stroke:#181818;stroke-width:1.0;" x1="537.4893" x2="537.4893" y1="649.8704" y2="684.8704"/><polygon fill="#181818" points="533.4893,674.8704,537.4893,684.8704,541.4893,674.8704,537.4893,678.8704" style="stroke:#181818;stroke-width:1.0;"/><line style="stroke:#181818;stroke-width:1.0;" x1="537.4893" x2="537.4893" y1="721.2145" y2="756.2145"/><polygon fill="#181818" points="533.4893,746.2145,537.4893,756.2145,541.4893,746.2145,537.4893,750.2145" style="stroke:#181818;stroke-width:1.0;"/><line style="stroke:#181818;stroke-width:1.0;" x1="537.4893" x2="537.4893" y1="792.5586" y2="849.7986"/><polygon fill="#181818" points="533.4893,839.7986,537.4893,849.7986,541.4893,839.7986,537.4893,843.7986" style="stroke:#181818;stroke-width:1.0;"/><line style="stroke:#181818;stroke-width:1.0;" x1="679.442" x2="679.442" y1="649.8704" y2="684.8704"/><polygon fill="#181818" points="675.442,674.8704,679.442,684.8704,683.442,674.8704,679.442,678.8704" style="stroke:#181818;stroke-width:1.0;"/><line style="stroke:#181818;stroke-width:1.0;" x1="679.442" x2="679.442" y1="721.2145" y2="756.2145"/><polygon fill="#181818" points="675.442,746.2145,679.442,756.2145,683.442,746.2145,679.442,750.2145" style="stroke:#181818;stroke-width:1.0;"/><line style="stroke:#181818;stroke-width:1.0;" x1="331.0432" x2="224.9444" y1="581.5263" y2="581.5263"/><line style="stroke:#181818;stroke-width:1.0;" x1="224.9444" x2="224.9444" y1="581.5263" y2="613.5263"/><polygon fill="#181818" points="220.9444,603.5263,224.9444,613.5263,228.9444,603.5263,224.9444,607.5263" style="stroke:#181818;stroke-width:1.0;"/><line style="stroke:#181818;stroke-width:1.0;" x1="397.8549" x2="679.442" y1="581.5263" y2="581.5263"/><line style="stroke:#181818;stroke-width:1.0;" x1="679.442" x2="679.442" y1="581.5263" y2="613.5263"/><polygon fill="#181818" points="675.442,603.5263,679.442,613.5263,683.442,603.5263,679.442,607.5263" style="stroke:#181818;stroke-width:1.0;"/><line style="stroke:#181818;stroke-width:1.0;" x1="537.4893" x2="537.4893" y1="581.5263" y2="613.5263"/><polygon fill="#181818" points="533.4893,603.5263,537.4893,613.5263,541.4893,603.5263,537.4893,607.5263" style="stroke:#181818;stroke-width:1.0;"/><line style="stroke:#181818;stroke-width:1.0;" x1="537.4893" x2="537.4893" y1="886.1427" y2="1096.189"/><line style="stroke:#181818;stroke-width:1.0;" x1="537.4893" x2="376.4491" y1="1096.189" y2="1096.189"/><polygon fill="#181818" points="386.4491,1092.189,376.4491,1096.189,386.4491,1100.189,382.4491,1096.189" style="stroke:#181818;stroke-width:1.0;"/><line style="stroke:#181818;stroke-width:1.0;" x1="537.4893" x2="537.4893" y1="886.1427" y2="1096.189"/><line style="stroke:#181818;stroke-width:1.0;" x1="537.4893" x2="376.4491" y1="1096.189" y2="1096.189"/><polygon fill="#181818" points="386.4491,1092.189,376.4491,1096.189,386.4491,1100.189,382.4491,1096.189" style="stroke:#181818;stroke-width:1.0;"/><line style="stroke:#181818;stroke-width:1.0;" x1="364.4491" x2="364.4491" y1="549.5263" y2="569.5263"/><polygon fill="#181818" points="360.4491,559.5263,364.4491,569.5263,368.4491,559.5263,364.4491,563.5263" style="stroke:#181818;stroke-width:1.0;"/><line style="stroke:#181818;stroke-width:1.0;" x1="808.9446" x2="808.9446" y1="549.5263" y2="574.0603"/><polygon fill="#181818" points="804.9446,564.0603,808.9446,574.0603,812.9446,564.0603,808.9446,568.0603" style="stroke:#181818;stroke-width:1.0;"/><line style="stroke:#181818;stroke-width:1.0;" x1="808.9446" x2="808.9446" y1="610.4044" y2="649.9383"/><polygon fill="#181818" points="804.9446,639.9383,808.9446,649.9383,812.9446,639.9383,808.9446,643.9383" style="stroke:#181818;stroke-width:1.0;"/><line style="stroke:#181818;stroke-width:1.0;" x1="808.9446" x2="808.9446" y1="686.2825" y2="721.2825"/><polygon fill="#181818" points="804.9446,711.2825,808.9446,721.2825,812.9446,711.2825,808.9446,715.2825" style="stroke:#181818;stroke-width:1.0;"/><line style="stroke:#181818;stroke-width:1.0;" x1="808.9446" x2="808.9446" y1="757.6266" y2="792.6266"/><polygon fill="#181818" points="804.9446,782.6266,808.9446,792.6266,812.9446,782.6266,808.9446,786.6266" style="stroke:#181818;stroke-width:1.0;"/><line style="stroke:#181818;stroke-width:1.0;" x1="507.6876" x2="364.4491" y1="481.1822" y2="481.1822"/><line style="stroke:#181818;stroke-width:1.0;" x1="364.4491" x2="364.4491" y1="481.1822" y2="513.1822"/><polygon fill="#181818" points="360.4491,503.1822,364.4491,513.1822,368.4491,503.1822,364.4491,507.1822" style="stroke:#181818;stroke-width:1.0;"/><line style="stroke:#181818;stroke-width:1.0;" x1="560.6394" x2="808.9446" y1="481.1822" y2="481.1822"/><line style="stroke:#181818;stroke-width:1.0;" x1="808.9446" x2="808.9446" y1="481.1822" y2="513.1822"/><polygon fill="#181818" points="804.9446,503.1822,808.9446,513.1822,812.9446,503.1822,808.9446,507.1822" style="stroke:#181818;stroke-width:1.0;"/><line style="stroke:#181818;stroke-width:1.0;" x1="364.4491" x2="364.4491" y1="1108.189" y2="1130.189"/><line style="stroke:#181818;stroke-width:1.0;" x1="364.4491" x2="522.1635" y1="1130.189" y2="1130.189"/><polygon fill="#181818" points="512.1635,1126.189,522.1635,1130.189,512.1635,1134.189,516.1635,1130.189" style="stroke:#181818;stroke-width:1.0;"/><line style="stroke:#181818;stroke-width:1.0;" x1="534.1635" x2="534.1635" y1="408.1143" y2="469.1822"/><polygon fill="#181818" points="530.1635,459.1822,534.1635,469.1822,538.1635,459.1822,534.1635,463.1822" style="stroke:#181818;stroke-width:1.0;"/><line style="stroke:#181818;stroke-width:1.0;" x1="452.345" x2="452.345" y1="1283.601" y2="1303.601"/><polygon fill="#181818" points="448.345,1293.601,452.345,1303.601,456.345,1293.601,452.345,1297.601" style="stroke:#181818;stroke-width:1.0;"/><line style="stroke:#181818;stroke-width:1.0;" x1="452.345" x2="452.345" y1="1339.9451" y2="1359.9451"/><polygon fill="#181818" points="448.345,1349.9451,452.345,1359.9451,456.345,1349.9451,452.345,1353.9451" style="stroke:#181818;stroke-width:1.0;"/><line style="stroke:#181818;stroke-width:1.0;" x1="452.345" x2="452.345" y1="1396.2893" y2="1416.2893"/><polygon fill="#181818" points="448.345,1406.2893,452.345,1416.2893,456.345,1406.2893,452.345,1410.2893" style="stroke:#181818;stroke-width:1.0;"/><line style="stroke:#181818;stroke-width:1.0;" x1="621.5379" x2="621.5379" y1="1283.601" y2="1303.601"/><polygon fill="#181818" points="617.5379,1293.601,621.5379,1303.601,625.5379,1293.601,621.5379,1297.601" style="stroke:#181818;stroke-width:1.0;"/><line style="stroke:#181818;stroke-width:1.0;" x1="621.5379" x2="621.5379" y1="1339.9451" y2="1359.9451"/><polygon fill="#181818" points="617.5379,1349.9451,621.5379,1359.9451,625.5379,1349.9451,621.5379,1353.9451" style="stroke:#181818;stroke-width:1.0;"/><line style="stroke:#181818;stroke-width:1.0;" x1="621.5379" x2="621.5379" y1="1396.2893" y2="1416.2893"/><polygon fill="#181818" points="617.5379,1406.2893,621.5379,1416.2893,625.5379,1406.2893,621.5379,1410.2893" style="stroke:#181818;stroke-width:1.0;"/><line style="stroke:#181818;stroke-width:1.0;" x1="478.0868" x2="452.345" y1="1215.2569" y2="1215.2569"/><line style="stroke:#181818;stroke-width:1.0;" x1="452.345" x2="452.345" y1="1215.2569" y2="1247.2569"/><polygon fill="#181818" points="448.345,1237.2569,452.345,1247.2569,456.345,1237.2569,452.345,1241.2569" style="stroke:#181818;stroke-width:1.0;"/><line style="stroke:#181818;stroke-width:1.0;" x1="590.2402" x2="621.5379" y1="1215.2569" y2="1215.2569"/><line style="stroke:#181818;stroke-width:1.0;" x1="621.5379" x2="621.5379" y1="1215.2569" y2="1247.2569"/><polygon fill="#181818" points="617.5379,1237.2569,621.5379,1247.2569,625.5379,1237.2569,621.5379,1241.2569" style="stroke:#181818;stroke-width:1.0;"/><line style="stroke:#181818;stroke-width:1.0;" x1="452.345" x2="452.345" y1="1452.6334" y2="1474.6334"/><line style="stroke:#181818;stroke-width:1.0;" x1="452.345" x2="522.1635" y1="1474.6334" y2="1474.6334"/><polygon fill="#181818" points="512.1635,1470.6334,522.1635,1474.6334,512.1635,1478.6334,516.1635,1474.6334" style="stroke:#181818;stroke-width:1.0;"/><line style="stroke:#181818;stroke-width:1.0;" x1="621.5379" x2="621.5379" y1="1452.6334" y2="1474.6334"/><line style="stroke:#181818;stroke-width:1.0;" x1="621.5379" x2="546.1635" y1="1474.6334" y2="1474.6334"/><polygon fill="#181818" points="556.1635,1470.6334,546.1635,1474.6334,556.1635,1478.6334,552.1635,1474.6334" style="stroke:#181818;stroke-width:1.0;"/><line style="stroke:#181818;stroke-width:1.0;" x1="534.1635" x2="534.1635" y1="1142.189" y2="1203.2569"/><polygon fill="#181818" points="530.1635,1193.2569,534.1635,1203.2569,538.1635,1193.2569,534.1635,1197.2569" style="stroke:#181818;stroke-width:1.0;"/><line style="stroke:#181818;stroke-width:1.0;" x1="534.1635" x2="534.1635" y1="1486.6334" y2="1549.3033"/><polygon fill="#181818" points="530.1635,1539.3033,534.1635,1549.3033,538.1635,1539.3033,534.1635,1543.3033" style="stroke:#181818;stroke-width:1.0;"/></g></svg>