<svg xmlns="http://www.w3.org/2000/svg" xmlns:xlink="http://www.w3.org/1999/xlink" contentStyleType="text/css" height="838px" preserveAspectRatio="none" style="width:1118px;height:838px;background:#FFFFFF;" version="1.1" viewBox="0 0 1118 838" width="1118px" zoomAndPan="magnify"><defs/><g><!--cluster host--><g id="cluster_host"><rect fill="none" height="700.21" rx="2.5" ry="2.5" style="stroke:#181818;stroke-width:1.0;" width="1105" x="7" y="132.266"/><text fill="#000000" font-family="sans-serif" font-size="14" font-weight="bold" lengthAdjust="spacing" textLength="30.8979" x="544.0511" y="149.2319">host</text></g><!--cluster dpdk_netns--><g id="cluster_dpdk_netns"><rect fill="none" height="163.06" rx="2.5" ry="2.5" style="stroke:#181818;stroke-width:1.0;" width="406" x="489" y="178.266"/><text fill="#000000" font-family="sans-serif" font-size="14" font-weight="bold" lengthAdjust="spacing" textLength="80.7237" x="651.6381" y="195.2319">dpdk_netns</text></g><!--cluster eswitch--><g id="cluster_eswitch"><rect fill="none" height="93.06" rx="2.5" ry="2.5" style="stroke:#181818;stroke-width:1.0;" width="299" x="513" y="224.266"/><text fill="#000000" font-family="sans-serif" font-size="14" font-weight="bold" lengthAdjust="spacing" textLength="53.9558" x="635.5221" y="241.2319">eswitch</text></g><!--cluster bridge--><g id="cluster_bridge"><rect fill="none" height="109.07" rx="2.5" ry="2.5" style="stroke:#181818;stroke-width:1.0;" width="826" x="39" y="461.836"/><text fill="#000000" font-family="sans-serif" font-size="14" font-weight="bold" lengthAdjust="spacing" textLength="45.4858" x="429.2571" y="478.8019">bridge</text></g><!--cluster netns A--><g id="cluster_netns A"><rect fill="none" height="192.14" rx="2.5" ry="2.5" style="stroke:#181818;stroke-width:1.0;" width="199" x="109" y="616.336"/><text fill="#000000" font-family="sans-serif" font-size="14" font-weight="bold" lengthAdjust="spacing" textLength="53.0038" x="181.9981" y="633.3019">netns A</text></g><!--cluster netns B--><g id="cluster_netns B"><rect fill="none" height="192.14" rx="2.5" ry="2.5" style="stroke:#181818;stroke-width:1.0;" width="199" x="332" y="616.336"/><text fill="#000000" font-family="sans-serif" font-size="14" font-weight="bold" lengthAdjust="spacing" textLength="52.7518" x="405.1241" y="633.3019">netns B</text></g><!--cluster netns C--><g id="cluster_netns C"><rect fill="none" height="192.14" rx="2.5" ry="2.5" style="stroke:#181818;stroke-width:1.0;" width="300" x="555" y="616.336"/><text fill="#000000" font-family="sans-serif" font-size="14" font-weight="bold" lengthAdjust="spacing" textLength="52.2618" x="678.8691" y="633.3019">netns C</text></g><!--entity veth.kernel--><g id="elem_veth.kernel"><rect fill="#F1F1F1" height="39.0679" rx="2.5" ry="2.5" style="stroke:#181818;stroke-width:0.5;" width="48.7139" x="830.64" y="361.326"/><text fill="#000000" font-family="sans-serif" font-size="14" lengthAdjust="spacing" textLength="28.7139" x="840.64" y="386.2919">veth</text></g><g id="elem_GMN19"><path d="M892.26,460.396 L892.26,594.3381 L1095.7412,594.3381 L1095.7412,470.396 L1085.7412,460.396 L892.26,460.396 " fill="#FEFFDD" style="stroke:#181818;stroke-width:0.5;"/><path d="M1085.7412,460.396 L1085.7412,470.396 L1095.7412,470.396 L1085.7412,460.396 " fill="#FEFFDD" style="stroke:#181818;stroke-width:1.0;"/><text fill="#000000" font-family="sans-serif" font-size="13" lengthAdjust="spacing" textLength="129.4671" x="898.26" y="479.293">I only draw one here,</text><text fill="#000000" font-family="sans-serif" font-size="13" lengthAdjust="spacing" textLength="171.5741" x="898.26" y="496.999">but we can have more vteps</text><text fill="#000000" font-family="sans-serif" font-size="13" lengthAdjust="spacing" textLength="146.0941" x="898.26" y="514.705">and more bridges using</text><text fill="#000000" font-family="sans-serif" font-size="13" lengthAdjust="spacing" textLength="20.059" x="898.26" y="532.4111">the</text><text fill="#000000" font-family="sans-serif" font-size="13" font-weight="bold" lengthAdjust="spacing" textLength="54.782" x="921.699" y="532.4111">external</text><text fill="#000000" font-family="sans-serif" font-size="13" lengthAdjust="spacing" textLength="30.186" x="976.4811" y="532.4111">, and</text><text fill="#000000" font-family="sans-serif" font-size="13" font-weight="bold" lengthAdjust="spacing" textLength="52.091" x="1010.0471" y="532.4111">vnifilter</text><text fill="#000000" font-family="sans-serif" font-size="13" lengthAdjust="spacing" textLength="182.4812" x="898.26" y="550.1171">flags when you make bridges.</text><text fill="#000000" font-family="sans-serif" font-size="13" lengthAdjust="spacing" textLength="3.38" x="898.26" y="567.8231">&#160;</text><text fill="#000000" font-family="sans-serif" font-size="13" lengthAdjust="spacing" textLength="154.9732" x="898.26" y="585.5291">Recent FRR supports this.</text></g><!--entity veth.dpdk--><g id="elem_veth.dpdk"><rect fill="#F1F1F1" height="39.0679" rx="2.5" ry="2.5" style="stroke:#181818;stroke-width:0.5;" width="48.7139" x="830.64" y="262.266"/><text fill="#000000" font-family="sans-serif" font-size="14" lengthAdjust="spacing" textLength="28.7139" x="840.64" y="287.2319">veth</text></g><!--entity phys_port1--><g id="elem_phys_port1"><rect fill="#FFA500" height="39.0679" rx="2.5" ry="2.5" style="stroke:#181818;stroke-width:0.5;" width="116.1096" x="528.95" y="262.266"/><text fill="#000000" font-family="sans-serif" font-size="14" lengthAdjust="spacing" textLength="96.1096" x="538.95" y="287.2319">physical port 1</text></g><!--entity phys_port2--><g id="elem_phys_port2"><rect fill="#FFA500" height="39.0679" rx="2.5" ry="2.5" style="stroke:#181818;stroke-width:0.5;" width="116.1096" x="679.95" y="262.266"/><text fill="#000000" font-family="sans-serif" font-size="14" lengthAdjust="spacing" textLength="96.1096" x="689.95" y="287.2319">physical port 2</text></g><!--entity vtep--><g id="elem_vtep"><rect fill="#90EE90" height="39.0679" rx="2.5" ry="2.5" style="stroke:#181818;stroke-width:0.5;" width="48.6719" x="62.66" y="507.836"/><text fill="#000000" font-family="sans-serif" font-size="14" lengthAdjust="spacing" textLength="28.6719" x="72.66" y="532.8019">vtep</text></g><!--entity veth_0_br--><g id="elem_veth_0_br"><rect fill="#C962A9" height="39.0679" rx="2.5" ry="2.5" style="stroke:#181818;stroke-width:0.5;" width="65.9338" x="146.03" y="507.836"/><text fill="#000000" font-family="sans-serif" font-size="14" lengthAdjust="spacing" textLength="45.9338" x="156.03" y="532.8019">veth[0]</text></g><!--entity veth_1_br--><g id="elem_veth_1_br"><rect fill="#C962A9" height="39.0679" rx="2.5" ry="2.5" style="stroke:#181818;stroke-width:0.5;" width="65.9338" x="247.03" y="507.836"/><text fill="#000000" font-family="sans-serif" font-size="14" lengthAdjust="spacing" textLength="45.9338" x="257.03" y="532.8019">veth[1]</text></g><!--entity veth_2_br--><g id="elem_veth_2_br"><rect fill="#C962A9" height="39.0679" rx="2.5" ry="2.5" style="stroke:#181818;stroke-width:0.5;" width="65.9338" x="348.03" y="507.836"/><text fill="#000000" font-family="sans-serif" font-size="14" lengthAdjust="spacing" textLength="45.9338" x="358.03" y="532.8019">veth[2]</text></g><!--entity veth_3_br--><g id="elem_veth_3_br"><rect fill="#C962A9" height="39.0679" rx="2.5" ry="2.5" style="stroke:#181818;stroke-width:0.5;" width="65.9338" x="449.03" y="507.836"/><text fill="#000000" font-family="sans-serif" font-size="14" lengthAdjust="spacing" textLength="45.9338" x="459.03" y="532.8019">veth[3]</text></g><!--entity veth_4_br--><g id="elem_veth_4_br"><rect fill="#C962A9" height="39.0679" rx="2.5" ry="2.5" style="stroke:#181818;stroke-width:0.5;" width="65.9338" x="550.03" y="507.836"/><text fill="#000000" font-family="sans-serif" font-size="14" lengthAdjust="spacing" textLength="45.9338" x="560.03" y="532.8019">veth[4]</text></g><!--entity veth_5_br--><g id="elem_veth_5_br"><rect fill="#C962A9" height="39.0679" rx="2.5" ry="2.5" style="stroke:#181818;stroke-width:0.5;" width="65.9338" x="651.03" y="507.836"/><text fill="#000000" font-family="sans-serif" font-size="14" lengthAdjust="spacing" textLength="45.9338" x="661.03" y="532.8019">veth[5]</text></g><!--entity veth_6_br--><g id="elem_veth_6_br"><rect fill="#C962A9" height="39.0679" rx="2.5" ry="2.5" style="stroke:#181818;stroke-width:0.5;" width="65.9338" x="752.03" y="507.836"/><text fill="#000000" font-family="sans-serif" font-size="14" lengthAdjust="spacing" textLength="45.9338" x="762.03" y="532.8019">veth[6]</text></g><!--entity veth_0--><g id="elem_veth_0"><rect fill="#C962A9" height="39.0679" rx="2.5" ry="2.5" style="stroke:#181818;stroke-width:0.5;" width="65.9338" x="125.03" y="654.336"/><text fill="#000000" font-family="sans-serif" font-size="14" lengthAdjust="spacing" textLength="45.9338" x="135.03" y="679.3019">veth[0]</text></g><!--entity veth_1--><g id="elem_veth_1"><rect fill="#C962A9" height="39.0679" rx="2.5" ry="2.5" style="stroke:#181818;stroke-width:0.5;" width="65.9338" x="226.03" y="654.336"/><text fill="#000000" font-family="sans-serif" font-size="14" lengthAdjust="spacing" textLength="45.9338" x="236.03" y="679.3019">veth[1]</text></g><!--entity some_process--><g id="elem_some_process"><rect fill="#F1F1F1" height="39.0679" rx="2.5" ry="2.5" style="stroke:#181818;stroke-width:0.5;" width="110.6917" x="152.65" y="753.406"/><text fill="#000000" font-family="sans-serif" font-size="14" lengthAdjust="spacing" textLength="90.6917" x="162.65" y="778.3719">some process</text></g><!--entity veth_2--><g id="elem_veth_2"><rect fill="#C962A9" height="39.0679" rx="2.5" ry="2.5" style="stroke:#181818;stroke-width:0.5;" width="65.9338" x="348.03" y="654.336"/><text fill="#000000" font-family="sans-serif" font-size="14" lengthAdjust="spacing" textLength="45.9338" x="358.03" y="679.3019">veth[2]</text></g><!--entity veth_3--><g id="elem_veth_3"><rect fill="#C962A9" height="39.0679" rx="2.5" ry="2.5" style="stroke:#181818;stroke-width:0.5;" width="65.9338" x="449.03" y="654.336"/><text fill="#000000" font-family="sans-serif" font-size="14" lengthAdjust="spacing" textLength="45.9338" x="459.03" y="679.3019">veth[3]</text></g><!--entity some_other_process--><g id="elem_some_other_process"><rect fill="#F1F1F1" height="39.0679" rx="2.5" ry="2.5" style="stroke:#181818;stroke-width:0.5;" width="150.1855" x="355.91" y="753.406"/><text fill="#000000" font-family="sans-serif" font-size="14" lengthAdjust="spacing" textLength="130.1855" x="365.91" y="778.3719">some other process</text></g><!--entity veth_4--><g id="elem_veth_4"><rect fill="#C962A9" height="39.0679" rx="2.5" ry="2.5" style="stroke:#181818;stroke-width:0.5;" width="65.9338" x="571.03" y="654.336"/><text fill="#000000" font-family="sans-serif" font-size="14" lengthAdjust="spacing" textLength="45.9338" x="581.03" y="679.3019">veth[4]</text></g><!--entity veth_5--><g id="elem_veth_5"><rect fill="#C962A9" height="39.0679" rx="2.5" ry="2.5" style="stroke:#181818;stroke-width:0.5;" width="65.9338" x="672.03" y="654.336"/><text fill="#000000" font-family="sans-serif" font-size="14" lengthAdjust="spacing" textLength="45.9338" x="682.03" y="679.3019">veth[5]</text></g><!--entity veth_6--><g id="elem_veth_6"><rect fill="#C962A9" height="39.0679" rx="2.5" ry="2.5" style="stroke:#181818;stroke-width:0.5;" width="65.9338" x="773.03" y="654.336"/><text fill="#000000" font-family="sans-serif" font-size="14" lengthAdjust="spacing" textLength="45.9338" x="783.03" y="679.3019">veth[6]</text></g><!--entity yet_another_process--><g id="elem_yet_another_process"><rect fill="#F1F1F1" height="39.0679" rx="2.5" ry="2.5" style="stroke:#181818;stroke-width:0.5;" width="150.6195" x="629.69" y="753.406"/><text fill="#000000" font-family="sans-serif" font-size="14" lengthAdjust="spacing" textLength="130.6195" x="639.69" y="778.3719">yet another process</text></g><!--entity elsewhere--><g id="elem_elsewhere"><path d="M621.7502,14.3569 C626.0929,8.681 630.3385,8.3056 635.1264,13.8249 C640.3399,6 645.8928,6.365 650.2255,14.6505 C653.4935,7.6893 659.0926,6.4536 663.8028,13.2246 C667.9765,6.8432 673.44,6.362 677.4209,13.4199 C682.1593,7.547 686.6055,8.3236 690.1454,14.6681 C694.2273,8.3684 699.0406,7.6668 703.3151,14.4746 C713.277,16.3837 717.7201,21.376 712.0584,31.3702 C717.4178,41.2133 714.9338,47.9246 703.0852,49.0184 C700.0738,54.9805 694.2408,55.1624 690.1821,50.2624 C687.2182,56.5366 681.8268,58.1443 677.4456,51.6796 C673.4305,59.5732 667.9335,60.8728 662.4398,53.0955 C658.8673,58.562 652.942,58.1019 649.9852,52.4085 C645.616,59.0389 638.7609,58.6935 636.0988,50.7788 C631.2206,56.524 624.5878,56.7914 621.7668,48.6549 C609.9698,47.0076 607.927,40.4156 614.4081,31.1045 C607.8505,22.0288 612.2518,16.3937 621.7502,14.3569 " fill="#F1F1F1" style="stroke:#181818;stroke-width:0.5;"/><text fill="#000000" font-family="sans-serif" font-size="14" lengthAdjust="spacing" textLength="67.3397" x="628.33" y="36.1619">elsewhere</text></g><!--link bridge to GMN19--><g id="link_bridge_GMN19"><path d="M865.0408,527.366 C865.1313,527.366 865.2217,527.366 865.3122,527.366 C865.4931,527.366 865.6741,527.366 865.855,527.366 C868.75,527.366 871.645,527.366 874.54,527.366 C880.33,527.366 886.12,527.366 891.91,527.366 " fill="none" id="bridge-GMN19" style="stroke:#181818;stroke-width:1.0;stroke-dasharray:7.0,7.0;"/></g><!--link phys_port1 to phys_port2--><g id="link_phys_port1_phys_port2"><path d="M645.39,281.796 C656.85,281.796 668.3,281.796 679.76,281.796 " fill="none" id="phys_port1-phys_port2" style="stroke:#FFFFFF;stroke-width:1.0;"/></g><!--link elsewhere to phys_port1--><g id="link_elsewhere_phys_port1"><path d="M654.81,55.606 C639.96,104.926 606.17,217.116 592.7,261.866 " fill="none" id="elsewhere-phys_port1" style="stroke:#181818;stroke-width:1.0;"/></g><!--link elsewhere to phys_port2--><g id="link_elsewhere_phys_port2"><path d="M669.29,55.606 C684.33,104.926 718.57,217.116 732.22,261.866 " fill="none" id="elsewhere-phys_port2" style="stroke:#181818;stroke-width:1.0;"/></g><!--link veth_0_br to veth_0--><g id="link_veth_0_br_veth_0"><path d="M176.25,547.256 C172.23,574.956 164.77,626.286 160.75,653.976 " fill="none" id="veth_0_br-veth_0" style="stroke:#181818;stroke-width:1.0;"/></g><!--link veth_1_br to veth_1--><g id="link_veth_1_br_veth_1"><path d="M277.25,547.256 C273.23,574.956 265.77,626.286 261.75,653.976 " fill="none" id="veth_1_br-veth_1" style="stroke:#181818;stroke-width:1.0;"/></g><!--link veth_2_br to veth_2--><g id="link_veth_2_br_veth_2"><path d="M381,547.256 C381,574.956 381,626.286 381,653.976 " fill="none" id="veth_2_br-veth_2" style="stroke:#181818;stroke-width:1.0;"/></g><!--link veth_3_br to veth_3--><g id="link_veth_3_br_veth_3"><path d="M482,547.256 C482,574.956 482,626.286 482,653.976 " fill="none" id="veth_3_br-veth_3" style="stroke:#181818;stroke-width:1.0;"/></g><!--link veth_4_br to veth_4--><g id="link_veth_4_br_veth_4"><path d="M585.75,547.256 C589.77,574.956 597.23,626.286 601.25,653.976 " fill="none" id="veth_4_br-veth_4" style="stroke:#181818;stroke-width:1.0;"/></g><!--link veth_5_br to veth_5--><g id="link_veth_5_br_veth_5"><path d="M686.75,547.256 C690.77,574.956 698.23,626.286 702.25,653.976 " fill="none" id="veth_5_br-veth_5" style="stroke:#181818;stroke-width:1.0;"/></g><!--link veth_6_br to veth_6--><g id="link_veth_6_br_veth_6"><path d="M787.75,547.256 C791.77,574.956 799.23,626.286 803.25,653.976 " fill="none" id="veth_6_br-veth_6" style="stroke:#181818;stroke-width:1.0;"/></g><!--link veth_0 to some_process--><!--link veth_1 to some_process--><!--link veth_2 to some_other_process--><!--link veth_3 to some_other_process--><!--link veth_4 to yet_another_process--><!--link veth_5 to yet_another_process--><!--link veth_6 to yet_another_process--><!--link veth.dpdk to veth.kernel--><g id="link_veth.dpdk_veth.kernel"><path d="M855,301.516 C855,318.586 855,343.716 855,360.876 " fill="none" id="veth.dpdk-veth.kernel" style="stroke:#181818;stroke-width:1.0;"/></g><!--link veth.kernel to bridge--></g></svg>