<svg xmlns="http://www.w3.org/2000/svg" xmlns:xlink="http://www.w3.org/1999/xlink" contentStyleType="text/css" height="1305px" preserveAspectRatio="none" style="width:925px;height:1305px;background:#FFFFFF;" version="1.1" viewBox="0 0 925 1305" width="925px" zoomAndPan="magnify"><defs/><g><text fill="#000000" font-family="sans-serif" font-size="14" font-weight="bold" lengthAdjust="spacing" textLength="66.2198" x="428.1696" y="34.9659">First pass</text><rect fill="none" height="120.412" style="stroke:#000000;stroke-width:1.5;" width="179.9634" x="367.7978" y="51.6699"/><path d="M537.7612,51.6699 L537.7612,63.7378 L527.7612,73.7378 L367.7978,73.7378 " fill="none" style="stroke:#000000;stroke-width:1.5;"/><text fill="#000000" font-family="sans-serif" font-size="14" lengthAdjust="spacing" textLength="159.9634" x="370.7978" y="67.6358">Group 0: Shared Ingress</text><ellipse cx="457.7795" cy="93.7378" fill="#222222" rx="10" ry="10" style="stroke:#222222;stroke-width:1.0;"/><rect fill="#ADD8E6" height="36.3441" rx="12.5" ry="12.5" style="stroke:#181818;stroke-width:0.5;" width="93.7285" x="410.9152" y="123.7378"/><text fill="#000000" font-family="sans-serif" font-size="12" lengthAdjust="spacing" textLength="73.7285" x="420.9152" y="146.5659">goto group 1</text><rect fill="none" height="278.1003" style="stroke:#000000;stroke-width:1.5;" width="429.9464" x="242.8063" y="182.0819"/><path d="M354.8519,182.0819 L354.8519,194.1498 L344.8519,204.1498 L242.8063,204.1498 " fill="none" style="stroke:#000000;stroke-width:1.5;"/><text fill="#000000" font-family="sans-serif" font-size="14" lengthAdjust="spacing" textLength="102.0456" x="245.8063" y="198.0479">Group 1: Decap</text><polygon fill="#F1F1F1" points="443.3036,221.1498,472.2554,221.1498,484.2554,233.1498,472.2554,245.1498,443.3036,245.1498,431.3036,233.1498,443.3036,221.1498" style="stroke:#181818;stroke-width:0.5;"/><text fill="#000000" font-family="sans-serif" font-size="11" lengthAdjust="spacing" textLength="28.9518" x="443.3036" y="237.4178">parse</text><rect fill="#FFD700" height="36.3441" rx="12.5" ry="12.5" style="stroke:#181818;stroke-width:0.5;" width="257.9617" x="252.8063" y="265.1498"/><text fill="#000000" font-family="sans-serif" font-size="12" lengthAdjust="spacing" textLength="237.9617" x="262.8063" y="287.9779">eth / vlan 2 / ipv4 / udp dst == 4789 / vxlan</text><rect fill="#ADD8E6" height="36.3441" rx="12.5" ry="12.5" style="stroke:#181818;stroke-width:0.5;" width="125.2527" x="319.1607" y="321.494"/><text fill="#000000" font-family="sans-serif" font-size="12" lengthAdjust="spacing" textLength="105.2527" x="329.1607" y="344.3221">set metadata f(vni)</text><rect fill="#ADD8E6" height="36.3441" rx="12.5" ry="12.5" style="stroke:#181818;stroke-width:0.5;" width="216.9933" x="273.2904" y="377.8381"/><text fill="#000000" font-family="sans-serif" font-size="12" lengthAdjust="spacing" textLength="196.9933" x="283.2904" y="400.6662">pop vlan + vxlan decap (raw decap)</text><rect fill="#FFD700" height="36.3441" rx="12.5" ry="12.5" style="stroke:#181818;stroke-width:0.5;" width="107.9966" x="542.762" y="265.1498"/><text fill="#000000" font-family="sans-serif" font-size="12" lengthAdjust="spacing" textLength="87.9966" x="552.762" y="287.9779">eth / vlan N != 2</text><rect fill="#ADD8E6" height="36.3441" rx="12.5" ry="12.5" style="stroke:#181818;stroke-width:0.5;" width="131.9848" x="530.7679" y="321.494"/><text fill="#000000" font-family="sans-serif" font-size="12" lengthAdjust="spacing" textLength="111.9848" x="540.7679" y="344.3221">set metadata f(vlan)</text><rect fill="#ADD8E6" height="36.3441" rx="12.5" ry="12.5" style="stroke:#181818;stroke-width:0.5;" width="68.4803" x="562.5201" y="377.8381"/><text fill="#000000" font-family="sans-serif" font-size="12" lengthAdjust="spacing" textLength="48.4803" x="572.5201" y="400.6662">pop vlan</text><polygon fill="#F1F1F1" points="457.7795,424.1822,457.7795,424.1822,469.7795,436.1822,457.7795,448.1822,457.7795,448.1822,445.7795,436.1822,457.7795,424.1822" style="stroke:#181818;stroke-width:0.5;"/><rect fill="none" height="451.5123" style="stroke:#000000;stroke-width:1.5;" width="903.559" x="11" y="470.1822"/><path d="M109.1156,470.1822 L109.1156,482.2501 L99.1156,492.2501 L11,492.2501 " fill="none" style="stroke:#000000;stroke-width:1.5;"/><text fill="#000000" font-family="sans-serif" font-size="14" lengthAdjust="spacing" textLength="88.1156" x="14" y="486.1481">Group 2: NAT</text><polygon fill="#F1F1F1" points="443.3036,509.2501,472.2554,509.2501,484.2554,521.2501,472.2554,533.2501,443.3036,533.2501,431.3036,521.2501,443.3036,509.2501" style="stroke:#181818;stroke-width:0.5;"/><text fill="#000000" font-family="sans-serif" font-size="11" lengthAdjust="spacing" textLength="28.9518" x="443.3036" y="525.5181">parse</text><rect fill="#FFD700" height="36.3441" rx="12.5" ry="12.5" style="stroke:#181818;stroke-width:0.5;" width="145.4489" x="193.3115" y="553.2501"/><text fill="#000000" font-family="sans-serif" font-size="12" lengthAdjust="spacing" textLength="125.4489" x="203.3115" y="576.0782">eth/ip/(tcp|udp|icmp)</text><polygon fill="#F1F1F1" points="244.63,618.6621,287.4418,618.6621,299.4418,630.6621,287.4418,642.6621,244.63,642.6621,232.63,630.6621,244.63,618.6621" style="stroke:#181818;stroke-width:0.5;"/><text fill="#000000" font-family="sans-serif" font-size="11" lengthAdjust="spacing" textLength="42.8117" x="244.63" y="634.9301">and ct is</text><rect fill="#FFD700" height="36.3441" rx="12.5" ry="12.5" style="stroke:#181818;stroke-width:0.5;" width="43.6162" x="71.9104" y="662.6621"/><text fill="#000000" font-family="sans-serif" font-size="12" lengthAdjust="spacing" textLength="23.6162" x="81.9104" y="685.4902">new</text><rect fill="#ADD8E6" height="36.3441" rx="12.5" ry="12.5" style="stroke:#181818;stroke-width:0.5;" width="145.4369" x="21" y="734.0063"/><text fill="#000000" font-family="sans-serif" font-size="12" lengthAdjust="spacing" textLength="112.5608" x="31" y="756.8343">send to dpdk queue</text><text fill="#000000" font-family="sans-serif" font-size="12" font-weight="bold" lengthAdjust="spacing" textLength="9.7561" x="146.6808" y="756.8343">N</text><rect fill="#FFD700" height="36.3441" rx="12.5" ry="12.5" style="stroke:#181818;stroke-width:0.5;" width="137.3488" x="306.8107" y="662.6621"/><text fill="#000000" font-family="sans-serif" font-size="12" lengthAdjust="spacing" textLength="117.3488" x="316.8107" y="685.4902">established | related</text><path d="M176.4369,734.0063 L176.4369,814.8303 A0,0 0 0 0 176.4369,814.8303 L333.7551,814.8303 A0,0 0 0 0 333.7551,814.8303 L333.7551,778.4183 L353.7551,774.4183 L333.7551,770.4183 L333.7551,744.0063 L323.7551,734.0063 L176.4369,734.0063 A0,0 0 0 0 176.4369,734.0063 " fill="#FFC0CB" style="stroke:#181818;stroke-width:0.5;"/><path d="M323.7551,734.0063 L323.7551,744.0063 L333.7551,744.0063 L323.7551,734.0063 " fill="#FFC0CB" style="stroke:#181818;stroke-width:0.5;"/><text fill="#000000" font-family="sans-serif" font-size="13" lengthAdjust="spacing" textLength="63.4271" x="182.4369" y="752.9033">HOT PATH</text><text fill="#000000" font-family="sans-serif" font-size="13" lengthAdjust="spacing" textLength="136.3181" x="182.4369" y="770.6093">This action is the main</text><text fill="#000000" font-family="sans-serif" font-size="13" lengthAdjust="spacing" textLength="136.2401" x="182.4369" y="788.3153">workload of the whole</text><text fill="#000000" font-family="sans-serif" font-size="13" lengthAdjust="spacing" textLength="57.5251" x="182.4369" y="806.0213">program.</text><rect fill="#ADD8E6" height="36.3441" rx="12.5" ry="12.5" style="stroke:#181818;stroke-width:0.5;" width="43.4602" x="353.7551" y="756.2462"/><text fill="#000000" font-family="sans-serif" font-size="12" lengthAdjust="spacing" textLength="23.4602" x="363.7551" y="779.0743">NAT</text><rect fill="#FFD700" height="36.3441" rx="12.5" ry="12.5" style="stroke:#181818;stroke-width:0.5;" width="56.9122" x="464.1596" y="662.6621"/><text fill="#000000" font-family="sans-serif" font-size="12" lengthAdjust="spacing" textLength="36.9122" x="474.1596" y="685.4902">invalid</text><rect fill="#ADD8E6" height="36.3441" rx="12.5" ry="12.5" style="stroke:#181818;stroke-width:0.5;" width="52.1842" x="466.5236" y="734.0063"/><text fill="#000000" font-family="sans-serif" font-size="12" lengthAdjust="spacing" textLength="32.1842" x="476.5236" y="756.8343">count</text><rect fill="#ADD8E6" height="36.3441" rx="12.5" ry="12.5" style="stroke:#181818;stroke-width:0.5;" width="46.9762" x="469.1276" y="805.3504"/><text fill="#000000" font-family="sans-serif" font-size="12" lengthAdjust="spacing" textLength="26.9762" x="479.1276" y="828.1785">drop</text><polygon fill="#F1F1F1" points="266.0359,851.6945,266.0359,851.6945,278.0359,863.6945,266.0359,875.6945,266.0359,875.6945,254.0359,863.6945,266.0359,851.6945" style="stroke:#181818;stroke-width:0.5;"/><path d="M723.1648,553.2501 L723.1648,571.9561 L703.1648,575.9561 L723.1648,579.9561 L723.1648,598.6621 A0,0 0 0 0 723.1648,598.6621 L904.559,598.6621 A0,0 0 0 0 904.559,598.6621 L904.559,563.2501 L894.559,553.2501 L723.1648,553.2501 A0,0 0 0 0 723.1648,553.2501 " fill="#FFC0CB" style="stroke:#181818;stroke-width:0.5;"/><path d="M894.559,553.2501 L894.559,563.2501 L904.559,563.2501 L894.559,553.2501 " fill="#FFC0CB" style="stroke:#181818;stroke-width:0.5;"/><text fill="#000000" font-family="sans-serif" font-size="13" lengthAdjust="spacing" textLength="160.3942" x="729.1648" y="572.1471">This is the most important</text><text fill="#000000" font-family="sans-serif" font-size="13" lengthAdjust="spacing" textLength="109.8891" x="729.1648" y="589.8531">thing to rate limit.</text><rect fill="#FFD700" height="36.3441" rx="12.5" ry="12.5" style="stroke:#181818;stroke-width:0.5;" width="162.093" x="541.0718" y="557.7841"/><text fill="#000000" font-family="sans-serif" font-size="12" lengthAdjust="spacing" textLength="142.093" x="551.0718" y="580.6122">eth/(arp|ipv6/icmpv6 nd)</text><rect fill="#ADD8E6" height="36.3441" rx="12.5" ry="12.5" style="stroke:#181818;stroke-width:0.5;" width="118.3047" x="562.966" y="627.7301"/><text fill="#000000" font-family="sans-serif" font-size="12" lengthAdjust="spacing" textLength="98.3047" x="572.966" y="650.5581">raw encap (vxlan)</text><rect fill="#ADD8E6" height="36.3441" rx="12.5" ry="12.5" style="stroke:#181818;stroke-width:0.5;" width="143.6729" x="550.2819" y="699.0742"/><text fill="#000000" font-family="sans-serif" font-size="12" lengthAdjust="spacing" textLength="123.6729" x="560.2819" y="721.9023">set vni based on meta</text><rect fill="#ADD8E6" height="36.3441" rx="12.5" ry="12.5" style="stroke:#181818;stroke-width:0.5;" width="149.0969" x="547.5698" y="770.4183"/><text fill="#000000" font-family="sans-serif" font-size="12" lengthAdjust="spacing" textLength="116.2208" x="557.5698" y="793.2464">send to DPDK queue</text><text fill="#000000" font-family="sans-serif" font-size="12" font-weight="bold" lengthAdjust="spacing" textLength="9.7561" x="676.9107" y="793.2464">N</text><polygon fill="#F1F1F1" points="457.7795,885.6945,457.7795,885.6945,469.7795,897.6945,457.7795,909.6945,457.7795,909.6945,445.7795,897.6945,457.7795,885.6945" style="stroke:#181818;stroke-width:0.5;"/><rect fill="none" height="278.1003" style="stroke:#000000;stroke-width:1.5;" width="338.3858" x="288.5866" y="931.6945"/><path d="M446.902,931.6945 L446.902,943.7624 L436.902,953.7624 L288.5866,953.7624 " fill="none" style="stroke:#000000;stroke-width:1.5;"/><text fill="#000000" font-family="sans-serif" font-size="14" lengthAdjust="spacing" textLength="148.3154" x="291.5866" y="947.6604">Group 3: Re-tag/encap</text><polygon fill="#F1F1F1" points="413.7028,970.7624,501.8562,970.7624,513.8562,982.7624,501.8562,994.7624,413.7028,994.7624,401.7028,982.7624,413.7028,970.7624" style="stroke:#181818;stroke-width:0.5;"/><text fill="#000000" font-family="sans-serif" font-size="11" lengthAdjust="spacing" textLength="88.1534" x="413.7028" y="987.0304">metadata lookup</text><rect fill="#FFD700" height="36.3441" rx="12.5" ry="12.5" style="stroke:#181818;stroke-width:0.5;" width="85.1004" x="333.4108" y="1014.7624"/><text fill="#000000" font-family="sans-serif" font-size="12" lengthAdjust="spacing" textLength="65.1004" x="343.4108" y="1037.5905">vlan+vxlan?</text><rect fill="#ADD8E6" height="36.3441" rx="12.5" ry="12.5" style="stroke:#181818;stroke-width:0.5;" width="154.7489" x="298.5866" y="1071.1065"/><text fill="#000000" font-family="sans-serif" font-size="12" lengthAdjust="spacing" textLength="134.7489" x="308.5866" y="1093.9346">raw encap (vlan + vxlan)</text><rect fill="#ADD8E6" height="36.3441" rx="12.5" ry="12.5" style="stroke:#181818;stroke-width:0.5;" width="143.6729" x="304.1246" y="1127.4506"/><text fill="#000000" font-family="sans-serif" font-size="12" lengthAdjust="spacing" textLength="123.6729" x="314.1246" y="1150.2787">set vni based on meta</text><rect fill="#FFD700" height="36.3441" rx="12.5" ry="12.5" style="stroke:#181818;stroke-width:0.5;" width="79.6284" x="505.3397" y="1014.7624"/><text fill="#000000" font-family="sans-serif" font-size="12" lengthAdjust="spacing" textLength="59.6284" x="515.3397" y="1037.5905">push vlan?</text><rect fill="#ADD8E6" height="36.3441" rx="12.5" ry="12.5" style="stroke:#181818;stroke-width:0.5;" width="74.4204" x="507.9437" y="1071.1065"/><text fill="#000000" font-family="sans-serif" font-size="12" lengthAdjust="spacing" textLength="54.4204" x="517.9437" y="1093.9346">push vlan</text><rect fill="#ADD8E6" height="36.3441" rx="12.5" ry="12.5" style="stroke:#181818;stroke-width:0.5;" width="143.6369" x="473.3355" y="1127.4506"/><text fill="#000000" font-family="sans-serif" font-size="12" lengthAdjust="spacing" textLength="123.6369" x="483.3355" y="1150.2787">set vid based on meta</text><polygon fill="#F1F1F1" points="457.7795,1173.7947,457.7795,1173.7947,469.7795,1185.7947,457.7795,1197.7947,457.7795,1197.7947,445.7795,1185.7947,457.7795,1173.7947" style="stroke:#181818;stroke-width:0.5;"/><rect fill="none" height="73.0679" style="stroke:#000000;stroke-width:1.5;" width="124.2296" x="395.6647" y="1221.3967"/><path d="M509.8943,1221.3967 L509.8943,1233.4646 L499.8943,1243.4646 L395.6647,1243.4646 " fill="none" style="stroke:#000000;stroke-width:1.5;"/><text fill="#000000" font-family="sans-serif" font-size="14" lengthAdjust="spacing" textLength="104.2296" x="398.6647" y="1237.3627">Group 4: Egress</text><ellipse cx="457.7795" cy="1271.4646" fill="none" rx="11" ry="11" style="stroke:#222222;stroke-width:1.0;"/><ellipse cx="457.7795" cy="1271.4646" fill="#222222" rx="6" ry="6" style="stroke:#222222;stroke-width:1.0;"/><line style="stroke:#181818;stroke-width:1.0;" x1="457.7795" x2="457.7795" y1="103.7378" y2="123.7378"/><polygon fill="#181818" points="453.7795,113.7378,457.7795,123.7378,461.7795,113.7378,457.7795,117.7378" style="stroke:#181818;stroke-width:1.0;"/><line style="stroke:#181818;stroke-width:1.0;" x1="381.7871" x2="381.7871" y1="301.494" y2="321.494"/><polygon fill="#181818" points="377.7871,311.494,381.7871,321.494,385.7871,311.494,381.7871,315.494" style="stroke:#181818;stroke-width:1.0;"/><line style="stroke:#181818;stroke-width:1.0;" x1="381.7871" x2="381.7871" y1="357.8381" y2="377.8381"/><polygon fill="#181818" points="377.7871,367.8381,381.7871,377.8381,385.7871,367.8381,381.7871,371.8381" style="stroke:#181818;stroke-width:1.0;"/><line style="stroke:#181818;stroke-width:1.0;" x1="596.7603" x2="596.7603" y1="301.494" y2="321.494"/><polygon fill="#181818" points="592.7603,311.494,596.7603,321.494,600.7603,311.494,596.7603,315.494" style="stroke:#181818;stroke-width:1.0;"/><line style="stroke:#181818;stroke-width:1.0;" x1="596.7603" x2="596.7603" y1="357.8381" y2="377.8381"/><polygon fill="#181818" points="592.7603,367.8381,596.7603,377.8381,600.7603,367.8381,596.7603,371.8381" style="stroke:#181818;stroke-width:1.0;"/><line style="stroke:#181818;stroke-width:1.0;" x1="431.3036" x2="381.7871" y1="233.1498" y2="233.1498"/><line style="stroke:#181818;stroke-width:1.0;" x1="381.7871" x2="381.7871" y1="233.1498" y2="265.1498"/><polygon fill="#181818" points="377.7871,255.1498,381.7871,265.1498,385.7871,255.1498,381.7871,259.1498" style="stroke:#181818;stroke-width:1.0;"/><line style="stroke:#181818;stroke-width:1.0;" x1="484.2554" x2="596.7603" y1="233.1498" y2="233.1498"/><line style="stroke:#181818;stroke-width:1.0;" x1="596.7603" x2="596.7603" y1="233.1498" y2="265.1498"/><polygon fill="#181818" points="592.7603,255.1498,596.7603,265.1498,600.7603,255.1498,596.7603,259.1498" style="stroke:#181818;stroke-width:1.0;"/><line style="stroke:#181818;stroke-width:1.0;" x1="381.7871" x2="381.7871" y1="414.1822" y2="436.1822"/><line style="stroke:#181818;stroke-width:1.0;" x1="381.7871" x2="445.7795" y1="436.1822" y2="436.1822"/><polygon fill="#181818" points="435.7795,432.1822,445.7795,436.1822,435.7795,440.1822,439.7795,436.1822" style="stroke:#181818;stroke-width:1.0;"/><line style="stroke:#181818;stroke-width:1.0;" x1="596.7603" x2="596.7603" y1="414.1822" y2="436.1822"/><line style="stroke:#181818;stroke-width:1.0;" x1="596.7603" x2="469.7795" y1="436.1822" y2="436.1822"/><polygon fill="#181818" points="479.7795,432.1822,469.7795,436.1822,479.7795,440.1822,475.7795,436.1822" style="stroke:#181818;stroke-width:1.0;"/><line style="stroke:#181818;stroke-width:1.0;" x1="457.7795" x2="457.7795" y1="160.0819" y2="221.1498"/><polygon fill="#181818" points="453.7795,211.1498,457.7795,221.1498,461.7795,211.1498,457.7795,215.1498" style="stroke:#181818;stroke-width:1.0;"/><line style="stroke:#181818;stroke-width:1.0;" x1="93.7185" x2="93.7185" y1="699.0063" y2="734.0063"/><polygon fill="#181818" points="89.7185,724.0063,93.7185,734.0063,97.7185,724.0063,93.7185,728.0063" style="stroke:#181818;stroke-width:1.0;"/><line style="stroke:#181818;stroke-width:1.0;" x1="375.4851" x2="375.4851" y1="699.0063" y2="756.2462"/><polygon fill="#181818" points="371.4851,746.2462,375.4851,756.2462,379.4851,746.2462,375.4851,750.2462" style="stroke:#181818;stroke-width:1.0;"/><line style="stroke:#181818;stroke-width:1.0;" x1="492.6157" x2="492.6157" y1="699.0063" y2="734.0063"/><polygon fill="#181818" points="488.6157,724.0063,492.6157,734.0063,496.6157,724.0063,492.6157,728.0063" style="stroke:#181818;stroke-width:1.0;"/><line style="stroke:#181818;stroke-width:1.0;" x1="492.6157" x2="492.6157" y1="770.3504" y2="805.3504"/><polygon fill="#181818" points="488.6157,795.3504,492.6157,805.3504,496.6157,795.3504,492.6157,799.3504" style="stroke:#181818;stroke-width:1.0;"/><line style="stroke:#181818;stroke-width:1.0;" x1="232.63" x2="93.7185" y1="630.6621" y2="630.6621"/><line style="stroke:#181818;stroke-width:1.0;" x1="93.7185" x2="93.7185" y1="630.6621" y2="662.6621"/><polygon fill="#181818" points="89.7185,652.6621,93.7185,662.6621,97.7185,652.6621,93.7185,656.6621" style="stroke:#181818;stroke-width:1.0;"/><line style="stroke:#181818;stroke-width:1.0;" x1="299.4418" x2="492.6157" y1="630.6621" y2="630.6621"/><line style="stroke:#181818;stroke-width:1.0;" x1="492.6157" x2="492.6157" y1="630.6621" y2="662.6621"/><polygon fill="#181818" points="488.6157,652.6621,492.6157,662.6621,496.6157,652.6621,492.6157,656.6621" style="stroke:#181818;stroke-width:1.0;"/><line style="stroke:#181818;stroke-width:1.0;" x1="375.4851" x2="375.4851" y1="630.6621" y2="662.6621"/><polygon fill="#181818" points="371.4851,652.6621,375.4851,662.6621,379.4851,652.6621,375.4851,656.6621" style="stroke:#181818;stroke-width:1.0;"/><line style="stroke:#181818;stroke-width:1.0;" x1="375.4851" x2="375.4851" y1="792.5903" y2="863.6945"/><line style="stroke:#181818;stroke-width:1.0;" x1="375.4851" x2="278.0359" y1="863.6945" y2="863.6945"/><polygon fill="#181818" points="288.0359,859.6945,278.0359,863.6945,288.0359,867.6945,284.0359,863.6945" style="stroke:#181818;stroke-width:1.0;"/><line style="stroke:#181818;stroke-width:1.0;" x1="375.4851" x2="375.4851" y1="792.5903" y2="863.6945"/><line style="stroke:#181818;stroke-width:1.0;" x1="375.4851" x2="278.0359" y1="863.6945" y2="863.6945"/><polygon fill="#181818" points="288.0359,859.6945,278.0359,863.6945,288.0359,867.6945,284.0359,863.6945" style="stroke:#181818;stroke-width:1.0;"/><line style="stroke:#181818;stroke-width:1.0;" x1="266.0359" x2="266.0359" y1="589.5942" y2="618.6621"/><polygon fill="#181818" points="262.0359,608.6621,266.0359,618.6621,270.0359,608.6621,266.0359,612.6621" style="stroke:#181818;stroke-width:1.0;"/><line style="stroke:#181818;stroke-width:1.0;" x1="622.1183" x2="622.1183" y1="594.1282" y2="627.7301"/><polygon fill="#181818" points="618.1183,617.7301,622.1183,627.7301,626.1183,617.7301,622.1183,621.7301" style="stroke:#181818;stroke-width:1.0;"/><line style="stroke:#181818;stroke-width:1.0;" x1="622.1183" x2="622.1183" y1="664.0742" y2="699.0742"/><polygon fill="#181818" points="618.1183,689.0742,622.1183,699.0742,626.1183,689.0742,622.1183,693.0742" style="stroke:#181818;stroke-width:1.0;"/><line style="stroke:#181818;stroke-width:1.0;" x1="622.1183" x2="622.1183" y1="735.4183" y2="770.4183"/><polygon fill="#181818" points="618.1183,760.4183,622.1183,770.4183,626.1183,760.4183,622.1183,764.4183" style="stroke:#181818;stroke-width:1.0;"/><line style="stroke:#181818;stroke-width:1.0;" x1="431.3036" x2="266.0359" y1="521.2501" y2="521.2501"/><line style="stroke:#181818;stroke-width:1.0;" x1="266.0359" x2="266.0359" y1="521.2501" y2="553.2501"/><polygon fill="#181818" points="262.0359,543.2501,266.0359,553.2501,270.0359,543.2501,266.0359,547.2501" style="stroke:#181818;stroke-width:1.0;"/><line style="stroke:#181818;stroke-width:1.0;" x1="484.2554" x2="622.1183" y1="521.2501" y2="521.2501"/><line style="stroke:#181818;stroke-width:1.0;" x1="622.1183" x2="622.1183" y1="521.2501" y2="557.7841"/><polygon fill="#181818" points="618.1183,547.7841,622.1183,557.7841,626.1183,547.7841,622.1183,551.7841" style="stroke:#181818;stroke-width:1.0;"/><line style="stroke:#181818;stroke-width:1.0;" x1="266.0359" x2="266.0359" y1="875.6945" y2="897.6945"/><line style="stroke:#181818;stroke-width:1.0;" x1="266.0359" x2="445.7795" y1="897.6945" y2="897.6945"/><polygon fill="#181818" points="435.7795,893.6945,445.7795,897.6945,435.7795,901.6945,439.7795,897.6945" style="stroke:#181818;stroke-width:1.0;"/><line style="stroke:#181818;stroke-width:1.0;" x1="457.7795" x2="457.7795" y1="448.1822" y2="509.2501"/><polygon fill="#181818" points="453.7795,499.2501,457.7795,509.2501,461.7795,499.2501,457.7795,503.2501" style="stroke:#181818;stroke-width:1.0;"/><line style="stroke:#181818;stroke-width:1.0;" x1="375.961" x2="375.961" y1="1051.1065" y2="1071.1065"/><polygon fill="#181818" points="371.961,1061.1065,375.961,1071.1065,379.961,1061.1065,375.961,1065.1065" style="stroke:#181818;stroke-width:1.0;"/><line style="stroke:#181818;stroke-width:1.0;" x1="375.961" x2="375.961" y1="1107.4506" y2="1127.4506"/><polygon fill="#181818" points="371.961,1117.4506,375.961,1127.4506,379.961,1117.4506,375.961,1121.4506" style="stroke:#181818;stroke-width:1.0;"/><line style="stroke:#181818;stroke-width:1.0;" x1="545.1539" x2="545.1539" y1="1051.1065" y2="1071.1065"/><polygon fill="#181818" points="541.1539,1061.1065,545.1539,1071.1065,549.1539,1061.1065,545.1539,1065.1065" style="stroke:#181818;stroke-width:1.0;"/><line style="stroke:#181818;stroke-width:1.0;" x1="545.1539" x2="545.1539" y1="1107.4506" y2="1127.4506"/><polygon fill="#181818" points="541.1539,1117.4506,545.1539,1127.4506,549.1539,1117.4506,545.1539,1121.4506" style="stroke:#181818;stroke-width:1.0;"/><line style="stroke:#181818;stroke-width:1.0;" x1="401.7028" x2="375.961" y1="982.7624" y2="982.7624"/><line style="stroke:#181818;stroke-width:1.0;" x1="375.961" x2="375.961" y1="982.7624" y2="1014.7624"/><polygon fill="#181818" points="371.961,1004.7624,375.961,1014.7624,379.961,1004.7624,375.961,1008.7624" style="stroke:#181818;stroke-width:1.0;"/><line style="stroke:#181818;stroke-width:1.0;" x1="513.8562" x2="545.1539" y1="982.7624" y2="982.7624"/><line style="stroke:#181818;stroke-width:1.0;" x1="545.1539" x2="545.1539" y1="982.7624" y2="1014.7624"/><polygon fill="#181818" points="541.1539,1004.7624,545.1539,1014.7624,549.1539,1004.7624,545.1539,1008.7624" style="stroke:#181818;stroke-width:1.0;"/><line style="stroke:#181818;stroke-width:1.0;" x1="375.961" x2="375.961" y1="1163.7947" y2="1185.7947"/><line style="stroke:#181818;stroke-width:1.0;" x1="375.961" x2="445.7795" y1="1185.7947" y2="1185.7947"/><polygon fill="#181818" points="435.7795,1181.7947,445.7795,1185.7947,435.7795,1189.7947,439.7795,1185.7947" style="stroke:#181818;stroke-width:1.0;"/><line style="stroke:#181818;stroke-width:1.0;" x1="545.1539" x2="545.1539" y1="1163.7947" y2="1185.7947"/><line style="stroke:#181818;stroke-width:1.0;" x1="545.1539" x2="469.7795" y1="1185.7947" y2="1185.7947"/><polygon fill="#181818" points="479.7795,1181.7947,469.7795,1185.7947,479.7795,1189.7947,475.7795,1185.7947" style="stroke:#181818;stroke-width:1.0;"/><line style="stroke:#181818;stroke-width:1.0;" x1="457.7795" x2="457.7795" y1="909.6945" y2="970.7624"/><polygon fill="#181818" points="453.7795,960.7624,457.7795,970.7624,461.7795,960.7624,457.7795,964.7624" style="stroke:#181818;stroke-width:1.0;"/><line style="stroke:#181818;stroke-width:1.0;" x1="457.7795" x2="457.7795" y1="1197.7947" y2="1260.4646"/><polygon fill="#181818" points="453.7795,1250.4646,457.7795,1260.4646,461.7795,1250.4646,457.7795,1254.4646" style="stroke:#181818;stroke-width:1.0;"/></g></svg>