<svg xmlns="http://www.w3.org/2000/svg" xmlns:xlink="http://www.w3.org/1999/xlink" contentStyleType="text/css" height="622px" preserveAspectRatio="none" style="width:1787px;height:622px;background:#FFFFFF;" version="1.1" viewBox="0 0 1787 622" width="1787px" zoomAndPan="magnify"><defs/><g><!--cluster host--><g id="cluster_host"><rect fill="none" height="484.1" rx="2.5" ry="2.5" style="stroke:#181818;stroke-width:1.0;" width="1774" x="7" y="132.266"/><text fill="#000000" font-family="sans-serif" font-size="14" font-weight="bold" lengthAdjust="spacing" textLength="30.8979" x="878.5511" y="149.2319">host</text></g><!--cluster eswitch--><g id="cluster_eswitch"><rect fill="none" height="93.06" rx="2.5" ry="2.5" style="stroke:#181818;stroke-width:1.0;" width="299" x="31" y="194.266"/><text fill="#000000" font-family="sans-serif" font-size="14" font-weight="bold" lengthAdjust="spacing" textLength="53.9558" x="153.5221" y="211.2319">eswitch</text></g><!--cluster bridge--><g id="cluster_bridge"><rect fill="none" height="109.06" rx="2.5" ry="2.5" style="stroke:#181818;stroke-width:1.0;" width="826" x="362" y="186.266"/><text fill="#000000" font-family="sans-serif" font-size="14" font-weight="bold" lengthAdjust="spacing" textLength="53.4938" x="748.2531" y="203.2319">bridge0</text></g><!--cluster netns A--><g id="cluster_netns A"><rect fill="none" height="221.87" rx="2.5" ry="2.5" style="stroke:#181818;stroke-width:1.0;" width="199" x="432" y="370.496"/><text fill="#000000" font-family="sans-serif" font-size="14" font-weight="bold" lengthAdjust="spacing" textLength="53.0038" x="504.9981" y="387.4619">netns A</text></g><!--cluster netns B--><g id="cluster_netns B"><rect fill="none" height="221.87" rx="2.5" ry="2.5" style="stroke:#181818;stroke-width:1.0;" width="199" x="655" y="370.496"/><text fill="#000000" font-family="sans-serif" font-size="14" font-weight="bold" lengthAdjust="spacing" textLength="52.7518" x="728.1241" y="387.4619">netns B</text></g><!--cluster netns C--><g id="cluster_netns C"><rect fill="none" height="221.87" rx="2.5" ry="2.5" style="stroke:#181818;stroke-width:1.0;" width="300" x="878" y="370.496"/><text fill="#000000" font-family="sans-serif" font-size="14" font-weight="bold" lengthAdjust="spacing" textLength="52.2618" x="1001.8691" y="387.4619">netns C</text></g><g id="elem_GMN16"><path d="M1215.26,184.826 L1215.26,318.7681 L1418.7412,318.7681 L1418.7412,194.826 L1408.7412,184.826 L1215.26,184.826 " fill="#FEFFDD" style="stroke:#181818;stroke-width:0.5;"/><path d="M1408.7412,184.826 L1408.7412,194.826 L1418.7412,194.826 L1408.7412,184.826 " fill="#FEFFDD" style="stroke:#181818;stroke-width:1.0;"/><text fill="#000000" font-family="sans-serif" font-size="13" lengthAdjust="spacing" textLength="129.4671" x="1221.26" y="203.723">I only draw one here,</text><text fill="#000000" font-family="sans-serif" font-size="13" lengthAdjust="spacing" textLength="171.5741" x="1221.26" y="221.429">but we can have more vteps</text><text fill="#000000" font-family="sans-serif" font-size="13" lengthAdjust="spacing" textLength="146.0941" x="1221.26" y="239.135">and more bridges using</text><text fill="#000000" font-family="sans-serif" font-size="13" lengthAdjust="spacing" textLength="20.059" x="1221.26" y="256.8411">the</text><text fill="#000000" font-family="sans-serif" font-size="13" font-weight="bold" lengthAdjust="spacing" textLength="54.782" x="1244.699" y="256.8411">external</text><text fill="#000000" font-family="sans-serif" font-size="13" lengthAdjust="spacing" textLength="30.186" x="1299.4811" y="256.8411">, and</text><text fill="#000000" font-family="sans-serif" font-size="13" font-weight="bold" lengthAdjust="spacing" textLength="52.091" x="1333.0471" y="256.8411">vnifilter</text><text fill="#000000" font-family="sans-serif" font-size="13" lengthAdjust="spacing" textLength="182.4812" x="1221.26" y="274.5471">flags when you make bridges.</text><text fill="#000000" font-family="sans-serif" font-size="13" lengthAdjust="spacing" textLength="3.38" x="1221.26" y="292.2531">&#160;</text><text fill="#000000" font-family="sans-serif" font-size="13" lengthAdjust="spacing" textLength="154.9732" x="1221.26" y="309.9591">Recent FRR supports this.</text></g><!--entity kubernetes--><g id="elem_kubernetes"><rect fill="#F1F1F1" height="58.1358" rx="2.5" ry="2.5" style="stroke:#181818;stroke-width:0.5;" width="95.8097" x="1454.1" y="222.726"/><text fill="#000000" font-family="sans-serif" font-size="14" lengthAdjust="spacing" textLength="75.8097" x="1464.1" y="247.6919">Kubernetes</text><text fill="#000000" font-family="sans-serif" font-size="14" lengthAdjust="spacing" textLength="65.0717" x="1464.1" y="266.7598">(present?)</text></g><g id="elem_GMN33"><path d="M1585.39,211.386 L1585.39,247.796 L1550.32,251.796 L1585.39,255.796 L1585.39,292.2101 A0,0 0 0 0 1585.39,292.2101 L1764.6001,292.2101 A0,0 0 0 0 1764.6001,292.2101 L1764.6001,221.386 L1754.6001,211.386 L1585.39,211.386 A0,0 0 0 0 1585.39,211.386 " fill="#FEFFDD" style="stroke:#181818;stroke-width:0.5;"/><path d="M1754.6001,211.386 L1754.6001,221.386 L1764.6001,221.386 L1754.6001,211.386 " fill="#FEFFDD" style="stroke:#181818;stroke-width:0.5;"/><text fill="#000000" font-family="sans-serif" font-size="13" lengthAdjust="spacing" textLength="121.8621" x="1591.39" y="230.283">I need to make sure</text><text fill="#000000" font-family="sans-serif" font-size="13" lengthAdjust="spacing" textLength="158.2101" x="1591.39" y="247.989">I understand exactly what</text><text fill="#000000" font-family="sans-serif" font-size="13" lengthAdjust="spacing" textLength="127.1921" x="1591.39" y="265.695">the plan is regarding</text><text fill="#000000" font-family="sans-serif" font-size="13" lengthAdjust="spacing" textLength="72.7741" x="1591.39" y="283.4011">kubernetes.</text></g><!--entity frr--><g id="elem_frr"><rect fill="#F1F1F1" height="58.1358" rx="2.5" ry="2.5" style="stroke:#181818;stroke-width:0.5;" width="69.2518" x="74.37" y="398.966"/><text fill="#000000" font-family="sans-serif" font-size="14" lengthAdjust="spacing" textLength="42.9098" x="84.37" y="423.9319">FRR???</text><text fill="#000000" font-family="sans-serif" font-size="14" lengthAdjust="spacing" textLength="49.2518" x="84.37" y="442.9998">(future)</text></g><g id="elem_GMN37"><path d="M178.75,378.766 L178.75,424.036 L144.05,428.036 L178.75,432.036 L178.75,477.2961 A0,0 0 0 0 178.75,477.2961 L409.2451,477.2961 A0,0 0 0 0 409.2451,477.2961 L409.2451,388.766 L399.2451,378.766 L178.75,378.766 A0,0 0 0 0 178.75,378.766 " fill="#FEFFDD" style="stroke:#181818;stroke-width:0.5;"/><path d="M399.2451,378.766 L399.2451,388.766 L409.2451,388.766 L399.2451,378.766 " fill="#FEFFDD" style="stroke:#181818;stroke-width:0.5;"/><text fill="#000000" font-family="sans-serif" font-size="13" lengthAdjust="spacing" textLength="162.7082" x="184.75" y="397.663">I understand that we don't</text><text fill="#000000" font-family="sans-serif" font-size="13" lengthAdjust="spacing" textLength="177.2292" x="184.75" y="415.369">need FRR now, but I think we</text><text fill="#000000" font-family="sans-serif" font-size="13" lengthAdjust="spacing" textLength="170.4302" x="184.75" y="433.075">can all see that one coming.</text><text fill="#000000" font-family="sans-serif" font-size="13" lengthAdjust="spacing" textLength="3.38" x="184.75" y="450.7811">&#160;</text><text fill="#000000" font-family="sans-serif" font-size="13" lengthAdjust="spacing" textLength="155.0771" x="184.75" y="468.4871">Let me know if I'm wrong</text><text fill="#000000" font-family="sans-serif" font-size="13" font-weight="bold" lengthAdjust="spacing" textLength="51.038" x="343.2071" y="468.4871">&#175;\_(&#12484;)_/&#175;</text></g><!--entity phys_port1--><g id="elem_phys_port1"><rect fill="#FFA500" height="39.0679" rx="2.5" ry="2.5" style="stroke:#181818;stroke-width:0.5;" width="116.1096" x="46.95" y="232.266"/><text fill="#000000" font-family="sans-serif" font-size="14" lengthAdjust="spacing" textLength="96.1096" x="56.95" y="257.2319">physical port 1</text></g><!--entity phys_port2--><g id="elem_phys_port2"><rect fill="#FFA500" height="39.0679" rx="2.5" ry="2.5" style="stroke:#181818;stroke-width:0.5;" width="116.1096" x="197.95" y="232.266"/><text fill="#000000" font-family="sans-serif" font-size="14" lengthAdjust="spacing" textLength="96.1096" x="207.95" y="257.2319">physical port 2</text></g><!--entity vtep--><g id="elem_vtep"><rect fill="#90EE90" height="39.0679" rx="2.5" ry="2.5" style="stroke:#181818;stroke-width:0.5;" width="48.6719" x="385.66" y="232.266"/><text fill="#000000" font-family="sans-serif" font-size="14" lengthAdjust="spacing" textLength="28.6719" x="395.66" y="257.2319">vtep</text></g><!--entity veth_0_br--><g id="elem_veth_0_br"><rect fill="#C962A9" height="39.0679" rx="2.5" ry="2.5" style="stroke:#181818;stroke-width:0.5;" width="65.9338" x="469.03" y="232.266"/><text fill="#000000" font-family="sans-serif" font-size="14" lengthAdjust="spacing" textLength="45.9338" x="479.03" y="257.2319">veth[0]</text></g><!--entity veth_1_br--><g id="elem_veth_1_br"><rect fill="#C962A9" height="39.0679" rx="2.5" ry="2.5" style="stroke:#181818;stroke-width:0.5;" width="65.9338" x="570.03" y="232.266"/><text fill="#000000" font-family="sans-serif" font-size="14" lengthAdjust="spacing" textLength="45.9338" x="580.03" y="257.2319">veth[1]</text></g><!--entity veth_2_br--><g id="elem_veth_2_br"><rect fill="#C962A9" height="39.0679" rx="2.5" ry="2.5" style="stroke:#181818;stroke-width:0.5;" width="65.9338" x="671.03" y="232.266"/><text fill="#000000" font-family="sans-serif" font-size="14" lengthAdjust="spacing" textLength="45.9338" x="681.03" y="257.2319">veth[2]</text></g><!--entity veth_3_br--><g id="elem_veth_3_br"><rect fill="#C962A9" height="39.0679" rx="2.5" ry="2.5" style="stroke:#181818;stroke-width:0.5;" width="65.9338" x="772.03" y="232.266"/><text fill="#000000" font-family="sans-serif" font-size="14" lengthAdjust="spacing" textLength="45.9338" x="782.03" y="257.2319">veth[3]</text></g><!--entity veth_4_br--><g id="elem_veth_4_br"><rect fill="#C962A9" height="39.0679" rx="2.5" ry="2.5" style="stroke:#181818;stroke-width:0.5;" width="65.9338" x="873.03" y="232.266"/><text fill="#000000" font-family="sans-serif" font-size="14" lengthAdjust="spacing" textLength="45.9338" x="883.03" y="257.2319">veth[4]</text></g><!--entity veth_5_br--><g id="elem_veth_5_br"><rect fill="#C962A9" height="39.0679" rx="2.5" ry="2.5" style="stroke:#181818;stroke-width:0.5;" width="65.9338" x="974.03" y="232.266"/><text fill="#000000" font-family="sans-serif" font-size="14" lengthAdjust="spacing" textLength="45.9338" x="984.03" y="257.2319">veth[5]</text></g><!--entity veth_6_br--><g id="elem_veth_6_br"><rect fill="#C962A9" height="39.0679" rx="2.5" ry="2.5" style="stroke:#181818;stroke-width:0.5;" width="65.9338" x="1075.03" y="232.266"/><text fill="#000000" font-family="sans-serif" font-size="14" lengthAdjust="spacing" textLength="45.9338" x="1085.03" y="257.2319">veth[6]</text></g><!--entity veth_0--><g id="elem_veth_0"><rect fill="#C962A9" height="39.0679" rx="2.5" ry="2.5" style="stroke:#181818;stroke-width:0.5;" width="65.9338" x="448.03" y="408.496"/><text fill="#000000" font-family="sans-serif" font-size="14" lengthAdjust="spacing" textLength="45.9338" x="458.03" y="433.4619">veth[0]</text></g><!--entity veth_1--><g id="elem_veth_1"><rect fill="#C962A9" height="39.0679" rx="2.5" ry="2.5" style="stroke:#181818;stroke-width:0.5;" width="65.9338" x="549.03" y="408.496"/><text fill="#000000" font-family="sans-serif" font-size="14" lengthAdjust="spacing" textLength="45.9338" x="559.03" y="433.4619">veth[1]</text></g><!--entity some_process--><g id="elem_some_process"><rect fill="#F1F1F1" height="39.0679" rx="2.5" ry="2.5" style="stroke:#181818;stroke-width:0.5;" width="110.6917" x="475.65" y="537.296"/><text fill="#000000" font-family="sans-serif" font-size="14" lengthAdjust="spacing" textLength="90.6917" x="485.65" y="562.2619">some process</text></g><!--entity veth_2--><g id="elem_veth_2"><rect fill="#C962A9" height="39.0679" rx="2.5" ry="2.5" style="stroke:#181818;stroke-width:0.5;" width="65.9338" x="671.03" y="408.496"/><text fill="#000000" font-family="sans-serif" font-size="14" lengthAdjust="spacing" textLength="45.9338" x="681.03" y="433.4619">veth[2]</text></g><!--entity veth_3--><g id="elem_veth_3"><rect fill="#C962A9" height="39.0679" rx="2.5" ry="2.5" style="stroke:#181818;stroke-width:0.5;" width="65.9338" x="772.03" y="408.496"/><text fill="#000000" font-family="sans-serif" font-size="14" lengthAdjust="spacing" textLength="45.9338" x="782.03" y="433.4619">veth[3]</text></g><!--entity some_other_process--><g id="elem_some_other_process"><rect fill="#F1F1F1" height="39.0679" rx="2.5" ry="2.5" style="stroke:#181818;stroke-width:0.5;" width="150.1855" x="678.91" y="537.296"/><text fill="#000000" font-family="sans-serif" font-size="14" lengthAdjust="spacing" textLength="130.1855" x="688.91" y="562.2619">some other process</text></g><!--entity veth_4--><g id="elem_veth_4"><rect fill="#C962A9" height="39.0679" rx="2.5" ry="2.5" style="stroke:#181818;stroke-width:0.5;" width="65.9338" x="894.03" y="408.496"/><text fill="#000000" font-family="sans-serif" font-size="14" lengthAdjust="spacing" textLength="45.9338" x="904.03" y="433.4619">veth[4]</text></g><!--entity veth_5--><g id="elem_veth_5"><rect fill="#C962A9" height="39.0679" rx="2.5" ry="2.5" style="stroke:#181818;stroke-width:0.5;" width="65.9338" x="995.03" y="408.496"/><text fill="#000000" font-family="sans-serif" font-size="14" lengthAdjust="spacing" textLength="45.9338" x="1005.03" y="433.4619">veth[5]</text></g><!--entity veth_6--><g id="elem_veth_6"><rect fill="#C962A9" height="39.0679" rx="2.5" ry="2.5" style="stroke:#181818;stroke-width:0.5;" width="65.9338" x="1096.03" y="408.496"/><text fill="#000000" font-family="sans-serif" font-size="14" lengthAdjust="spacing" textLength="45.9338" x="1106.03" y="433.4619">veth[6]</text></g><!--entity yet_another_process--><g id="elem_yet_another_process"><rect fill="#F1F1F1" height="39.0679" rx="2.5" ry="2.5" style="stroke:#181818;stroke-width:0.5;" width="150.6195" x="952.69" y="537.296"/><text fill="#000000" font-family="sans-serif" font-size="14" lengthAdjust="spacing" textLength="130.6195" x="962.69" y="562.2619">yet another process</text></g><!--entity elsewhere--><g id="elem_elsewhere"><path d="M139.7502,14.3569 C144.0929,8.681 148.3385,8.3056 153.1264,13.8249 C158.3399,6 163.8928,6.365 168.2255,14.6505 C171.4935,7.6893 177.0926,6.4536 181.8028,13.2246 C185.9765,6.8432 191.44,6.362 195.4209,13.4199 C200.1593,7.547 204.6055,8.3236 208.1454,14.6681 C212.2273,8.3684 217.0406,7.6668 221.3151,14.4746 C231.277,16.3837 235.7201,21.376 230.0584,31.3702 C235.4178,41.2133 232.9338,47.9246 221.0852,49.0184 C218.0738,54.9805 212.2408,55.1624 208.1821,50.2624 C205.2182,56.5366 199.8268,58.1443 195.4456,51.6796 C191.4305,59.5732 185.9335,60.8728 180.4398,53.0955 C176.8673,58.562 170.942,58.1019 167.9852,52.4085 C163.616,59.0389 156.7609,58.6935 154.0988,50.7788 C149.2206,56.524 142.5878,56.7914 139.7668,48.6549 C127.9698,47.0076 125.927,40.4156 132.4081,31.1045 C125.8505,22.0288 130.2518,16.3937 139.7502,14.3569 " fill="#F1F1F1" style="stroke:#181818;stroke-width:0.5;"/><text fill="#000000" font-family="sans-serif" font-size="14" lengthAdjust="spacing" textLength="67.3397" x="146.33" y="36.1619">elsewhere</text></g><!--link bridge to GMN16--><g id="link_bridge_GMN16"><path d="M1188.0408,251.796 C1188.1313,251.796 1188.2217,251.796 1188.3122,251.796 C1188.4931,251.796 1188.6741,251.796 1188.855,251.796 C1191.75,251.796 1194.645,251.796 1197.54,251.796 C1203.33,251.796 1209.12,251.796 1214.91,251.796 " fill="none" id="bridge-GMN16" style="stroke:#181818;stroke-width:1.0;stroke-dasharray:7.0,7.0;"/></g><!--link phys_port1 to phys_port2--><g id="link_phys_port1_phys_port2"><path d="M163.39,251.796 C174.85,251.796 186.3,251.796 197.76,251.796 " fill="none" id="phys_port1-phys_port2" style="stroke:#FFFFFF;stroke-width:1.0;"/></g><!--link elsewhere to phys_port1--><g id="link_elsewhere_phys_port1"><path d="M171.83,55.586 C156.8,99.506 125.04,192.266 111.42,232.036 " fill="none" id="elsewhere-phys_port1" style="stroke:#181818;stroke-width:1.0;"/></g><!--link elsewhere to phys_port2--><g id="link_elsewhere_phys_port2"><path d="M188.28,55.586 C203.51,99.506 235.69,192.266 249.49,232.036 " fill="none" id="elsewhere-phys_port2" style="stroke:#181818;stroke-width:1.0;"/></g><!--link veth_0_br to veth_0--><g id="link_veth_0_br_veth_0"><path d="M499.71,271.776 C495.67,305.286 487.32,374.576 483.28,408.076 " fill="none" id="veth_0_br-veth_0" style="stroke:#181818;stroke-width:1.0;"/></g><!--link veth_1_br to veth_1--><g id="link_veth_1_br_veth_1"><path d="M600.71,271.776 C596.67,305.286 588.32,374.576 584.28,408.076 " fill="none" id="veth_1_br-veth_1" style="stroke:#181818;stroke-width:1.0;"/></g><!--link veth_2_br to veth_2--><g id="link_veth_2_br_veth_2"><path d="M704,271.776 C704,305.286 704,374.576 704,408.076 " fill="none" id="veth_2_br-veth_2" style="stroke:#181818;stroke-width:1.0;"/></g><!--link veth_3_br to veth_3--><g id="link_veth_3_br_veth_3"><path d="M805,271.776 C805,305.286 805,374.576 805,408.076 " fill="none" id="veth_3_br-veth_3" style="stroke:#181818;stroke-width:1.0;"/></g><!--link veth_4_br to veth_4--><g id="link_veth_4_br_veth_4"><path d="M908.29,271.776 C912.33,305.286 920.68,374.576 924.72,408.076 " fill="none" id="veth_4_br-veth_4" style="stroke:#181818;stroke-width:1.0;"/></g><!--link veth_5_br to veth_5--><g id="link_veth_5_br_veth_5"><path d="M1009.29,271.776 C1013.33,305.286 1021.68,374.576 1025.72,408.076 " fill="none" id="veth_5_br-veth_5" style="stroke:#181818;stroke-width:1.0;"/></g><!--link veth_6_br to veth_6--><g id="link_veth_6_br_veth_6"><path d="M1110.29,271.776 C1114.33,305.286 1122.68,374.576 1126.72,408.076 " fill="none" id="veth_6_br-veth_6" style="stroke:#181818;stroke-width:1.0;"/></g><!--link phys_port1 to frr--><g id="link_phys_port1_frr"><path d="M105.44,271.776 C106.14,302.376 107.53,362.816 108.35,398.586 " fill="none" id="phys_port1-frr" style="stroke:#FFFFFF;stroke-width:1.0;"/></g><!--link phys_port2 to frr--><g id="link_phys_port2_frr"><path d="M239.32,271.646 C220.18,293.366 187.98,330.206 161,362.496 C151.22,374.206 140.63,387.276 131.57,398.586 " fill="none" id="phys_port2-frr" style="stroke:#FFFFFF;stroke-width:1.0;"/></g><!--link veth_0 to some_process--><!--link veth_1 to some_process--><!--link veth_2 to some_other_process--><!--link veth_3 to some_other_process--><!--link veth_4 to yet_another_process--><!--link veth_5 to yet_another_process--><!--link veth_6 to yet_another_process--></g></svg>