<svg xmlns="http://www.w3.org/2000/svg" xmlns:xlink="http://www.w3.org/1999/xlink" contentStyleType="text/css" height="774px" preserveAspectRatio="none" style="width:700px;height:774px;background:#FFFFFF;" version="1.1" viewBox="0 0 700 774" width="700px" zoomAndPan="magnify"><defs/><g><!--cluster host--><g id="cluster_host"><rect fill="none" height="636.34" rx="2.5" ry="2.5" style="stroke:#181818;stroke-width:1.0;" width="687" x="7" y="132.266"/><text fill="#000000" font-family="sans-serif" font-size="14" font-weight="bold" lengthAdjust="spacing" textLength="30.8979" x="335.0511" y="149.2319">host</text></g><!--cluster eswitch--><g id="cluster_eswitch"><rect fill="none" height="192.14" rx="2.5" ry="2.5" style="stroke:#181818;stroke-width:1.0;" width="299" x="371" y="178.266"/><text fill="#000000" font-family="sans-serif" font-size="14" font-weight="bold" lengthAdjust="spacing" textLength="53.9558" x="493.5221" y="195.2319">eswitch</text></g><!--cluster netns--><g id="cluster_netns"><rect fill="none" height="163.07" rx="2.5" ry="2.5" style="stroke:#181818;stroke-width:1.0;" width="639" x="31" y="469.466"/><text fill="#000000" font-family="sans-serif" font-size="14" font-weight="bold" lengthAdjust="spacing" textLength="39.7039" x="330.6481" y="486.4319">netns</text></g><!--cluster bridge--><g id="cluster_bridge"><rect fill="none" height="93.07" rx="2.5" ry="2.5" style="stroke:#181818;stroke-width:1.0;" width="484" x="55" y="515.466"/><text fill="#000000" font-family="sans-serif" font-size="14" font-weight="bold" lengthAdjust="spacing" textLength="53.4938" x="270.2531" y="532.4319">bridge0</text></g><!--entity user_sriov--><g id="elem_user_sriov"><rect fill="#ADD8E6" height="39.0679" rx="2.5" ry="2.5" style="stroke:#181818;stroke-width:0.5;" width="84.3578" x="402.82" y="414.406"/><text fill="#000000" font-family="sans-serif" font-size="14" lengthAdjust="spacing" textLength="64.3578" x="412.82" y="439.3719">user sriov</text></g><!--entity veth_0--><g id="elem_veth_0"><rect fill="#C962A9" height="39.0679" rx="2.5" ry="2.5" style="stroke:#181818;stroke-width:0.5;" width="65.9338" x="154.03" y="713.536"/><text fill="#000000" font-family="sans-serif" font-size="14" lengthAdjust="spacing" textLength="45.9338" x="164.03" y="738.5019">veth[0]</text></g><!--entity veth_1--><g id="elem_veth_1"><rect fill="#C962A9" height="39.0679" rx="2.5" ry="2.5" style="stroke:#181818;stroke-width:0.5;" width="65.9338" x="255.03" y="713.536"/><text fill="#000000" font-family="sans-serif" font-size="14" lengthAdjust="spacing" textLength="45.9338" x="265.03" y="738.5019">veth[1]</text></g><!--entity veth_2--><g id="elem_veth_2"><rect fill="#C962A9" height="39.0679" rx="2.5" ry="2.5" style="stroke:#181818;stroke-width:0.5;" width="65.9338" x="356.03" y="713.536"/><text fill="#000000" font-family="sans-serif" font-size="14" lengthAdjust="spacing" textLength="45.9338" x="366.03" y="738.5019">veth[2]</text></g><!--entity veth_3--><g id="elem_veth_3"><rect fill="#C962A9" height="39.0679" rx="2.5" ry="2.5" style="stroke:#181818;stroke-width:0.5;" width="65.9338" x="457.03" y="713.536"/><text fill="#000000" font-family="sans-serif" font-size="14" lengthAdjust="spacing" textLength="45.9338" x="467.03" y="738.5019">veth[3]</text></g><!--entity phys_port1--><g id="elem_phys_port1"><rect fill="#FFA500" height="39.0679" rx="2.5" ry="2.5" style="stroke:#181818;stroke-width:0.5;" width="116.1096" x="386.95" y="216.266"/><text fill="#000000" font-family="sans-serif" font-size="14" lengthAdjust="spacing" textLength="96.1096" x="396.95" y="241.2319">physical port 1</text></g><!--entity phys_port2--><g id="elem_phys_port2"><rect fill="#FFA500" height="39.0679" rx="2.5" ry="2.5" style="stroke:#181818;stroke-width:0.5;" width="116.1096" x="537.95" y="216.266"/><text fill="#000000" font-family="sans-serif" font-size="14" lengthAdjust="spacing" textLength="96.1096" x="547.95" y="241.2319">physical port 2</text></g><!--entity user_rep--><g id="elem_user_rep"><rect fill="#FFB6C1" height="39.0679" rx="2.5" ry="2.5" style="stroke:#181818;stroke-width:0.5;" width="74.9638" x="407.52" y="315.336"/><text fill="#000000" font-family="sans-serif" font-size="14" lengthAdjust="spacing" textLength="54.9638" x="417.52" y="340.3019">user rep</text></g><!--entity kernel_rep--><g id="elem_kernel_rep"><rect fill="#FFB6C1" height="39.0679" rx="2.5" ry="2.5" style="stroke:#181818;stroke-width:0.5;" width="87.2417" x="557.38" y="315.336"/><text fill="#000000" font-family="sans-serif" font-size="14" lengthAdjust="spacing" textLength="67.2417" x="567.38" y="340.3019">kernel rep</text></g><!--entity kernel_sriov--><g id="elem_kernel_sriov"><rect fill="#ADD8E6" height="39.0679" rx="2.5" ry="2.5" style="stroke:#181818;stroke-width:0.5;" width="96.6357" x="557.68" y="553.466"/><text fill="#000000" font-family="sans-serif" font-size="14" lengthAdjust="spacing" textLength="76.6357" x="567.68" y="578.4319">kernel sriov</text></g><!--entity vtep--><g id="elem_vtep"><rect fill="#90EE90" height="39.0679" rx="2.5" ry="2.5" style="stroke:#181818;stroke-width:0.5;" width="48.6719" x="70.66" y="553.466"/><text fill="#000000" font-family="sans-serif" font-size="14" lengthAdjust="spacing" textLength="28.6719" x="80.66" y="578.4319">vtep</text></g><!--entity veth_0_br--><g id="elem_veth_0_br"><rect fill="#C962A9" height="39.0679" rx="2.5" ry="2.5" style="stroke:#181818;stroke-width:0.5;" width="65.9338" x="154.03" y="553.466"/><text fill="#000000" font-family="sans-serif" font-size="14" lengthAdjust="spacing" textLength="45.9338" x="164.03" y="578.4319">veth[0]</text></g><!--entity veth_1_br--><g id="elem_veth_1_br"><rect fill="#C962A9" height="39.0679" rx="2.5" ry="2.5" style="stroke:#181818;stroke-width:0.5;" width="65.9338" x="255.03" y="553.466"/><text fill="#000000" font-family="sans-serif" font-size="14" lengthAdjust="spacing" textLength="45.9338" x="265.03" y="578.4319">veth[1]</text></g><!--entity veth_2_br--><g id="elem_veth_2_br"><rect fill="#C962A9" height="39.0679" rx="2.5" ry="2.5" style="stroke:#181818;stroke-width:0.5;" width="65.9338" x="356.03" y="553.466"/><text fill="#000000" font-family="sans-serif" font-size="14" lengthAdjust="spacing" textLength="45.9338" x="366.03" y="578.4319">veth[2]</text></g><!--entity veth_3_br--><g id="elem_veth_3_br"><rect fill="#C962A9" height="39.0679" rx="2.5" ry="2.5" style="stroke:#181818;stroke-width:0.5;" width="65.9338" x="457.03" y="553.466"/><text fill="#000000" font-family="sans-serif" font-size="14" lengthAdjust="spacing" textLength="45.9338" x="467.03" y="578.4319">veth[3]</text></g><!--entity elsewhere--><g id="elem_elsewhere"><path d="M479.7502,14.3569 C484.0929,8.681 488.3385,8.3056 493.1264,13.8249 C498.3399,6 503.8928,6.365 508.2255,14.6505 C511.4935,7.6893 517.0926,6.4536 521.8028,13.2246 C525.9765,6.8432 531.44,6.362 535.4209,13.4199 C540.1593,7.547 544.6055,8.3236 548.1454,14.6681 C552.2273,8.3684 557.0406,7.6668 561.3151,14.4746 C571.277,16.3837 575.7201,21.376 570.0584,31.3702 C575.4178,41.2133 572.9338,47.9246 561.0852,49.0184 C558.0738,54.9805 552.2408,55.1624 548.1821,50.2624 C545.2182,56.5366 539.8268,58.1443 535.4456,51.6796 C531.4305,59.5732 525.9335,60.8728 520.4398,53.0955 C516.8673,58.562 510.942,58.1019 507.9852,52.4085 C503.616,59.0389 496.7609,58.6935 494.0988,50.7788 C489.2206,56.524 482.5878,56.7914 479.7668,48.6549 C467.9698,47.0076 465.927,40.4156 472.4081,31.1045 C465.8505,22.0288 470.2518,16.3937 479.7502,14.3569 " fill="#F1F1F1" style="stroke:#181818;stroke-width:0.5;"/><text fill="#000000" font-family="sans-serif" font-size="14" lengthAdjust="spacing" textLength="67.3397" x="486.33" y="36.1619">elsewhere</text></g><!--link user_rep to user_sriov--><g id="link_user_rep_user_sriov"><path d="M445,354.586 C445,371.666 445,396.786 445,413.946 " fill="none" id="user_rep-user_sriov" style="stroke:#181818;stroke-width:1.0;"/></g><!--link kernel_rep to kernel_sriov--><g id="link_kernel_rep_kernel_sriov"><path d="M601.4,354.796 C602.34,399.006 604.66,508.686 605.6,552.986 " fill="none" id="kernel_rep-kernel_sriov" style="stroke:#181818;stroke-width:1.0;"/></g><!--link phys_port1 to phys_port2--><g id="link_phys_port1_phys_port2"><path d="M503.39,235.796 C514.85,235.796 526.3,235.796 537.76,235.796 " fill="none" id="phys_port1-phys_port2" style="stroke:#FFFFFF;stroke-width:1.0;"/></g><!--link phys_port1 to user_rep--><g id="link_phys_port1_user_rep"><path d="M445,255.516 C445,272.596 445,297.716 445,314.876 " fill="none" id="phys_port1-user_rep" style="stroke:#FFFFFF;stroke-width:1.0;"/></g><!--link phys_port2 to kernel_rep--><g id="link_phys_port2_kernel_rep"><path d="M596.96,255.516 C597.84,272.596 599.14,297.716 600.02,314.876 " fill="none" id="phys_port2-kernel_rep" style="stroke:#FFFFFF;stroke-width:1.0;"/></g><!--link elsewhere to phys_port1--><g id="link_elsewhere_phys_port1"><path d="M511.25,55.426 C496.18,96.226 465.63,178.946 451.93,216.046 " fill="none" id="elsewhere-phys_port1" style="stroke:#181818;stroke-width:1.0;"/></g><!--link elsewhere to phys_port2--><g id="link_elsewhere_phys_port2"><path d="M528.87,55.426 C544.14,96.226 575.1,178.946 588.98,216.046 " fill="none" id="elsewhere-phys_port2" style="stroke:#181818;stroke-width:1.0;"/></g><!--link veth_0_br to veth_0--><g id="link_veth_0_br_veth_0"><path d="M187,592.756 C187,623.176 187,682.936 187,713.346 " fill="none" id="veth_0_br-veth_0" style="stroke:#181818;stroke-width:1.0;"/></g><!--link veth_1_br to veth_1--><g id="link_veth_1_br_veth_1"><path d="M288,592.756 C288,623.176 288,682.936 288,713.346 " fill="none" id="veth_1_br-veth_1" style="stroke:#181818;stroke-width:1.0;"/></g><!--link veth_2_br to veth_2--><g id="link_veth_2_br_veth_2"><path d="M389,592.756 C389,623.176 389,682.936 389,713.346 " fill="none" id="veth_2_br-veth_2" style="stroke:#181818;stroke-width:1.0;"/></g><!--link veth_3_br to veth_3--><g id="link_veth_3_br_veth_3"><path d="M490,592.756 C490,623.176 490,682.936 490,713.346 " fill="none" id="veth_3_br-veth_3" style="stroke:#181818;stroke-width:1.0;"/></g></g></svg>